<?xml version="1.0" encoding="UTF-8" standalone="no"?><!-- Generator: Gravit.io --><svg xmlns="http://www.w3.org/2000/svg" xmlns:xlink="http://www.w3.org/1999/xlink" style="isolation:isolate" viewBox="159.5 -36.378 776 642.888" width="776pt" height="642.888pt"><defs><clipPath id="_clipPath_8tlq3MFifuEKSGEBNgG4MkDkZrtDLQRB"><rect x="159.5" y="-36.378" width="776" height="642.888"/></clipPath></defs><g clip-path="url(#_clipPath_8tlq3MFifuEKSGEBNgG4MkDkZrtDLQRB)"><path d=" M 419.172 309.386 C 424.366 298.982 432.635 292.812 442.172 286.386 C 450.825 280.556 459.303 277.662 469.172 274.386 C 477.755 271.537 485.298 270.095 494.172 268.386 C 515.676 264.245 534.284 262.919 556.172 263.386 C 566.387 263.604 575.035 264.086 585.172 265.386 C 594.746 266.615 602.872 267.768 612.172 270.386 C 621.607 273.043 629.283 276.272 638.172 280.386 C 649.179 285.481 658.269 290.371 668.172 297.386 C 685.907 309.95 698.973 323.403 711.172 341.386 C 717.272 350.379 721.551 358.558 726.172 368.386 C 730.199 376.953 733.432 384.318 736.172 393.386 C 739.386 404.025 741.194 413.315 742.172 424.386 C 743.007 433.848 743.107 441.93 742.172 451.386 C 741.54 457.772 741.075 463.243 739.172 469.386 C 737.211 475.712 736.073 481.737 731.172 486.386 C 725.606 491.666 718.529 492.06 711.172 493.386 C 699.977 495.405 690.334 492.995 679.172 491.386 C 667.009 489.633 656.973 486.77 645.172 483.386 C 632.67 479.801 622.362 475.908 610.172 471.386 C 597.752 466.78 587.289 462.742 575.172 457.386 C 544.634 443.889 519.102 431.2 492.172 411.386 C 465.441 391.72 433.667 360 424 346.386 C 418.389 338.485 413.662 330.298 415.172 320.386 C 415.795 316.294 417.331 313.074 419.172 309.386 Z " fill="none" vector-effect="non-scaling-stroke" stroke-width="1" stroke="rgb(0,0,0)" stroke-linejoin="miter" stroke-linecap="square" stroke-miterlimit="3"/><path d=" M 466.877 274.609 C 443.21 270.942 429.514 267.588 406.877 269.609 C 388.21 271.276 375.543 275.276 361.877 284.609 C 352.919 290.726 345.532 297.988 342.877 308.609 C 339.21 323.276 341.821 334.428 345.877 347.609 C 351.21 364.942 357.021 377.331 364.877 392.609 C 385.818 433.338 414.049 461.007 445.877 493.609 C 466.396 514.628 485.403 530.714 507.877 549.609 C 527.41 566.033 542.632 577.047 564.877 594.609" fill="none" vector-effect="non-scaling-stroke" stroke-width="1" stroke="rgb(0,0,0)" stroke-linejoin="miter" stroke-linecap="square" stroke-miterlimit="3"/><path d=" M 454.585 279.092 C 453.24 278.857 430.25 276.75 418 277 C 412.524 277.112 403.16 278.359 398.955 279.092 C 396.198 279.572 382.477 281.908 371.641 289 C 359.717 296.804 350.738 309.867 351 321 C 351.135 326.752 353.467 339.537 357.996 353 Q 363.018 367.928 371.641 386 Q 381.875 405.664 393 421 C 401.776 433.098 411.73 443.153 420 453 C 458.25 493.5 481.652 516.258 491 523.935 C 520 547.75 538 563.5 570 590" fill="none" vector-effect="non-scaling-stroke" stroke-width="0.839" stroke="rgb(0,0,0)" stroke-linejoin="miter" stroke-linecap="square" stroke-miterlimit="3"/><path d=" M 440 287 C 432.689 285.47 422.298 285.947 416 286 C 410.761 286.044 399.586 288.359 394 290 C 380.593 293.938 374.418 300.26 370 311 C 364.727 323.819 370.667 335.333 376 348 C 382.117 362.527 390.023 374.467 398.955 388 C 407.675 401.212 415.803 411.893 426 424 C 463.665 468.722 503.551 500.143 556 526 C 593.209 544.344 639.172 559.395 668 562 C 709.5 565.75 759.785 567.908 771 524 C 773.9 512.648 773.332 502.438 771 491 C 768.783 480.129 764.241 471.724 759 462 C 754.185 453.065 749.244 447.366 743 438" fill="none" vector-effect="non-scaling-stroke" stroke-width="1" stroke="rgb(0,0,0)" stroke-linejoin="miter" stroke-linecap="square" stroke-miterlimit="3"/><path d=" M 484 270 C 467.219 266.878 456.316 263.479 441 262 C 424.187 260.377 409.669 258.851 393 262 C 380.18 264.421 369.293 267.392 357.996 274 C 344.354 281.98 332.887 290.57 326 305 C 320.864 315.762 320.061 326.155 320 338 C 319.937 350.196 322.776 360.287 326 372 C 328.272 380.255 330.878 386.024 334 395" fill="none" vector-effect="non-scaling-stroke" stroke-width="1" stroke="rgb(0,0,0)" stroke-linejoin="miter" stroke-linecap="square" stroke-miterlimit="3"/><path d=" M 500 267 C 486.341 263.097 477.518 259.671 465 257 C 453.183 254.478 443.046 252.959 431 252 C 416.625 250.856 404.281 249.684 390 252 C 377.232 254.071 366.571 257.193 355 263 C 341.48 269.786 330.213 276.885 321 289 C 314.105 298.067 309.369 306.824 307 318 C 304.945 327.695 305.943 336.2 307 346 C 308.283 357.896 309.748 368.185 315 379 C 318.331 385.858 322.317 389.975 327 397" fill="none" vector-effect="non-scaling-stroke" stroke-width="1" stroke="rgb(0,0,0)" stroke-linejoin="miter" stroke-linecap="square" stroke-miterlimit="3"/><path d=" M 298 231 C 333.082 229.28 359.604 224.639 393 227 C 422.203 229.065 444.139 237.204 475 241 C 503.538 244.51 524.309 248.14 552 251 C 583.495 254.253 618.504 253.263 651 268 C 688.036 284.796 714.001 309.76 737 343 C 758.901 374.654 776.721 404.023 800 431 C 824.032 458.849 849.389 477.95 881 508" fill="none" vector-effect="non-scaling-stroke" stroke-width="1" stroke="rgb(0,0,0)" stroke-linejoin="miter" stroke-linecap="square" stroke-miterlimit="3"/><g><g><path d=" M 548 222 C 580.118 229.227 581.667 231.667 609 232 C 641.666 232.398 655.05 230.023 668 204 C 679.569 180.751 691.758 156.296 698.745 130.311 C 704.568 108.658 712.924 89.968 722.497 68.888 C 733.992 43.576 745.2 22.819 760.059 -0.676" fill="none" vector-effect="non-scaling-stroke" stroke-width="1" stroke="rgb(0,0,0)" stroke-linejoin="miter" stroke-linecap="square" stroke-miterlimit="3"/><path d=" M 547 222 C 531.298 218.261 487.176 188.629 436 180 C 373.105 169.396 302.138 177.999 297 180" fill="none" vector-effect="non-scaling-stroke" stroke-width="1" stroke="rgb(0,0,0)" stroke-linejoin="miter" stroke-linecap="square" stroke-miterlimit="3"/></g><g><path d=" M 795 346 C 782.047 336.611 776 330.333 756 317 C 734.667 303 702.333 284.333 715 247.129 C 729.667 214.667 773.576 156.142 813 105.88 C 829.826 84.428 839.419 63.036 853 39.396" fill="none" vector-effect="non-scaling-stroke" stroke-width="1" stroke="rgb(0,0,0)" stroke-linejoin="miter" stroke-linecap="square" stroke-miterlimit="3"/><path d=" M 791 343 C 813.635 359.781 830.109 369.011 849 386 C 874.258 408.716 892.92 435.572 912 459" fill="none" vector-effect="non-scaling-stroke" stroke-width="1" stroke="rgb(0,0,0)" stroke-linejoin="miter" stroke-linecap="square" stroke-miterlimit="3"/></g></g><mask id="_mask_7YBcCIlovLZGYRj76E15a6UaliaZHUrl"><path d=" M 895.144 29.09 C 889.586 44.1 852.297 44.146 811.928 29.195 C 771.558 14.243 743.297 -10.081 748.856 -25.09 C 754.414 -40.1 791.703 -40.146 832.072 -25.195 C 872.442 -10.243 900.703 14.081 895.144 29.09 Z " fill="white" stroke="none"/></mask><path d=" M 895.144 29.09 C 889.586 44.1 852.297 44.146 811.928 29.195 C 771.558 14.243 743.297 -10.081 748.856 -25.09 C 754.414 -40.1 791.703 -40.146 832.072 -25.195 C 872.442 -10.243 900.703 14.081 895.144 29.09 Z " fill="none"/><path d=" M 895.144 29.09 C 889.586 44.1 852.297 44.146 811.928 29.195 C 771.558 14.243 743.297 -10.081 748.856 -25.09 C 754.414 -40.1 791.703 -40.146 832.072 -25.195 C 872.442 -10.243 900.703 14.081 895.144 29.09 Z " fill="none" mask="url(#_mask_7YBcCIlovLZGYRj76E15a6UaliaZHUrl)" vector-effect="non-scaling-stroke" stroke-width="2" stroke="rgb(0,0,0)" stroke-linejoin="miter" stroke-linecap="square" stroke-miterlimit="3"/><path d=" M 297 180 C 261.876 191.318 242.124 197.682 207 209" fill="none" vector-effect="non-scaling-stroke" stroke-width="1" stroke="rgb(0,0,0)" stroke-linejoin="miter" stroke-linecap="square" stroke-miterlimit="3"/><path d=" M 206 210 C 236.441 206.878 256.467 203.298 284 202 C 307.524 200.891 327.464 201.428 351 202 C 367.86 202.41 380.24 203.219 398.955 204" fill="none" vector-effect="non-scaling-stroke" stroke-width="1" stroke="rgb(0,0,0)" stroke-linejoin="miter" stroke-linecap="square" stroke-miterlimit="3"/><path d=" M 398.955 204 C 370.483 206.342 351.497 206.528 326 210 C 290.735 214.802 260.15 217.646 227 231 C 206.254 239.357 192.855 249.292 171 261" fill="none" vector-effect="non-scaling-stroke" stroke-width="1" stroke="rgb(0,0,0)" stroke-linejoin="miter" stroke-linecap="square" stroke-miterlimit="3"/><path d=" M 298 231 C 271.462 236.854 253.304 238.422 230 246 C 217.832 249.957 209.269 253.927 196 259" fill="none" vector-effect="non-scaling-stroke" stroke-width="1" stroke="rgb(0,0,0)" stroke-linejoin="miter" stroke-linecap="square" stroke-miterlimit="3"/><path d=" M 196 259 L 161 276 L 172 261" fill="none" vector-effect="non-scaling-stroke" stroke-width="1" stroke="rgb(0,0,0)" stroke-linejoin="miter" stroke-linecap="square" stroke-miterlimit="3"/><path d=" M 334 395 L 351 424 L 326 395" fill="none" vector-effect="non-scaling-stroke" stroke-width="1" stroke="rgb(0,0,0)" stroke-linejoin="miter" stroke-linecap="square" stroke-miterlimit="3"/><path d=" M 570 590 L 591 605 Q 591.667 605.333 565 595" fill="none" vector-effect="non-scaling-stroke" stroke-width="1" stroke="rgb(0,0,0)" stroke-linejoin="miter" stroke-linecap="square" stroke-miterlimit="3"/><path d=" M 912 459 C 920.586 475.391 925.414 484.609 934 501" fill="none" vector-effect="non-scaling-stroke" stroke-width="1" stroke="rgb(0,0,0)" stroke-linejoin="miter" stroke-linecap="square" stroke-miterlimit="3"/><path d=" M 934 501 C 917.999 490.073 908.993 480.192 893 473 C 883.864 468.892 876.537 467.512 866 464" fill="none" vector-effect="non-scaling-stroke" stroke-width="1" stroke="rgb(0,0,0)" stroke-linejoin="miter" stroke-linecap="square" stroke-miterlimit="3"/><line x1="866" y1="464" x2="881" y2="508" vector-effect="non-scaling-stroke" stroke-width="1" stroke="rgb(0,0,0)" stroke-linejoin="miter" stroke-linecap="square" stroke-miterlimit="3"/></g></svg>