<?xml version="1.0" encoding="UTF-8" standalone="no"?><!-- Generator: Gravit.io --><svg xmlns="http://www.w3.org/2000/svg" xmlns:xlink="http://www.w3.org/1999/xlink" style="isolation:isolate" viewBox="159.4 -36.378 775.3 640.318" width="775.3pt" height="640.318pt"><defs><clipPath id="_clipPath_vKRhEg3JVNzEoqaPNyqtrzweoWsSACNQ"><rect x="159.4" y="-36.378" width="775.3" height="640.318"/></clipPath></defs><g clip-path="url(#_clipPath_vKRhEg3JVNzEoqaPNyqtrzweoWsSACNQ)"><path d=" M 419.172 309.386 C 424.366 298.982 432.635 292.812 442.172 286.386 C 450.825 280.556 459.303 277.662 469.172 274.386 C 477.755 271.537 485.298 270.095 494.172 268.386 C 515.676 264.245 534.284 262.919 556.172 263.386 C 566.387 263.604 575.035 264.086 585.172 265.386 C 594.746 266.615 602.872 267.768 612.172 270.386 C 621.607 273.043 629.283 276.272 638.172 280.386 C 649.179 285.481 658.269 290.371 668.172 297.386 C 685.907 309.95 698.973 323.403 711.172 341.386 C 717.272 350.379 721.551 358.558 726.172 368.386 C 730.199 376.953 733.432 384.318 736.172 393.386 C 739.386 404.025 741.194 413.315 742.172 424.386 C 743.007 433.848 743.107 441.93 742.172 451.386 C 741.54 457.772 741.075 463.243 739.172 469.386 C 737.211 475.712 736.073 481.737 731.172 486.386 C 725.606 491.666 718.529 492.06 711.172 493.386 C 699.977 495.405 690.334 492.995 679.172 491.386 C 667.009 489.633 656.973 486.77 645.172 483.386 C 632.67 479.801 622.362 475.908 610.172 471.386 C 597.752 466.78 587.289 462.742 575.172 457.386 C 544.634 443.889 519.102 431.2 492.172 411.386 C 465.441 391.72 433.667 360 424 346.386 C 418.389 338.485 413.662 330.298 415.172 320.386 C 415.795 316.294 417.331 313.074 419.172 309.386 Z " fill="none" vector-effect="non-scaling-stroke" stroke-width="1" stroke="rgb(0,0,0)" stroke-linejoin="miter" stroke-linecap="square" stroke-miterlimit="3"/><path d=" M 565.19 594.22 L 565.58 594.53 L 564.96 595.31 L 564.57 595 C 557.49 589.43 550.38 583.9 543.23 578.4 C 537.33 573.86 531.45 569.29 525.6 564.68 C 519.51 559.88 513.5 554.98 507.56 549.99 C 502.11 545.42 496.68 540.83 491.27 536.22 C 486.07 531.8 480.92 527.31 475.81 522.78 C 470.71 518.24 465.68 513.63 460.72 508.93 C 455.55 504.04 450.49 499.05 445.52 493.96 L 440.04 488.36 C 436.39 484.63 432.75 480.9 429.11 477.15 C 425.56 473.49 422.03 469.8 418.53 466.09 C 415.08 462.43 411.69 458.73 408.33 454.99 C 405.01 451.28 401.75 447.51 398.56 443.68 C 392.13 436 386.08 428.01 380.43 419.74 C 374.55 411.1 369.21 402.12 364.43 392.84 C 362.54 389.18 360.7 385.49 358.89 381.79 C 357.18 378.25 355.54 374.68 353.97 371.08 C 350.69 363.47 347.83 355.68 345.4 347.76 C 344.74 345.62 344.11 343.47 343.51 341.31 C 342.94 339.24 342.44 337.15 342 335.04 C 341.57 332.97 341.23 330.88 340.99 328.78 C 340.75 326.66 340.63 324.52 340.62 322.39 C 340.64 317.7 341.24 313.03 342.39 308.49 C 343.04 305.88 344.01 303.37 345.26 301 C 346.49 298.72 347.95 296.57 349.63 294.6 C 351.33 292.61 353.18 290.76 355.18 289.06 C 357.23 287.33 359.37 285.7 361.59 284.2 C 364.87 281.95 368.28 279.91 371.82 278.12 C 375.22 276.41 378.74 274.95 382.35 273.76 C 386.1 272.54 389.92 271.57 393.8 270.85 C 398.12 270.06 402.46 269.48 406.83 269.11 C 411.22 268.71 415.63 268.51 420.04 268.5 C 425.99 268.52 431.93 268.9 437.84 269.63 C 440.8 269.99 443.76 270.4 446.71 270.86 C 449.86 271.35 453.01 271.86 456.16 272.38 C 459.75 272.97 463.35 273.55 466.95 274.12 L 467.45 274.19 L 467.29 275.18 L 466.8 275.1 C 463.2 274.54 459.59 273.96 456 273.37 C 452.85 272.84 449.71 272.34 446.56 271.85 C 443.62 271.39 440.67 270.98 437.71 270.62 C 431.85 269.9 425.95 269.52 420.04 269.5 C 415.66 269.51 411.28 269.71 406.92 270.11 C 402.58 270.47 398.26 271.05 393.98 271.84 C 390.15 272.54 386.36 273.5 382.66 274.71 C 379.09 275.88 375.62 277.32 372.27 279.01 C 368.77 280.79 365.39 282.8 362.16 285.02 C 359.96 286.51 357.85 288.11 355.83 289.83 C 353.87 291.48 352.06 293.3 350.39 295.24 C 348.76 297.16 347.34 299.25 346.15 301.47 C 344.93 303.77 343.99 306.21 343.36 308.73 C 342.23 313.2 341.64 317.78 341.62 322.39 C 341.63 324.49 341.75 326.58 341.98 328.67 C 342.22 330.74 342.55 332.79 342.98 334.83 C 343.41 336.92 343.91 338.99 344.48 341.05 C 345.07 343.2 345.69 345.33 346.35 347.46 C 348.77 355.35 351.62 363.1 354.89 370.68 C 356.45 374.27 358.08 377.83 359.79 381.35 C 361.59 385.05 363.43 388.73 365.32 392.38 C 370.08 401.63 375.4 410.57 381.25 419.17 C 386.89 427.42 392.92 435.38 399.33 443.04 C 402.51 446.86 405.76 450.62 409.08 454.32 C 412.42 458.06 415.82 461.75 419.26 465.4 C 422.75 469.11 426.28 472.8 429.83 476.45 C 433.46 480.2 437.11 483.93 440.76 487.66 C 442.59 489.53 444.41 491.39 446.23 493.26 C 451.19 498.34 456.25 503.32 461.4 508.21 C 466.36 512.89 471.38 517.5 476.48 522.03 C 481.58 526.56 486.73 531.04 491.92 535.46 C 497.33 540.07 502.75 544.66 508.2 549.23 C 514.13 554.21 520.14 559.1 526.22 563.9 C 532.07 568.5 537.94 573.07 543.84 577.61 C 550.99 583.1 558.1 588.64 565.19 594.22 Z " fill="rgb(0,0,0)"/><path d=" M 570 590 C 538 563.5 520 547.75 491 523.935 C 481.652 516.258 458.25 493.5 420 453 C 411.73 443.153 401.776 433.098 393 421 Q 381.875 405.664 371.641 386 Q 363.018 367.928 357.996 353 C 353.467 339.537 351.135 326.752 351 321 C 350.738 309.867 359.717 296.804 371.641 289 C 382.477 281.908 396.198 279.572 398.955 279.092 C 403.16 278.359 412.524 277.112 418 277 C 430.25 276.75 453.24 278.857 454.585 279.092" fill="none" vector-effect="non-scaling-stroke" stroke-width="0.839" stroke="rgb(0,0,0)" stroke-linejoin="miter" stroke-linecap="square" stroke-miterlimit="3"/><path d=" M 758.62 462.34 L 758.56 462.24 C 757.1 459.54 755.52 456.92 753.82 454.37 C 752.17 451.92 750.48 449.5 748.74 447.11 C 746.64 444.2 744.59 441.26 742.59 438.28 L 742.31 437.86 L 743.14 437.31 L 743.41 437.72 C 745.41 440.69 747.46 443.62 749.55 446.52 C 751.3 448.92 753 451.35 754.65 453.81 C 756.37 456.39 757.97 459.04 759.44 461.76 C 759.44 461.76 759.44 461.76 759.44 461.76 L 759.49 461.86 C 760.77 464.21 762.02 466.57 763.26 468.95 C 764.44 471.24 765.56 473.56 766.61 475.92 C 767.66 478.27 768.59 480.67 769.41 483.12 C 770.26 485.67 770.95 488.27 771.49 490.9 C 772.1 493.83 772.58 496.79 772.94 499.77 C 773.28 502.63 773.46 505.52 773.47 508.4 C 773.47 513.7 772.8 518.99 771.48 524.12 C 770.52 527.99 769.13 531.74 767.35 535.3 C 765.72 538.53 763.72 541.56 761.39 544.31 C 759.15 546.94 756.62 549.29 753.85 551.34 C 751.07 553.38 748.1 555.15 744.98 556.6 C 741.76 558.1 738.43 559.34 735.01 560.31 C 731.46 561.32 727.84 562.11 724.19 562.68 C 720.4 563.28 716.58 563.7 712.74 563.95 C 708.8 564.2 704.85 564.33 700.9 564.32 C 695.35 564.31 689.82 564.12 684.29 563.77 C 678.84 563.43 673.39 563 667.95 562.5 C 664.07 562.13 660.2 561.62 656.35 560.95 C 652.03 560.21 647.73 559.34 643.46 558.34 C 638.8 557.26 634.17 556.08 629.57 554.78 C 624.68 553.41 619.82 551.94 614.99 550.38 C 604.85 547.09 594.84 543.45 584.96 539.46 C 575.07 535.49 565.34 531.15 555.78 526.45 C 543.05 520.2 530.64 513.33 518.59 505.87 C 507.03 498.68 495.86 490.87 485.15 482.47 C 474.44 474.05 464.21 465.05 454.48 455.53 C 444.36 445.59 434.73 435.18 425.62 424.32 C 420.76 418.58 416.06 412.71 411.52 406.72 C 407.01 400.71 402.67 394.56 398.54 388.28 L 398.34 387.98 C 396.18 384.71 394.03 381.43 391.9 378.14 C 389.85 374.96 387.85 371.74 385.91 368.49 C 383.98 365.26 382.16 361.97 380.43 358.63 C 378.67 355.22 377.03 351.74 375.54 348.2 L 374.17 344.97 C 373.31 343 372.48 341.02 371.68 339.04 C 370.89 337.1 370.17 335.14 369.53 333.16 C 368.9 331.23 368.4 329.27 368.02 327.28 C 367.65 325.32 367.46 323.33 367.45 321.33 C 367.45 317.72 368.16 314.15 369.54 310.81 C 370.56 308.25 371.82 305.8 373.31 303.47 C 374.71 301.3 376.39 299.32 378.29 297.58 C 380.32 295.77 382.57 294.22 384.99 292.99 C 387.83 291.55 390.8 290.39 393.86 289.52 C 395.54 289.03 397.24 288.59 398.94 288.2 C 400.97 287.73 403 287.3 405.04 286.91 C 407.04 286.52 409.05 286.19 411.07 285.92 C 412.7 285.68 414.34 285.54 415.99 285.5 C 417.05 285.49 418.1 285.47 419.15 285.45 C 421.15 285.42 423.14 285.39 425.14 285.39 C 427.71 285.38 430.28 285.45 432.85 285.6 C 435.28 285.73 437.71 286.04 440.1 286.51 L 440.59 286.61 L 440.39 287.59 L 439.9 287.49 C 437.56 287.03 435.18 286.73 432.79 286.6 C 430.24 286.45 427.69 286.38 425.14 286.39 C 423.15 286.39 421.16 286.42 419.17 286.45 C 418.12 286.47 417.06 286.49 416.01 286.5 C 414.4 286.54 412.8 286.67 411.21 286.91 C 409.2 287.18 407.21 287.51 405.22 287.89 C 403.2 288.28 401.18 288.71 399.17 289.18 C 397.48 289.56 395.8 290 394.14 290.48 C 391.14 291.33 388.22 292.47 385.44 293.88 C 383.1 295.07 380.92 296.57 378.96 298.32 C 377.12 300 375.5 301.92 374.15 304.01 C 372.7 306.28 371.47 308.69 370.46 311.19 C 369.14 314.4 368.45 317.85 368.45 321.33 C 368.46 323.26 368.64 325.19 369 327.09 C 369.37 329.04 369.87 330.96 370.48 332.85 C 371.12 334.81 371.83 336.75 372.6 338.66 C 373.41 340.64 374.23 342.61 375.09 344.58 C 375.09 344.58 375.09 344.58 375.09 344.58 L 376.46 347.8 C 376.46 347.8 376.46 347.81 376.46 347.81 C 377.95 351.32 379.57 354.78 381.32 358.17 C 383.04 361.49 384.85 364.76 386.77 367.97 C 388.7 371.22 390.69 374.43 392.74 377.6 C 394.87 380.89 397.01 384.16 399.18 387.43 C 399.18 387.43 399.18 387.43 399.18 387.43 L 399.37 387.72 C 399.37 387.72 399.37 387.72 399.37 387.72 C 403.5 393.99 407.82 400.12 412.32 406.11 C 416.85 412.09 421.54 417.95 426.38 423.68 C 435.47 434.51 445.08 444.9 455.18 454.81 C 464.88 464.31 475.09 473.28 485.76 481.68 C 496.45 490.06 507.59 497.85 519.12 505.02 C 531.14 512.47 543.52 519.32 556.22 525.55 C 565.76 530.24 575.47 534.57 585.33 538.53 C 595.19 542.52 605.18 546.15 615.3 549.43 C 620.12 550.99 624.96 552.45 629.84 553.82 C 634.43 555.11 639.04 556.29 643.68 557.37 C 647.94 558.36 652.22 559.22 656.52 559.96 C 660.34 560.63 664.19 561.14 668.05 561.5 C 673.47 562.01 678.91 562.43 684.35 562.77 C 689.86 563.12 695.38 563.31 700.9 563.32 C 704.83 563.33 708.76 563.2 712.68 562.95 C 716.48 562.7 720.27 562.29 724.04 561.69 C 727.65 561.13 731.22 560.34 734.74 559.34 C 738.1 558.39 741.39 557.17 744.56 555.69 C 747.62 554.27 750.53 552.54 753.26 550.54 C 755.97 548.54 758.44 546.23 760.63 543.67 C 762.91 540.97 764.87 538.01 766.45 534.86 C 768.2 531.36 769.56 527.67 770.52 523.88 C 771.81 518.82 772.47 513.62 772.47 508.4 C 772.46 505.56 772.29 502.71 771.95 499.89 C 771.59 496.94 771.11 494.01 770.51 491.1 C 769.98 488.51 769.3 485.95 768.46 483.43 C 767.65 481.02 766.73 478.65 765.7 476.32 C 764.66 473.99 763.55 471.68 762.37 469.41 C 761.14 467.04 759.89 464.68 758.62 462.34 C 758.62 462.34 758.62 462.34 758.62 462.34 Z " fill="rgb(0,0,0)"/><path d=" M 334.47 394.83 L 334.64 395.31 L 333.69 395.64 L 333.53 395.17 C 332.53 392.32 331.49 389.48 330.42 386.66 C 329.54 384.32 328.68 381.97 327.85 379.61 C 326.99 377.14 326.21 374.65 325.52 372.13 C 325.52 372.13 325.52 372.13 325.52 372.13 L 325.35 371.51 C 324.58 368.76 323.84 366 323.12 363.24 C 322.43 360.56 321.8 357.87 321.26 355.17 C 320.71 352.46 320.28 349.74 319.97 346.99 C 319.66 344.14 319.5 341.27 319.5 338.4 C 319.5 338.4 319.5 338.4 319.5 338.4 L 319.5 338 C 319.5 335.11 319.58 332.22 319.74 329.33 C 319.89 326.55 320.18 323.77 320.6 321.02 C 321.03 318.27 321.64 315.55 322.43 312.89 C 323.26 310.11 324.3 307.4 325.55 304.78 C 327.22 301.29 329.24 297.97 331.59 294.89 C 333.85 291.94 336.37 289.2 339.13 286.71 C 341.91 284.21 344.84 281.89 347.93 279.77 C 351.12 277.58 354.39 275.51 357.75 273.57 C 363.13 270.43 368.84 267.88 374.77 265.95 C 377.68 265.01 380.62 264.19 383.6 263.48 C 386.68 262.75 389.79 262.09 392.91 261.51 C 396.36 260.86 399.84 260.38 403.35 260.08 C 406.71 259.8 410.08 259.66 413.45 259.67 C 417.78 259.68 422.11 259.86 426.42 260.19 C 430.89 260.54 435.35 260.93 439.81 261.38 L 441.05 261.5 C 441.05 261.5 441.05 261.5 441.05 261.5 C 445.71 261.96 450.35 262.62 454.95 263.48 C 459.37 264.32 463.77 265.23 468.15 266.21 C 473.45 267.4 478.76 268.49 484.09 269.51 L 484.58 269.6 L 484.4 270.58 L 483.91 270.49 C 478.57 269.47 473.24 268.37 467.93 267.19 C 463.56 266.21 459.17 265.3 454.77 264.46 C 450.19 263.61 445.58 262.95 440.95 262.5 L 439.71 262.38 C 439.71 262.38 439.71 262.38 439.71 262.38 C 435.26 261.93 430.8 261.53 426.35 261.19 C 422.05 260.86 417.75 260.68 413.45 260.67 C 410.1 260.66 406.76 260.8 403.43 261.08 C 399.96 261.38 396.51 261.85 393.09 262.49 C 389.99 263.07 386.9 263.72 383.83 264.45 C 380.88 265.16 377.96 265.97 375.08 266.91 C 369.22 268.81 363.57 271.33 358.25 274.43 C 354.92 276.36 351.66 278.41 348.49 280.59 C 345.45 282.69 342.54 284.98 339.8 287.45 C 337.09 289.9 334.61 292.6 332.38 295.49 C 330.08 298.52 328.09 301.78 326.45 305.22 C 325.22 307.78 324.2 310.45 323.38 313.17 C 322.61 315.8 322.01 318.47 321.59 321.17 C 321.17 323.89 320.89 326.64 320.74 329.39 C 320.58 332.26 320.5 335.13 320.5 338 C 320.5 338 320.5 338 320.5 338 L 320.5 338.4 C 320.5 341.23 320.66 344.07 320.97 346.88 C 321.27 349.6 321.7 352.29 322.24 354.97 C 322.78 357.66 323.4 360.33 324.09 362.98 C 324.8 365.74 325.55 368.5 326.31 371.25 C 326.31 371.25 326.31 371.25 326.31 371.25 L 326.48 371.87 C 327.17 374.36 327.94 376.83 328.79 379.28 C 329.62 381.63 330.48 383.97 331.36 386.3 C 332.43 389.13 333.47 391.98 334.47 394.83 Z " fill="rgb(0,0,0)"/><path d=" M 327.41 396.72 L 327.69 397.13 L 326.87 397.69 L 326.59 397.28 C 325.08 395.06 323.53 392.87 321.92 390.73 C 320.58 388.95 319.28 387.13 318.03 385.28 C 316.74 383.34 315.58 381.31 314.55 379.22 C 313.27 376.59 312.17 373.88 311.24 371.11 C 310.36 368.45 309.62 365.75 309.02 363.01 C 308.43 360.27 307.94 357.5 307.56 354.72 C 307.16 351.84 306.81 348.95 306.5 346.05 L 306.42 345.32 C 306.13 342.72 305.87 340.12 305.65 337.51 C 305.43 334.98 305.32 332.45 305.3 329.91 C 305.29 325.88 305.69 321.85 306.51 317.9 C 307.64 312.56 309.43 307.38 311.86 302.49 C 313.05 300.09 314.37 297.77 315.82 295.51 C 317.32 293.18 318.91 290.9 320.6 288.7 C 322.84 285.76 325.29 282.99 327.95 280.42 C 330.51 277.96 333.23 275.68 336.09 273.6 C 338.97 271.51 341.95 269.57 345.03 267.79 C 348.22 265.94 351.47 264.2 354.78 262.55 C 360.28 259.77 366.01 257.46 371.9 255.62 C 374.79 254.73 377.71 253.95 380.66 253.29 C 383.73 252.6 386.82 252 389.92 251.51 C 395.68 250.59 401.5 250.15 407.33 250.17 C 410.88 250.18 414.43 250.3 417.97 250.52 C 421.62 250.76 425.27 251.03 428.91 251.33 L 431.04 251.5 C 436.77 251.95 442.48 252.59 448.16 253.42 C 453.84 254.27 459.49 255.3 465.11 256.51 C 468.91 257.33 472.7 258.28 476.44 259.35 C 480.03 260.38 483.61 261.47 487.17 262.6 C 491.48 263.96 495.8 265.27 500.14 266.52 L 500.62 266.66 L 500.34 267.62 L 499.86 267.48 C 495.52 266.22 491.19 264.91 486.87 263.55 C 483.32 262.42 479.75 261.34 476.17 260.31 C 472.44 259.24 468.68 258.3 464.89 257.49 C 459.3 256.28 453.67 255.26 448.01 254.41 C 442.35 253.58 436.66 252.94 430.96 252.5 C 430.96 252.5 430.96 252.5 430.96 252.5 L 428.83 252.33 C 428.83 252.33 428.83 252.33 428.83 252.33 C 425.19 252.02 421.55 251.75 417.9 251.52 C 414.38 251.3 410.85 251.18 407.33 251.17 C 401.55 251.15 395.78 251.59 390.08 252.49 C 387 252.99 383.93 253.58 380.88 254.26 C 377.96 254.92 375.06 255.69 372.2 256.58 C 366.36 258.4 360.68 260.69 355.22 263.45 C 351.94 265.08 348.71 266.82 345.53 268.65 C 342.48 270.42 339.53 272.34 336.68 274.41 C 333.85 276.47 331.17 278.72 328.65 281.14 C 326.02 283.67 323.6 286.4 321.4 289.3 C 319.73 291.49 318.15 293.74 316.66 296.05 C 315.23 298.28 313.93 300.57 312.75 302.93 C 310.37 307.75 308.6 312.84 307.49 318.1 C 306.68 321.99 306.29 325.94 306.3 329.91 C 306.32 332.42 306.43 334.92 306.64 337.42 C 306.87 340.02 307.13 342.62 307.42 345.21 C 307.42 345.21 307.42 345.21 307.42 345.22 L 307.5 345.95 C 307.5 345.95 307.5 345.95 307.5 345.95 C 307.8 348.83 308.15 351.71 308.55 354.59 C 308.93 357.34 309.42 360.08 310 362.8 C 310.58 365.5 311.32 368.17 312.19 370.8 C 313.1 373.52 314.19 376.19 315.45 378.78 C 316.45 380.83 317.6 382.82 318.86 384.72 C 320.1 386.56 321.39 388.36 322.72 390.13 C 324.34 392.29 325.9 394.48 327.41 396.72 Z " fill="rgb(0,0,0)"/><path d=" M 298.02 231.5 L 297.53 231.52 L 297.48 230.53 L 297.98 230.5 C 303.46 230.23 308.93 229.89 314.4 229.48 C 319.57 229.09 324.73 228.68 329.89 228.25 C 337.23 227.61 344.58 227.06 351.94 226.58 C 359.3 226.11 366.68 225.86 374.06 225.84 C 380.39 225.84 386.72 226.06 393.04 226.5 C 400.68 227.07 408.3 228.02 415.85 229.37 C 419.46 230 423.05 230.69 426.64 231.43 C 430.21 232.17 433.79 232.92 437.35 233.69 C 443.36 235 449.38 236.24 455.41 237.4 C 461.93 238.65 468.48 239.68 475.06 240.5 C 485.81 241.85 496.55 243.29 507.27 244.82 C 514.5 245.85 521.74 246.84 528.99 247.79 C 536.66 248.8 544.35 249.7 552.05 250.5 C 555.55 250.86 559.06 251.17 562.57 251.45 C 566.14 251.73 569.72 251.99 573.3 252.25 C 579.76 252.69 586.22 253.2 592.67 253.79 C 599.23 254.39 605.78 255.21 612.29 256.26 C 618.9 257.32 625.44 258.75 631.89 260.55 C 638.5 262.39 644.95 264.73 651.21 267.54 C 660.18 271.6 668.84 276.34 677.1 281.71 C 685.02 286.89 692.54 292.65 699.6 298.96 C 706.66 305.29 713.29 312.09 719.45 319.3 C 725.84 326.79 731.83 334.6 737.41 342.72 C 743.05 350.91 748.64 359.15 754.16 367.43 C 757.85 372.95 761.57 378.46 765.31 383.96 C 768.97 389.35 772.7 394.71 776.49 400.01 C 780.25 405.28 784.1 410.47 788.06 415.59 C 792.03 420.72 796.14 425.75 800.38 430.67 C 804.19 435.09 808.13 439.4 812.18 443.6 C 816.14 447.7 820.18 451.71 824.31 455.65 C 828.46 459.6 832.67 463.49 836.92 467.33 C 841.3 471.29 845.7 475.23 850.12 479.15 C 855.17 483.65 860.21 488.16 865.23 492.7 C 870.66 497.62 876.03 502.6 881.34 507.64 L 881.71 507.98 L 881.02 508.71 L 880.66 508.36 C 875.35 503.33 869.98 498.35 864.56 493.44 C 859.54 488.91 854.51 484.39 849.45 479.9 C 845.03 475.98 840.63 472.03 836.25 468.07 C 831.99 464.23 827.78 460.33 823.62 456.37 C 819.48 452.43 815.43 448.4 811.46 444.29 C 807.39 440.08 803.45 435.75 799.62 431.33 C 795.37 426.39 791.25 421.35 787.27 416.2 C 783.31 411.07 779.44 405.87 775.67 400.6 C 771.88 395.28 768.15 389.92 764.48 384.52 C 760.74 379.02 757.02 373.51 753.33 367.98 C 747.81 359.71 742.23 351.48 736.59 343.28 C 731.03 335.2 725.06 327.41 718.69 319.94 C 712.56 312.77 705.96 306.01 698.93 299.71 C 691.91 293.43 684.43 287.7 676.55 282.55 C 668.34 277.2 659.73 272.49 650.79 268.46 C 644.59 265.66 638.18 263.34 631.62 261.51 C 625.21 259.73 618.7 258.3 612.13 257.25 C 605.64 256.2 599.12 255.38 592.58 254.79 C 586.13 254.2 579.69 253.68 573.23 253.24 C 569.65 252.99 566.07 252.73 562.49 252.45 C 558.97 252.17 555.46 251.85 551.95 251.5 C 544.24 250.7 536.54 249.79 528.86 248.79 C 521.61 247.83 514.37 246.84 507.13 245.81 C 496.41 244.28 485.68 242.84 474.94 241.5 C 468.34 240.67 461.76 239.63 455.23 238.38 C 449.18 237.22 443.15 235.98 437.14 234.67 C 433.58 233.9 430.01 233.14 426.44 232.41 C 422.86 231.67 419.27 230.99 415.67 230.35 C 408.16 229.02 400.58 228.06 392.96 227.5 C 386.67 227.06 380.37 226.84 374.06 226.84 C 366.7 226.86 359.35 227.11 352 227.58 C 344.65 228.06 337.31 228.61 329.97 229.24 C 324.81 229.68 319.64 230.09 314.48 230.48 C 309 230.88 303.51 231.22 298.02 231.5 Z " fill="rgb(0,0,0)"/><g><g><path d=" M 759.64 -0.94 L 759.9 -1.37 L 760.75 -0.83 L 760.48 -0.41 C 746.39 21.87 733.85 45.09 722.95 69.09 C 720.61 74.23 718.3 79.37 716.02 84.54 C 713.83 89.51 711.71 94.52 709.68 99.57 C 707.67 104.57 705.79 109.61 704.04 114.71 C 702.26 119.9 700.66 125.14 699.23 130.44 C 697.47 136.92 695.43 143.33 693.11 149.63 C 690.8 155.92 688.3 162.13 685.6 168.26 C 682.93 174.35 680.14 180.39 677.24 186.37 C 674.38 192.27 671.49 198.14 668.56 204 L 668.45 204.22 C 667.05 207.06 665.5 209.83 663.8 212.5 C 662.34 214.81 660.71 216.99 658.92 219.04 C 657.31 220.87 655.53 222.54 653.6 224.03 C 651.76 225.44 649.77 226.65 647.68 227.65 C 645.53 228.67 643.29 229.49 640.99 230.11 C 638.48 230.77 635.93 231.27 633.36 231.6 C 630.46 231.97 627.54 232.21 624.62 232.34 C 621.27 232.48 617.92 232.55 614.57 232.54 C 612.71 232.54 610.85 232.52 608.99 232.5 C 604.61 232.47 600.23 232.32 595.85 232.07 C 592.54 231.87 589.23 231.54 585.94 231.07 C 582.94 230.62 579.95 230.07 576.99 229.4 C 573.57 228.63 570.15 227.81 566.75 226.96 C 560.48 225.41 554.19 223.92 547.89 222.49 L 547.4 222.38 L 547.62 221.4 L 548.11 221.51 C 554.42 222.94 560.71 224.43 566.99 225.99 C 570.39 226.84 573.79 227.65 577.21 228.42 C 580.15 229.08 583.11 229.64 586.08 230.08 C 589.35 230.54 592.63 230.87 595.91 231.07 C 600.27 231.32 604.64 231.47 609.01 231.5 C 610.86 231.52 612.71 231.54 614.57 231.54 C 617.9 231.55 621.24 231.48 624.57 231.34 C 627.47 231.22 630.36 230.97 633.23 230.6 C 635.76 230.28 638.27 229.8 640.73 229.14 C 642.97 228.54 645.15 227.74 647.25 226.75 C 649.28 225.78 651.2 224.6 652.99 223.24 C 654.87 221.79 656.6 220.17 658.17 218.38 C 659.92 216.37 661.53 214.23 662.96 211.97 C 664.64 209.32 666.17 206.59 667.55 203.78 C 667.55 203.78 667.55 203.78 667.55 203.78 L 667.67 203.55 C 667.67 203.55 667.67 203.55 667.67 203.55 C 670.59 197.7 673.48 191.83 676.34 185.94 C 679.23 179.96 682.02 173.94 684.69 167.86 C 687.37 161.75 689.87 155.55 692.17 149.28 C 694.48 143.01 696.51 136.63 698.26 130.18 C 699.7 124.86 701.31 119.59 703.09 114.38 C 704.85 109.27 706.73 104.21 708.75 99.2 C 710.79 94.14 712.91 89.12 715.11 84.13 C 717.39 78.97 719.7 73.82 722.04 68.68 C 732.96 44.64 745.52 21.37 759.64 -0.94 Z " fill="rgb(0,0,0)"/><path d=" M 297.17 180.47 L 296.7 180.64 L 296.36 179.7 L 296.83 179.53 C 297.15 179.41 297.47 179.32 297.8 179.25 C 298.31 179.12 298.82 179.02 299.33 178.92 C 300.9 178.63 302.47 178.38 304.04 178.16 C 309.12 177.45 314.22 176.88 319.33 176.43 C 326.54 175.78 333.77 175.28 341 174.94 C 349.76 174.52 358.53 174.31 367.31 174.31 C 378.59 174.3 389.88 174.68 401.14 175.45 C 406.98 175.86 412.82 176.39 418.64 177.05 C 424.48 177.72 430.29 178.54 436.08 179.51 C 444.57 180.96 452.96 182.94 461.2 185.42 C 469.09 187.78 476.86 190.49 484.51 193.54 C 491.55 196.35 498.52 199.36 505.39 202.56 C 511.38 205.35 517.33 208.2 523.26 211.12 C 525.74 212.34 528.23 213.56 530.73 214.76 C 532.89 215.8 535.06 216.82 537.25 217.81 C 539.06 218.63 540.89 219.4 542.74 220.11 C 544.17 220.67 545.63 221.14 547.12 221.51 L 547.61 221.64 L 547.36 222.61 L 546.88 222.49 C 545.35 222.1 543.85 221.62 542.38 221.04 C 540.51 220.32 538.66 219.55 536.83 218.72 C 534.64 217.73 532.46 216.71 530.29 215.66 C 527.8 214.46 525.3 213.24 522.82 212.02 C 516.9 209.1 510.95 206.25 504.97 203.46 C 498.11 200.27 491.16 197.27 484.14 194.47 C 476.52 191.43 468.77 188.73 460.92 186.37 C 452.71 183.9 444.36 181.94 435.92 180.49 C 430.14 179.52 424.35 178.71 418.53 178.05 C 412.72 177.39 406.9 176.85 401.07 176.45 C 389.83 175.68 378.57 175.3 367.31 175.31 C 358.55 175.31 349.8 175.52 341.05 175.94 C 333.83 176.28 326.62 176.78 319.42 177.43 C 314.32 177.87 309.24 178.45 304.18 179.15 C 302.62 179.36 301.06 179.62 299.52 179.9 C 299.02 180 298.52 180.1 298.03 180.22 C 297.74 180.28 297.45 180.37 297.17 180.47 Z " fill="rgb(0,0,0)"/></g><g><path d=" M 795.29 345.6 L 795.7 345.89 L 795.11 346.7 L 794.71 346.4 C 792.47 344.78 790.25 343.12 788.06 341.43 C 786.05 339.86 784.05 338.29 782.06 336.71 C 778.44 333.82 774.78 330.98 771.08 328.2 C 766.06 324.47 760.94 320.88 755.72 317.42 C 754.65 316.71 753.57 316.01 752.49 315.31 C 750.2 313.82 747.92 312.33 745.65 310.81 C 743.28 309.23 740.95 307.59 738.65 305.91 C 736.3 304.19 734.02 302.39 731.8 300.52 C 729.58 298.64 727.46 296.65 725.45 294.55 C 723.45 292.47 721.61 290.26 719.92 287.92 C 718.24 285.6 716.78 283.13 715.55 280.54 C 714.3 277.92 713.34 275.16 712.68 272.33 C 711.99 269.35 711.64 266.29 711.64 263.23 C 711.65 260.6 711.88 257.99 712.34 255.41 C 712.85 252.53 713.58 249.7 714.54 246.94 C 716.62 242.39 718.9 237.92 721.37 233.56 C 724.29 228.35 727.35 223.22 730.53 218.17 C 734.14 212.43 737.84 206.75 741.64 201.14 C 745.79 195.01 750.02 188.92 754.31 182.89 C 763.58 169.88 773.05 157.01 782.72 144.29 C 792.57 131.3 802.53 118.39 812.61 105.57 C 815.56 101.8 818.38 97.93 821.06 93.97 C 823.64 90.15 826.12 86.26 828.5 82.3 C 830.84 78.39 833.11 74.45 835.32 70.46 C 837.55 66.45 839.75 62.42 841.93 58.39 C 845.39 51.93 848.94 45.52 852.57 39.15 L 852.81 38.71 L 853.68 39.21 L 853.43 39.64 C 849.81 46 846.27 52.41 842.81 58.86 C 840.63 62.9 838.42 66.93 836.2 70.95 C 833.98 74.94 831.7 78.9 829.36 82.81 C 826.97 86.79 824.48 90.69 821.89 94.53 C 819.19 98.51 816.36 102.4 813.39 106.19 C 803.32 119 793.37 131.91 783.52 144.89 C 773.86 157.61 764.39 170.47 755.12 183.47 C 750.83 189.5 746.62 195.58 742.47 201.7 C 738.68 207.31 734.98 212.97 731.38 218.7 C 728.2 223.74 725.16 228.85 722.24 234.05 C 719.8 238.37 717.54 242.8 715.46 247.31 C 714.54 250.01 713.82 252.78 713.32 255.58 C 712.88 258.11 712.65 260.66 712.64 263.23 C 712.64 266.22 712.98 269.19 713.65 272.11 C 714.3 274.87 715.24 277.55 716.45 280.11 C 717.66 282.64 719.09 285.06 720.73 287.33 C 722.39 289.63 724.21 291.81 726.17 293.86 C 728.16 295.93 730.26 297.9 732.45 299.75 C 734.65 301.61 736.91 303.4 739.24 305.1 C 741.53 306.78 743.85 308.4 746.21 309.98 C 748.47 311.49 750.75 312.99 753.03 314.47 C 754.11 315.17 755.2 315.88 756.28 316.58 C 761.5 320.05 766.64 323.66 771.68 327.4 C 775.39 330.19 779.06 333.03 782.68 335.92 C 784.67 337.51 786.67 339.08 788.68 340.64 C 790.86 342.32 793.06 343.98 795.29 345.6 Z " fill="rgb(0,0,0)"/><path d=" M 790.7 343.4 L 790.3 343.1 L 790.9 342.3 L 791.3 342.6 C 795.06 345.38 798.86 348.13 802.69 350.82 C 806.19 353.28 809.71 355.72 813.23 358.14 C 816.31 360.26 819.38 362.4 822.44 364.54 C 825.45 366.65 828.44 368.8 831.39 370.99 C 837.59 375.59 843.58 380.48 849.33 385.63 C 854.09 389.91 858.68 394.38 863.1 399 C 867.43 403.54 871.63 408.19 875.71 412.96 C 879.71 417.63 883.62 422.37 887.46 427.18 C 891.22 431.88 894.95 436.61 898.65 441.35 C 903.17 447.18 907.75 452.95 912.39 458.69 L 912.7 459.07 L 911.93 459.7 L 911.61 459.31 C 906.97 453.58 902.39 447.8 897.86 441.97 C 894.16 437.23 890.43 432.5 886.68 427.8 C 882.85 423.01 878.94 418.27 874.95 413.61 C 870.89 408.86 866.69 404.22 862.37 399.69 C 857.97 395.08 853.4 390.64 848.67 386.37 C 842.94 381.24 836.97 376.38 830.79 371.8 C 827.85 369.61 824.87 367.47 821.87 365.36 C 818.81 363.22 815.74 361.08 812.67 358.97 C 809.14 356.54 805.62 354.1 802.12 351.64 C 798.28 348.94 794.47 346.19 790.7 343.4 Z " fill="rgb(0,0,0)"/></g></g><path d=" M 895.144 29.09 C 889.586 44.1 852.297 44.146 811.928 29.195 C 771.558 14.243 743.297 -10.081 748.856 -25.09 C 754.414 -40.1 791.703 -40.146 832.072 -25.195 C 872.442 -10.243 900.703 14.081 895.144 29.09 Z  M 894.21 28.74 C 893.89 29.6 893.46 30.41 892.92 31.15 C 892.36 31.93 891.7 32.64 890.97 33.27 C 890.15 33.96 889.28 34.57 888.35 35.1 C 887.3 35.69 886.21 36.2 885.08 36.62 C 883.82 37.1 882.53 37.5 881.22 37.82 C 879.76 38.18 878.29 38.47 876.8 38.68 C 873.38 39.17 869.93 39.4 866.48 39.38 C 862.49 39.36 858.51 39.13 854.55 38.69 C 850.11 38.19 845.69 37.49 841.31 36.6 C 836.53 35.63 831.79 34.47 827.11 33.13 C 822.1 31.69 817.15 30.07 812.27 28.26 C 803.54 25.04 795.04 21.22 786.85 16.8 C 783.16 14.81 779.56 12.67 776.05 10.4 C 772.87 8.34 769.78 6.13 766.8 3.78 C 764.17 1.71 761.66 -0.52 759.3 -2.88 C 757.27 -4.9 755.41 -7.08 753.74 -9.39 C 753.02 -10.4 752.35 -11.45 751.75 -12.53 C 751.2 -13.5 750.72 -14.51 750.31 -15.54 C 749.94 -16.47 749.65 -17.43 749.45 -18.41 C 749.26 -19.3 749.16 -20.2 749.16 -21.1 C 749.15 -22.34 749.37 -23.58 749.79 -24.74 C 750.11 -25.6 750.54 -26.41 751.08 -27.15 C 751.64 -27.93 752.3 -28.64 753.03 -29.27 C 753.85 -29.96 754.72 -30.57 755.65 -31.1 C 756.7 -31.69 757.79 -32.2 758.92 -32.62 C 760.18 -33.1 761.47 -33.5 762.78 -33.82 C 764.24 -34.18 765.71 -34.47 767.2 -34.68 C 770.62 -35.17 774.07 -35.4 777.52 -35.38 C 781.51 -35.36 785.49 -35.13 789.45 -34.69 C 793.89 -34.19 798.31 -33.49 802.69 -32.6 C 807.47 -31.63 812.21 -30.47 816.89 -29.13 C 821.9 -27.69 826.85 -26.07 831.73 -24.26 C 840.46 -21.04 848.96 -17.22 857.15 -12.8 C 860.84 -10.81 864.44 -8.67 867.95 -6.4 C 871.13 -4.34 874.22 -2.13 877.2 0.22 C 879.83 2.29 882.34 4.52 884.7 6.88 C 886.73 8.9 888.59 11.08 890.26 13.39 C 890.98 14.4 891.65 15.45 892.25 16.53 C 892.8 17.5 893.28 18.51 893.69 19.54 C 894.06 20.47 894.35 21.43 894.55 22.41 C 894.74 23.3 894.84 24.2 894.84 25.1 C 894.85 26.34 894.63 27.58 894.21 28.74 Z " fill-rule="evenodd" fill="rgb(0,0,0)"/><path d=" M 207.15 209.48 L 206.68 209.63 L 206.37 208.68 L 206.85 208.52 L 251.85 194.02 L 296.85 179.52 L 297.32 179.37 L 297.63 180.32 L 297.15 180.48 L 252.15 194.98 L 207.15 209.48 Z " fill="rgb(0,0,0)"/><path d=" M 206.05 210.5 L 205.56 210.55 L 205.45 209.56 L 205.95 209.5 C 215.62 208.48 225.29 207.37 234.94 206.16 C 242.92 205.16 250.92 204.23 258.92 203.39 C 267.25 202.54 275.61 201.91 283.98 201.5 C 293.52 201.06 303.08 200.84 312.63 200.85 C 318.58 200.86 324.52 200.92 330.47 201.04 C 336.62 201.16 342.78 201.29 348.94 201.45 L 351.01 201.5 C 351.01 201.5 351.01 201.5 351.01 201.5 C 356.14 201.63 361.26 201.8 366.38 202.01 C 371.3 202.22 376.21 202.44 381.13 202.69 C 387.08 202.98 393.03 203.25 398.98 203.5 L 399.48 203.52 L 399.43 204.52 L 398.93 204.5 C 392.98 204.25 387.03 203.97 381.08 203.68 C 376.17 203.44 371.25 203.22 366.34 203.01 C 361.22 202.8 356.11 202.63 350.99 202.5 L 348.91 202.45 C 348.91 202.45 348.91 202.45 348.91 202.45 C 342.76 202.29 336.6 202.16 330.45 202.04 C 324.51 201.92 318.57 201.86 312.63 201.85 C 303.09 201.84 293.55 202.06 284.02 202.5 C 275.67 202.9 267.34 203.53 259.02 204.39 C 251.03 205.23 243.04 206.15 235.07 207.15 C 225.41 208.36 215.73 209.48 206.05 210.5 Z " fill="rgb(0,0,0)"/><path d=" M 171.24 261.44 L 170.8 261.68 L 170.32 260.8 L 170.76 260.56 C 174.39 258.61 178 256.61 181.57 254.56 C 184.84 252.68 188.09 250.79 191.34 248.88 C 194.17 247.21 197.02 245.55 199.87 243.91 C 202.67 242.29 205.5 240.72 208.36 239.2 C 214.35 235.98 220.51 233.09 226.81 230.54 C 233.92 227.68 241.17 225.19 248.53 223.07 C 255.6 221.06 262.75 219.33 269.96 217.89 C 277.12 216.47 284.32 215.23 291.55 214.18 C 298.96 213.1 306.37 212.08 313.79 211.12 C 317.84 210.59 321.89 210.05 325.93 209.5 C 333.69 208.46 341.46 207.61 349.26 206.97 C 356.75 206.38 364.24 205.85 371.73 205.41 C 380.8 204.86 389.86 204.22 398.92 203.5 L 399.41 203.46 L 399.49 204.46 L 398.99 204.5 C 389.93 205.22 380.87 205.86 371.79 206.41 C 364.3 206.85 356.82 207.37 349.34 207.97 C 341.56 208.61 333.8 209.45 326.07 210.5 C 322.02 211.04 317.97 211.58 313.92 212.11 C 306.5 213.07 299.1 214.09 291.7 215.17 C 284.49 216.22 277.3 217.45 270.15 218.87 C 262.97 220.3 255.85 222.02 248.81 224.04 C 241.48 226.14 234.26 228.62 227.19 231.46 C 220.92 234.01 214.79 236.88 208.83 240.08 C 205.99 241.6 203.16 243.16 200.37 244.77 C 197.52 246.41 194.68 248.07 191.84 249.74 C 188.6 251.65 185.34 253.55 182.07 255.43 C 178.49 257.48 174.88 259.49 171.24 261.44 Z " fill="rgb(0,0,0)"/><path d=" M 196.18 259.47 L 195.71 259.65 L 195.35 258.71 L 195.82 258.53 C 200.03 256.91 204.23 255.25 208.42 253.55 C 211.88 252.14 215.35 250.77 218.84 249.42 C 222.47 248.03 226.14 246.73 229.85 245.52 C 236.94 243.24 244.13 241.29 251.4 239.68 C 254.87 238.92 258.34 238.2 261.82 237.53 C 265.36 236.85 268.91 236.19 272.46 235.54 C 276.51 234.8 280.57 234.03 284.62 233.25 C 289.06 232.4 293.48 231.48 297.89 230.51 L 298.38 230.4 L 298.6 231.38 L 298.11 231.49 C 293.69 232.46 289.25 233.38 284.81 234.24 C 280.76 235.02 276.7 235.78 272.64 236.52 C 269.09 237.17 265.55 237.83 262.01 238.51 C 258.54 239.18 255.07 239.9 251.62 240.66 C 244.38 242.26 237.21 244.2 230.15 246.48 C 226.47 247.68 222.81 248.97 219.19 250.36 C 215.71 251.7 212.25 253.07 208.79 254.48 C 204.6 256.18 200.4 257.84 196.18 259.47 Z " fill="rgb(0,0,0)"/><path d=" M 195.78 258.55 L 196.23 258.33 L 196.67 259.23 L 196.22 259.45 L 159.4 277.33 L 171.6 260.7 L 171.89 260.3 L 172.7 260.89 L 172.4 261.3 L 162.6 274.67 L 195.78 258.55 Z " fill="rgb(0,0,0)"/><path d=" M 333.57 395.25 L 333.32 394.82 L 334.18 394.32 L 334.43 394.75 L 354.21 428.49 L 325.62 395.33 L 325.29 394.95 L 326.05 394.29 L 326.38 394.67 L 347.79 419.51 L 333.57 395.25 Z " fill="rgb(0,0,0)"/><path d=" M 585.62 601.71 L 567.69 588.9 L 567.29 588.61 L 567.87 587.8 L 568.27 588.09 L 589.26 603.07 L 589.27 603.09 L 589.24 603.06 L 589.26 603.07 M 588.75 603.92 L 588.75 603.94 L 588.71 603.91" fill-rule="evenodd" fill="rgb(0,0,0)"/><path d=" M 912 459 L 912 459 L 912 459 L 912 459 C 912.06 459.11 911.94 459.39 912 459.5 C 912.06 459.61 911.94 459.39 912 459.5 C 912.06 459.61 911.94 459.89 912 460 C 912.06 460.11 911.94 460.39 912 460.5 C 912.06 460.61 911.94 460.39 912 460.5 C 912.06 460.61 911.94 460.89 912 461 C 912.06 461.11 911.94 461.39 912 461.5 C 912.06 461.61 911.94 461.39 912 461.5 C 912.06 461.61 911.94 461.89 912 462 C 912.06 462.11 911.94 461.89 912 462 C 912.06 462.11 911.94 462.39 912 462.5 C 912.06 462.61 911.94 462.89 912 463 C 912.06 463.11 911.94 462.89 912 463 C 912.06 463.11 911.94 463.39 912 463.5 C 912.06 463.61 911.94 463.89 912 464 C 912.06 464.11 911.94 463.89 912 464 C 912.06 464.11 911.94 464.39 912 464.5 C 912.06 464.61 911.94 464.39 912 464.5 C 912.06 464.61 911.94 464.89 912 465 C 912.06 465.11 911.94 465.39 912 465.5 C 912.06 465.61 911.94 465.39 912 465.5 C 912.06 465.61 911.94 465.89 912 466 C 912.06 466.11 911.94 466.39 912 466.5 C 912.06 466.61 911.94 466.39 912 466.5 C 912.06 466.61 911.94 466.89 912 467 C 912.06 467.11 911.94 466.89 912 467 C 912.06 467.11 911.94 467.39 912 467.5 C 912.06 467.61 911.94 467.89 912 468 C 912.06 468.11 911.94 467.89 912 468 C 912.06 468.11 911.94 468.39 912 468.5 C 912.06 468.61 911.94 468.89 912 469 C 912.06 469.11 911.94 468.89 912 469 C 912.06 469.11 911.94 469.39 912 469.5 C 912.06 469.61 911.94 469.39 912 469.5 C 912.06 469.61 911.94 469.89 912 470 C 912.06 470.11 911.94 470.39 912 470.5 C 912.06 470.61 911.94 470.39 912 470.5 C 912.06 470.61 911.94 470.89 912 471 C 912.06 471.11 911.94 471.39 912 471.5 C 912.06 471.61 911.94 471.39 912 471.5 C 912.06 471.61 911.94 471.89 912 472 C 912.06 472.11 911.94 471.89 912 472 C 912.06 472.11 911.94 472.39 912 472.5 C 912.06 472.61 911.94 472.89 912 473 C 912.06 473.11 911.94 472.89 912 473 C 912.06 473.11 911.94 473.39 912 473.5 C 912.06 473.61 911.94 473.89 912 474 C 912.06 474.11 911.94 473.89 912 474 C 912.06 474.11 911.94 474.39 912 474.5 C 912.06 474.61 911.94 474.39 912 474.5 C 912.06 474.61 911.94 474.89 912 475 C 912.06 475.11 911.94 475.39 912 475.5 C 912.06 475.61 911.94 475.39 912 475.5 C 912.06 475.61 911.94 475.89 912 476 C 912.06 476.11 911.94 476.39 912 476.5 C 912.06 476.61 911.94 476.39 912 476.5 C 912.06 476.61 911.94 476.89 912 477 C 912.06 477.11 911.94 476.89 912 477 C 912.06 477.11 911.94 477.39 912 477.5 C 912.06 477.61 911.94 477.89 912 478 C 912.06 478.11 911.94 477.89 912 478 C 912.06 478.11 911.94 478.39 912 478.5 C 912.06 478.61 911.94 478.89 912 479 C 912.06 479.11 911.94 478.89 912 479 L 923.44 479.77 L 928.59 489.6 L 928.59 489.6 C 928.62 489.66 928.66 489.71 928.69 489.77 C 928.72 489.83 928.74 489.89 928.77 489.95 C 928.8 490 928.83 490.06 928.86 490.12 C 928.89 490.18 928.92 490.23 928.95 490.29 C 928.98 490.35 929.01 490.41 929.04 490.47 C 929.07 490.53 929.1 490.59 929.13 490.64 C 929.16 490.7 929.19 490.76 929.22 490.82 C 929.25 490.87 929.28 490.93 929.31 490.99 C 929.34 491.05 929.37 491.11 929.4 491.17 C 929.43 491.23 929.46 491.28 929.49 491.34 C 929.52 491.4 929.55 491.46 929.58 491.52 C 929.61 491.57 929.64 491.63 929.67 491.69 C 929.7 491.75 929.73 491.81 929.76 491.86 C 929.79 491.92 929.82 491.98 929.85 492.04 C 929.88 492.1 929.91 492.16 929.94 492.21 C 929.97 492.27 930 492.33 930.03 492.39 C 930.06 492.44 930.09 492.5 930.12 492.56 C 930.15 492.62 930.18 492.68 930.21 492.73 C 930.24 492.79 930.27 492.85 930.3 492.91 C 930.33 492.97 930.36 493.03 930.39 493.09 C 930.42 493.14 930.45 493.2 930.48 493.26 C 930.51 493.32 930.54 493.38 930.57 493.43 C 930.6 493.49 930.63 493.55 930.66 493.61 C 930.69 493.67 930.72 493.72 930.75 493.78 C 930.78 493.84 930.81 493.9 930.84 493.96 C 930.87 494.02 930.9 494.07 930.93 494.13 C 930.96 494.19 930.99 494.25 931.02 494.3 C 931.05 494.36 931.07 494.42 931.1 494.48 C 931.13 494.54 931.16 494.6 931.2 494.66 C 931.23 494.71 931.25 494.77 931.28 494.83 C 931.31 494.89 931.34 494.95 931.38 495 C 931.41 495.06 931.43 495.12 931.46 495.18 C 931.49 495.24 931.52 495.29 931.55 495.35 C 931.59 495.41 931.61 495.47 931.64 495.53 C 931.67 495.59 931.7 495.64 931.73 495.7 C 931.76 495.76 931.79 495.82 931.82 495.88 C 931.85 495.93 931.88 495.99 931.91 496.05 C 931.94 496.11 931.97 496.16 932 496.22 C 932.03 496.28 932.06 496.34 932.09 496.4 C 932.12 496.46 932.15 496.52 932.18 496.57 C 932.21 496.63 932.24 496.69 932.27 496.75 C 932.3 496.8 932.33 496.86 932.36 496.92 C 932.39 496.98 932.42 497.04 932.45 497.1 C 932.48 497.16 932.51 497.21 932.54 497.27 C 932.57 497.33 932.6 497.39 932.63 497.45 C 932.66 497.5 932.69 497.56 932.72 497.62 C 932.75 497.68 932.78 497.73 932.81 497.79 C 932.84 497.85 932.87 497.91 932.9 497.97 C 932.93 498.03 932.96 498.09 932.99 498.14 C 933.02 498.2 933.05 498.26 933.08 498.32 C 933.11 498.37 933.14 498.43 933.17 498.49 C 933.2 498.55 933.23 498.61 933.26 498.66 C 933.29 498.72 933.32 498.78 933.35 498.84 C 933.38 498.9 933.41 498.96 933.44 499.02 C 933.47 499.07 933.49 499.13 933.52 499.19 C 933.55 499.25 933.59 499.31 933.62 499.36 C 933.65 499.42 933.67 499.48 933.7 499.54 C 933.73 499.6 933.77 499.65 933.8 499.71 C 933.83 499.77 933.85 499.83 933.88 499.89 C 933.91 499.94 933.95 500 933.98 500.06 C 934.01 500.12 934.03 500.18 934.06 500.23 C 934.09 500.29 934.13 500.35 934.16 500.41 C 934.19 500.47 934.21 500.53 934.24 500.59 C 934.27 500.64 934.31 500.7 934.34 500.76 L 934.68 501.21 L 933.79 501.68 L 933.55 501.23 C 933.52 501.17 933.49 501.11 933.46 501.05 C 933.43 501 933.41 500.94 933.38 500.88 C 933.34 500.82 933.31 500.77 933.28 500.71 C 933.25 500.65 933.23 500.59 933.2 500.53 C 933.16 500.47 933.13 500.42 933.1 500.36 C 933.07 500.3 933.05 500.24 933.02 500.18 C 932.99 500.13 932.95 500.07 932.92 500.01 C 932.89 499.95 932.87 499.89 932.84 499.84 C 932.81 499.78 932.77 499.72 932.74 499.66 C 932.71 499.6 932.69 499.54 932.66 499.48 C 932.63 499.43 932.6 499.37 932.57 499.31 C 932.54 499.25 932.51 499.19 932.48 499.14 C 932.45 499.08 932.42 499.02 932.39 498.96 C 932.36 498.91 932.33 498.85 932.3 498.79 C 932.27 498.73 932.24 498.67 932.21 498.61 C 932.18 498.56 932.15 498.5 932.12 498.44 C 932.09 498.38 932.06 498.32 932.03 498.27 C 932 498.21 931.97 498.15 931.94 498.09 C 931.91 498.03 931.88 497.98 931.85 497.92 C 931.82 497.86 931.79 497.8 931.76 497.74 C 931.73 497.68 931.7 497.62 931.67 497.57 C 931.64 497.51 931.61 497.45 931.58 497.39 C 931.55 497.34 931.52 497.28 931.49 497.22 C 931.46 497.16 931.43 497.1 931.4 497.04 C 931.37 496.98 931.34 496.93 931.31 496.87 C 931.28 496.81 931.25 496.75 931.22 496.7 C 931.19 496.64 931.16 496.58 931.13 496.52 C 931.1 496.46 931.07 496.41 931.04 496.35 C 931.01 496.29 930.98 496.23 930.95 496.17 C 930.92 496.11 930.89 496.06 930.86 496 C 930.83 495.94 930.8 495.88 930.77 495.82 C 930.74 495.77 930.71 495.71 930.68 495.65 C 930.65 495.59 930.62 495.53 930.59 495.48 C 930.56 495.42 930.53 495.36 930.5 495.3 C 930.47 495.24 930.44 495.18 930.41 495.13 C 930.38 495.07 930.35 495.01 930.32 494.95 C 930.29 494.89 930.26 494.84 930.23 494.78 C 930.2 494.72 930.18 494.66 930.15 494.6 C 930.12 494.54 930.09 494.49 930.05 494.43 C 930.02 494.37 930 494.31 929.97 494.25 C 929.94 494.2 929.91 494.14 929.88 494.08 C 929.84 494.02 929.82 493.96 929.79 493.91 C 929.76 493.85 929.73 493.79 929.7 493.73 C 929.66 493.67 929.64 493.61 929.61 493.55 C 929.58 493.5 929.55 493.44 929.52 493.38 C 929.49 493.32 929.46 493.27 929.43 493.21 C 929.4 493.15 929.37 493.09 929.34 493.04 C 929.31 492.98 929.28 492.92 929.25 492.86 C 929.22 492.8 929.19 492.74 929.16 492.68 C 929.13 492.63 929.1 492.57 929.07 492.51 C 929.04 492.45 929.01 492.39 928.98 492.34 C 928.95 492.28 928.92 492.22 928.89 492.16 C 928.86 492.1 928.83 492.05 928.8 491.99 C 928.77 491.93 928.74 491.87 928.71 491.81 C 928.68 491.75 928.65 491.69 928.62 491.64 C 928.59 491.58 928.56 491.52 928.53 491.46 C 928.5 491.41 928.47 491.35 928.44 491.29 C 928.41 491.23 928.38 491.17 928.35 491.11 C 928.32 491.06 928.29 491 928.26 490.94 C 928.23 490.88 928.2 490.82 928.17 490.77 C 928.14 490.71 928.11 490.65 928.08 490.59 C 928.05 490.53 928.02 490.48 927.99 490.42 C 927.96 490.36 927.94 490.3 927.91 490.24 C 927.88 490.18 927.84 490.13 927.81 490.07 L 927.7 490.06 L 922.56 480.23 L 923 480 C 922.94 479.89 923.06 479.61 923 479.5 C 922.94 479.39 923.06 479.61 923 479.5 C 922.94 479.39 923.06 479.11 923 479 C 922.94 478.89 923.06 479.11 923 479 C 922.94 478.89 923.06 478.61 923 478.5 C 922.94 478.39 923.06 478.11 923 478 C 922.94 477.89 923.06 478.11 923 478 C 922.94 477.89 923.06 477.61 923 477.5 C 922.94 477.39 923.06 477.11 923 477 C 922.94 476.89 923.06 477.11 923 477 C 922.94 476.89 923.06 476.61 923 476.5 C 922.94 476.39 923.06 476.61 923 476.5 C 922.94 476.39 923.06 476.11 923 476 C 922.94 475.89 923.06 475.61 923 475.5 C 922.94 475.39 923.06 475.61 923 475.5 C 922.94 475.39 923.06 475.11 923 475 C 922.94 474.89 923.06 474.61 923 474.5 C 922.94 474.39 923.06 474.61 923 474.5 C 922.94 474.39 923.06 474.11 923 474 C 922.94 473.89 923.06 474.11 923 474 C 922.94 473.89 923.06 473.61 923 473.5 C 922.94 473.39 923.06 473.11 923 473 C 922.94 472.89 923.06 473.11 923 473 C 922.94 472.89 923.06 472.61 923 472.5 C 922.94 472.39 923.06 472.11 923 472 C 922.94 471.89 923.06 472.11 923 472 C 922.94 471.89 923.06 471.61 923 471.5 C 922.94 471.39 923.06 471.61 923 471.5 C 922.94 471.39 923.06 471.11 923 471 C 922.94 470.89 923.06 470.61 923 470.5 C 922.94 470.39 923.06 470.61 923 470.5 C 922.94 470.39 923.06 470.11 923 470 C 922.94 469.89 923.06 469.61 923 469.5 C 922.94 469.39 923.06 469.61 923 469.5 C 922.94 469.39 923.06 469.11 923 469 C 922.94 468.89 923.06 469.11 923 469 C 922.94 468.89 923.06 468.61 923 468.5 C 922.94 468.39 923.06 468.11 923 468 C 922.94 467.89 923.06 468.11 923 468 C 922.94 467.89 923.06 467.61 923 467.5 C 922.94 467.39 923.06 467.11 923 467 C 922.94 466.89 923.06 467.11 923 467 C 922.94 466.89 923.06 466.61 923 466.5 C 922.94 466.39 923.06 466.61 923 466.5 C 922.94 466.39 923.06 466.11 923 466 C 922.94 465.89 923.06 465.61 923 465.5 C 922.94 465.39 923.06 465.61 923 465.5 C 922.94 465.39 923.06 465.11 923 465 C 922.94 464.89 923.06 464.61 923 464.5 C 922.94 464.39 923.06 464.61 923 464.5 C 922.94 464.39 923.06 464.11 923 464 C 922.94 463.89 923.06 464.11 923 464 C 922.94 463.89 923.06 463.61 923 463.5 C 922.94 463.39 923.06 463.11 923 463 C 922.94 462.89 923.06 463.11 923 463 C 922.94 462.89 923.06 462.61 923 462.5 C 922.94 462.39 923.06 462.11 923 462 C 922.94 461.89 923.06 462.11 923 462 C 922.94 461.89 923.06 461.61 923 461.5 C 922.94 461.39 923.06 461.61 923 461.5 C 922.94 461.39 923.06 461.11 923 461 C 922.94 460.89 923.06 460.61 923 460.5 C 922.94 460.39 923.06 460.61 923 460.5 C 922.94 460.39 923.06 460.11 923 460" fill="rgb(0,0,0)"/><path d=" M 865.84 464.48 L 865.37 464.32 L 865.68 463.37 L 866.16 463.52 C 869.51 464.62 872.88 465.66 876.27 466.64 C 879.09 467.45 881.89 468.31 884.67 469.22 C 887.57 470.19 890.42 471.3 893.21 472.54 C 898.06 474.75 902.71 477.37 907.11 480.38 C 909.21 481.81 911.27 483.29 913.29 484.82 C 915.35 486.38 917.4 487.95 919.43 489.55 C 921.75 491.37 924.09 493.17 926.44 494.95 C 929.01 496.89 931.63 498.77 934.28 500.59 L 934.7 500.87 L 934.13 501.7 L 933.72 501.41 C 931.05 499.58 928.42 497.69 925.84 495.75 C 923.48 493.96 921.14 492.16 918.81 490.33 C 916.78 488.74 914.74 487.17 912.69 485.62 C 910.68 484.09 908.63 482.62 906.55 481.2 C 902.2 478.23 897.6 475.64 892.79 473.46 C 890.04 472.22 887.22 471.13 884.35 470.17 C 881.58 469.26 878.8 468.41 876 467.6 C 872.59 466.62 869.21 465.58 865.84 464.48 Z " fill="rgb(0,0,0)"/><path d=" M 881.47 507.84 L 881.63 508.31 L 880.69 508.63 L 880.53 508.16 L 865.53 464.16 L 865.37 463.69 L 866.31 463.37 L 866.47 463.84 L 881.47 507.84 Z " fill="rgb(0,0,0)"/><path d=" M 921.42 476.05 L 921.69 476.47 L 920.85 477.01 L 920.58 476.59 L 902.58 448.27 L 902.31 447.85 L 903.15 447.31 L 903.42 447.73 L 921.42 476.05 Z " fill="rgb(0,0,0)"/></g></svg>