  0
SECTION
  2
HEADER
  9
$ACADVER
  1
AC1009
  9
$INSBASE
 10
0.0
 20
0.0
 30
0.0
  9
$EXTMIN
 10
0.0
 20
0.0
 30
0.0
  9
$EXTMAX
 10
0.0
 20
0.0
 30
0.0
  0
ENDSEC
  0
SECTION
  2
TABLES
  0
TABLE
  2
VPORT
 70
0
  0
ENDTAB
  0
TABLE
  2
LTYPE
 70
1
  0
LTYPE
  2
CONTINUOUS
 70
0
  3
Solid line
 72
65
 73
0
 40
0.0
  0
ENDTAB
  0
TABLE
  2
LAYER
 70
1
  0
LAYER
  2
0
 70
64
 62
7
  6
continuous
  0
ENDTAB
  0
TABLE
  2
STYLE
 70
1
  0
STYLE
  2
STANDARD
 70
0
 40
0
 41
1.0
 50
0.0
 71
0
 42
1
 3
ARIAL.TTF
 4

  0
ENDTAB
  0
TABLE
  2
VIEW
 70
0
  0
ENDTAB
  0
ENDSEC
  0
SECTION
  2
BLOCKS
  0
BLOCK
  8
0
  2
PART__FEATURE
 70
0
 10
0.0
 20
0.0
 30
0.0
  3
PART__FEATURE
  0
ARC
  8
0
 62
0
 10
14.1414889835377
 20
-4.517307
 30
0.0
 40
0.5
 50
-140.00000000000077
 51
-90.0
  0
LINE
  8
0
 62
0
 10
9.631952992481992
 20
0.07908680484327107
 30
0.0
 11
13.758466761978179
 21
-4.838700804843287
 31
0.0
  0
ARC
  8
0
 62
0
 10
9.2489307709225
 20
-0.242307
 30
0.0
 40
0.5
 50
39.99999999999996
 51
90.0
  0
ARC
  8
0
 62
0
 10
9.2489307709225
 20
96.0075
 30
0.0
 40
0.5
 50
-90.0
 51
-40.00000000000213
  0
LINE
  8
0
 62
0
 10
9.2489307709225
 20
95.5075
 30
0.0
 11
4.0950846
 21
95.5075
 31
0.0
  0
ARC
  8
0
 62
0
 10
14.1414889835376
 20
100.2825
 30
0.0
 40
0.5
 50
90.0
 51
140.00000000001734
  0
LINE
  8
0
 62
0
 10
93.99868021646242
 20
100.7825
 30
0.0
 11
14.1414889835376
 21
100.7825
 31
0.0
  0
LINE
  8
0
 62
0
 10
14.1414889835377
 20
-5.017307
 30
0.0
 11
93.99868021646242
 21
-5.017307
 31
0.0
  0
ARC
  8
0
 62
0
 10
93.9986802164624
 20
-4.517307
 30
0.0
 40
0.5
 50
-90.0
 51
-39.999999999997726
  0
LINE
  8
0
 62
0
 10
94.38170243802188
 20
-4.83870080484323
 30
0.0
 11
98.508216207518
 21
0.07908680484326475
 31
0.0
  0
ARC
  8
0
 62
0
 10
98.8912384290775
 20
-0.242307
 30
0.0
 40
0.5
 50
90.0
 51
140.00000000000173
  0
LINE
  8
0
 62
0
 10
98.8912384290775
 20
0.257693
 30
0.0
 11
187.048846170923
 21
0.257693
 31
0.0
  0
ARC
  8
0
 62
0
 10
187.048846170923
 20
-0.242307
 30
0.0
 40
0.5
 50
40.00000000003726
 51
90.0
  0
LINE
  8
0
 62
0
 10
187.431868392482
 20
0.07908680484327815
 30
0.0
 11
191.55838216197807
 21
-4.838700804843176
 31
0.0
  0
ARC
  8
0
 62
0
 10
191.941404383538
 20
-4.517307
 30
0.0
 40
0.5
 50
-140.0000000000412
 51
-90.0
  0
LINE
  8
0
 62
0
 10
191.941404383538
 20
-5.017307
 30
0.0
 11
271.798595616462
 21
-5.017307
 31
0.0
  0
ARC
  8
0
 62
0
 10
271.798595616462
 20
-4.517307
 30
0.0
 40
0.5
 50
-90.0
 51
-39.99999999996152
  0
LINE
  8
0
 62
0
 10
272.1816178380219
 20
-4.838700804843189
 30
0.0
 11
276.308131607518
 21
0.07908680484326716
 31
0.0
  0
ARC
  8
0
 62
0
 10
276.691153829078
 20
-0.242307
 30
0.0
 40
0.5
 50
90.0
 51
140.00000000003817
  0
LINE
  8
0
 62
0
 10
276.691153829078
 20
0.257693
 30
0.0
 11
281.845
 21
0.257693
 31
0.0
  0
ARC
  8
0
 62
0
 10
281.845
 20
4.257693
 30
0.0
 40
4.0
 50
-90.0
 51
0.0
  0
LINE
  8
0
 62
0
 10
285.845
 20
4.2576930000000175
 30
0.0
 11
285.845
 21
91.5075
 31
0.0
  0
ARC
  8
0
 62
0
 10
281.845
 20
91.5075
 30
0.0
 40
4.0
 50
-0.0
 51
90.0
  0
LINE
  8
0
 62
0
 10
281.845
 20
95.5075
 30
0.0
 11
276.691153829078
 21
95.5075
 31
0.0
  0
ARC
  8
0
 62
0
 10
276.691153829078
 20
96.0075
 30
0.0
 40
0.5
 50
-140.0000000000366
 51
-90.0
  0
LINE
  8
0
 62
0
 10
276.308131607518
 20
95.68610619515671
 30
0.0
 11
272.1816178380221
 21
100.60389380484303
 31
0.0
  0
ARC
  8
0
 62
0
 10
271.798595616462
 20
100.2825
 30
0.0
 40
0.5
 50
39.9999999999388
 51
90.0
  0
LINE
  8
0
 62
0
 10
271.798595616462
 20
100.7825
 30
0.0
 11
191.941404383538
 21
100.7825
 31
0.0
  0
ARC
  8
0
 62
0
 10
191.941404383538
 20
100.2825
 30
0.0
 40
0.5
 50
90.0
 51
140.00000000006455
  0
LINE
  8
0
 62
0
 10
191.55838216197793
 20
100.60389380484303
 30
0.0
 11
187.431868392482
 21
95.6861061951567
 31
0.0
  0
ARC
  8
0
 62
0
 10
187.048846170923
 20
96.0075
 30
0.0
 40
0.5
 50
-90.0
 51
-40.00000000004054
  0
LINE
  8
0
 62
0
 10
187.048846170923
 20
95.5075
 30
0.0
 11
98.8912384290775
 21
95.5075
 31
0.0
  0
ARC
  8
0
 62
0
 10
98.8912384290775
 20
96.0075
 30
0.0
 40
0.5
 50
-139.99999999999866
 51
-90.0
  0
LINE
  8
0
 62
0
 10
98.50821620751802
 20
95.68610619515671
 30
0.0
 11
94.38170243802196
 21
100.60389380484312
 31
0.0
  0
ARC
  8
0
 62
0
 10
93.9986802164624
 20
100.2825
 30
0.0
 40
0.5
 50
39.99999999998278
 51
90.0
  0
LINE
  8
0
 62
0
 10
13.758466761978045
 20
100.60389380484312
 30
0.0
 11
9.631952992481978
 21
95.68610619515671
 31
0.0
  0
ARC
  8
0
 62
0
 10
4.0950846
 20
91.5075
 30
0.0
 40
4.0
 50
90.00000000000004
 51
-180.0
  0
LINE
  8
0
 62
0
 10
0.09508459999999967
 20
91.5075
 30
0.0
 11
0.09508459999999301
 21
4.257693
 31
0.0
  0
ARC
  8
0
 62
0
 10
4.09508459999999
 20
4.257693
 30
0.0
 40
4.0
 50
-180.0
 51
-90.00000000000013
  0
LINE
  8
0
 62
0
 10
4.095084600000007
 20
0.257693
 30
0.0
 11
9.248930770922527
 21
0.257693
 31
0.0
  0
ARC
  8
0
 62
0
 10
269.102675586889
 20
21.5638
 30
0.0
 40
0.5
 50
50.33593242436205
 51
90.0
  0
LINE
  8
0
 62
0
 10
269.102675586889
 20
22.0638
 30
0.0
 11
268.676
 21
22.0638
 31
0.0
  0
ARC
  8
0
 62
0
 10
268.676
 20
22.5638
 30
0.0
 40
0.5
 50
-180.0
 51
-90.0
  0
LINE
  8
0
 62
0
 10
268.176
 20
22.5638
 30
0.0
 11
268.176
 21
26.0327
 31
0.0
  0
ARC
  8
0
 62
0
 10
267.676
 20
26.0327
 30
0.0
 40
0.5
 50
-0.0
 51
90.0
  0
LINE
  8
0
 62
0
 10
267.676
 20
26.5327
 30
0.0
 11
267.15
 21
26.5327
 31
0.0
  0
ARC
  8
0
 62
0
 10
267.15
 20
26.0327
 30
0.0
 40
0.5
 50
90.0
 51
-180.0
  0
LINE
  8
0
 62
0
 10
266.65
 20
26.0327
 30
0.0
 11
266.65
 21
22.3336
 31
0.0
  0
ARC
  8
0
 62
0
 10
266.15
 20
22.3336
 30
0.0
 40
0.5
 50
-90.0
 51
-0.0
  0
LINE
  8
0
 62
0
 10
266.15
 20
21.8336
 30
0.0
 11
249.868503484764
 21
21.8336
 31
0.0
  0
ARC
  8
0
 62
0
 10
249.868503484764
 20
21.3336
 30
0.0
 40
0.499999999999998
 50
90.0
 51
165.58165476334
  0
ARC
  8
0
 62
0
 10
248.9
 20
21.5826
 30
0.0
 40
0.5
 50
-90.0
 51
-14.418345236660397
  0
LINE
  8
0
 62
0
 10
248.9
 20
21.0826
 30
0.0
 11
246.569503484764
 21
21.0826
 31
0.0
  0
ARC
  8
0
 62
0
 10
246.569503484764
 20
21.5826
 30
0.0
 40
0.499999999999998
 50
-165.58165476333963
 51
-90.0
  0
ARC
  8
0
 62
0
 10
245.601
 20
21.3336
 30
0.0
 40
0.5
 50
14.418345236660015
 51
90.0
  0
LINE
  8
0
 62
0
 10
245.601
 20
21.8336
 30
0.0
 11
243.626
 21
21.8336
 31
0.0
  0
ARC
  8
0
 62
0
 10
243.626
 20
22.3336
 30
0.0
 40
0.5
 50
-180.0
 51
-90.0
  0
LINE
  8
0
 62
0
 10
243.126
 20
22.3336
 30
0.0
 11
243.126
 21
35.333
 31
0.0
  0
ARC
  8
0
 62
0
 10
243.626
 20
35.333
 30
0.0
 40
0.5
 50
90.0
 51
-180.0
  0
LINE
  8
0
 62
0
 10
243.626
 20
35.833
 30
0.0
 11
266.15
 21
35.833
 31
0.0
  0
ARC
  8
0
 62
0
 10
266.15
 20
35.333
 30
0.0
 40
0.5
 50
-0.0
 51
90.0
  0
LINE
  8
0
 62
0
 10
266.65
 20
35.333
 30
0.0
 11
266.65
 21
31.6326
 31
0.0
  0
ARC
  8
0
 62
0
 10
267.15
 20
31.6326
 30
0.0
 40
0.5
 50
-180.0
 51
-90.0
  0
LINE
  8
0
 62
0
 10
267.15
 20
31.1326
 30
0.0
 11
267.676
 21
31.1326
 31
0.0
  0
ARC
  8
0
 62
0
 10
267.676
 20
31.6326
 30
0.0
 40
0.5
 50
-90.0
 51
-0.0
  0
LINE
  8
0
 62
0
 10
268.176
 20
31.6326
 30
0.0
 11
268.176
 21
33.8628
 31
0.0
  0
ARC
  8
0
 62
0
 10
268.676
 20
33.8628
 30
0.0
 40
0.5
 50
90.0
 51
-180.0
  0
LINE
  8
0
 62
0
 10
268.676
 20
34.3628
 30
0.0
 11
268.82
 21
34.3628
 31
0.0
  0
ARC
  8
0
 62
0
 10
268.82
 20
34.8628
 30
0.0
 40
0.5
 50
-90.0
 51
-0.0
  0
LINE
  8
0
 62
0
 10
269.32
 20
34.8628
 30
0.0
 11
269.32
 21
35.333
 31
0.0
  0
ARC
  8
0
 62
0
 10
269.82
 20
35.333
 30
0.0
 40
0.5
 50
90.0
 51
-180.0
  0
LINE
  8
0
 62
0
 10
269.82
 20
35.833
 30
0.0
 11
282.819
 21
35.833
 31
0.0
  0
ARC
  8
0
 62
0
 10
282.819
 20
35.333
 30
0.0
 40
0.5
 50
-0.0
 51
90.0
  0
LINE
  8
0
 62
0
 10
283.319
 20
35.333
 30
0.0
 11
283.319
 21
22.3336
 31
0.0
  0
ARC
  8
0
 62
0
 10
282.819
 20
22.3336
 30
0.0
 40
0.5
 50
-90.0
 51
-0.0
  0
LINE
  8
0
 62
0
 10
282.819
 20
21.8336
 30
0.0
 11
273.7
 21
21.8336
 31
0.0
  0
ARC
  8
0
 62
0
 10
273.7
 20
21.3336
 30
0.0
 40
0.5
 50
90.0
 51
165.58165476334085
  0
ARC
  8
0
 62
0
 10
272.731496515236
 20
21.5826
 30
0.0
 40
0.499999999999998
 50
-90.0
 51
-14.418345236660347
  0
LINE
  8
0
 62
0
 10
272.731496515236
 20
21.0826
 30
0.0
 11
270.4
 21
21.0826
 31
0.0
  0
ARC
  8
0
 62
0
 10
270.4
 20
21.5826
 30
0.0
 40
0.5
 50
-168.70389718937997
 51
-90.0
  0
ARC
  8
0
 62
0
 10
269.419372015703
 20
21.3867205564294
 30
0.0
 40
0.499999999999991
 50
11.296102810631245
 51
71.24096745826802
  0
ARC
  8
0
 62
0
 10
269.740960758266
 20
22.3336
 30
0.0
 40
0.499999999999996
 50
-129.66406757554614
 51
-108.75903254162166
  0
ARC
  8
0
 62
0
 10
280.812529189028
 20
78.4838
 30
0.0
 40
0.499999999999998
 50
90.0
 51
165.58757059327823
  0
ARC
  8
0
 62
0
 10
279.844
 20
78.7327
 30
0.0
 40
0.5
 50
-90.0
 51
-14.412429406721792
  0
LINE
  8
0
 62
0
 10
279.844
 20
78.2327
 30
0.0
 11
277.513529189028
 21
78.2327
 31
0.0
  0
ARC
  8
0
 62
0
 10
277.513529189028
 20
78.7327
 30
0.0
 40
0.499999999999998
 50
-165.58757059327823
 51
-90.0
  0
ARC
  8
0
 62
0
 10
276.545
 20
78.4838
 30
0.0
 40
0.5
 50
14.412429406721792
 51
90.0
  0
LINE
  8
0
 62
0
 10
276.545
 20
78.9838
 30
0.0
 11
257.012529189028
 21
78.9838
 31
0.0
  0
ARC
  8
0
 62
0
 10
257.012529189028
 20
78.4838
 30
0.0
 40
0.499999999999998
 50
90.0
 51
165.58757059327823
  0
ARC
  8
0
 62
0
 10
256.044
 20
78.7327
 30
0.0
 40
0.5
 50
-90.0
 51
-14.412429406721792
  0
LINE
  8
0
 62
0
 10
256.044
 20
78.2327
 30
0.0
 11
253.711529189028
 21
78.2327
 31
0.0
  0
ARC
  8
0
 62
0
 10
253.711529189028
 20
78.7327
 30
0.0
 40
0.499999999999998
 50
-165.58757059327823
 51
-90.0
  0
ARC
  8
0
 62
0
 10
252.743
 20
78.4838
 30
0.0
 40
0.5
 50
14.412429406721792
 51
90.0
  0
LINE
  8
0
 62
0
 10
252.743
 20
78.9838
 30
0.0
 11
250.77
 21
78.9838
 31
0.0
  0
ARC
  8
0
 62
0
 10
250.77
 20
79.4838
 30
0.0
 40
0.5
 50
-180.0
 51
-90.0
  0
LINE
  8
0
 62
0
 10
250.27
 20
79.4838
 30
0.0
 11
250.27
 21
92.4831
 31
0.0
  0
ARC
  8
0
 62
0
 10
250.77
 20
92.4831
 30
0.0
 40
0.5
 50
90.0
 51
-180.0
  0
LINE
  8
0
 62
0
 10
250.77
 20
92.9831
 30
0.0
 11
282.819
 21
92.9831
 31
0.0
  0
ARC
  8
0
 62
0
 10
282.819
 20
92.4831
 30
0.0
 40
0.5
 50
-0.0
 51
90.0
  0
LINE
  8
0
 62
0
 10
283.319
 20
92.4831
 30
0.0
 11
283.319
 21
79.4838
 31
0.0
  0
ARC
  8
0
 62
0
 10
282.819
 20
79.4838
 30
0.0
 40
0.5
 50
-90.0
 51
-0.0
  0
LINE
  8
0
 62
0
 10
282.819
 20
78.9838
 30
0.0
 11
280.812529189028
 21
78.9838
 31
0.0
  0
CIRCLE
  8
0
 62
0
 10
193.888021646013
 20
-1.97839847250142
 30
0.0
 40
1.00000000000001
  0
CIRCLE
  8
0
 62
0
 10
269.851506517476
 20
-1.97470113467023
 30
0.0
 40
1.00000000000001
  0
CIRCLE
  8
0
 62
0
 10
269.851506517476
 20
97.7398941346702
 30
0.0
 40
1.00000000000001
  0
CIRCLE
  8
0
 62
0
 10
193.888021646013
 20
97.7435914725014
 30
0.0
 40
1.00000000000001
  0
LINE
  8
0
 62
0
 10
4.38216
 20
60.4338
 30
0.0
 11
4.38216
 21
73.4331
 31
0.0
  0
ARC
  8
0
 62
0
 10
4.88216
 20
73.4331
 30
0.0
 40
0.5
 50
90.0
 51
-180.0
  0
LINE
  8
0
 62
0
 10
4.88216
 20
73.9331
 30
0.0
 11
5.38216
 21
73.9331
 31
0.0
  0
ARC
  8
0
 62
0
 10
5.38216
 20
73.4331
 30
0.0
 40
0.5
 50
-0.0
 51
90.0
  0
LINE
  8
0
 62
0
 10
5.88216
 20
73.4331
 30
0.0
 11
5.88216
 21
60.4338
 31
0.0
  0
ARC
  8
0
 62
0
 10
5.38216
 20
60.4338
 30
0.0
 40
0.5
 50
-90.0
 51
-0.0
  0
LINE
  8
0
 62
0
 10
5.38216
 20
59.9338
 30
0.0
 11
4.88216
 21
59.9338
 31
0.0
  0
ARC
  8
0
 62
0
 10
4.88216
 20
60.4338
 30
0.0
 40
0.5
 50
-180.0
 51
-90.0
  0
LINE
  8
0
 62
0
 10
263.057
 20
73.4331
 30
0.0
 11
263.057
 21
60.4338
 31
0.0
  0
ARC
  8
0
 62
0
 10
262.557
 20
60.4338
 30
0.0
 40
0.5
 50
-90.0
 51
-0.0
  0
LINE
  8
0
 62
0
 10
262.557
 20
59.9338
 30
0.0
 11
262.057
 21
59.9338
 31
0.0
  0
ARC
  8
0
 62
0
 10
262.057
 20
60.4338
 30
0.0
 40
0.5
 50
-180.0
 51
-90.0
  0
LINE
  8
0
 62
0
 10
261.557
 20
60.4338
 30
0.0
 11
261.557
 21
73.4331
 31
0.0
  0
ARC
  8
0
 62
0
 10
262.057
 20
73.4331
 30
0.0
 40
0.5
 50
90.0
 51
-180.0
  0
LINE
  8
0
 62
0
 10
262.057
 20
73.9331
 30
0.0
 11
262.557
 21
73.9331
 31
0.0
  0
ARC
  8
0
 62
0
 10
262.557
 20
73.4331
 30
0.0
 40
0.5
 50
-0.0
 51
90.0
  0
LINE
  8
0
 62
0
 10
280.557
 20
73.9331
 30
0.0
 11
281.057
 21
73.9331
 31
0.0
  0
ARC
  8
0
 62
0
 10
281.057
 20
73.4331
 30
0.0
 40
0.5
 50
-0.0
 51
90.0
  0
LINE
  8
0
 62
0
 10
281.557
 20
73.4331
 30
0.0
 11
281.557
 21
60.4338
 31
0.0
  0
ARC
  8
0
 62
0
 10
281.057
 20
60.4338
 30
0.0
 40
0.5
 50
-90.0
 51
-0.0
  0
LINE
  8
0
 62
0
 10
281.057
 20
59.9338
 30
0.0
 11
280.557
 21
59.9338
 31
0.0
  0
ARC
  8
0
 62
0
 10
280.557
 20
60.4338
 30
0.0
 40
0.5
 50
-180.0
 51
-90.0
  0
LINE
  8
0
 62
0
 10
280.057
 20
60.4338
 30
0.0
 11
280.057
 21
73.4331
 31
0.0
  0
ARC
  8
0
 62
0
 10
280.557
 20
73.4331
 30
0.0
 40
0.5
 50
90.0
 51
-180.0
  0
LINE
  8
0
 62
0
 10
21.3817
 20
73.4331
 30
0.0
 11
21.3817
 21
60.4338
 31
0.0
  0
ARC
  8
0
 62
0
 10
20.8817
 20
60.4338
 30
0.0
 40
0.5
 50
-90.0
 51
-0.0
  0
LINE
  8
0
 62
0
 10
20.8817
 20
59.9338
 30
0.0
 11
7.882159999999999
 21
59.9338
 31
0.0
  0
ARC
  8
0
 62
0
 10
7.88216
 20
60.4338
 30
0.0
 40
0.5
 50
-180.0
 51
-90.0
  0
LINE
  8
0
 62
0
 10
7.38216
 20
60.4338
 30
0.0
 11
7.38216
 21
73.4331
 31
0.0
  0
ARC
  8
0
 62
0
 10
7.88216
 20
73.4331
 30
0.0
 40
0.5
 50
90.0
 51
-180.0
  0
LINE
  8
0
 62
0
 10
7.88216
 20
73.9331
 30
0.0
 11
20.8817
 21
73.9331
 31
0.0
  0
ARC
  8
0
 62
0
 10
20.8817
 20
73.4331
 30
0.0
 40
0.5
 50
-0.0
 51
90.0
  0
LINE
  8
0
 62
0
 10
3.3274406122449
 20
40.8838
 30
0.0
 11
2.8274406122449
 21
40.8838
 31
0.0
  0
ARC
  8
0
 62
0
 10
2.8274406122449
 20
41.3838
 30
0.0
 40
0.5
 50
-180.0
 51
-90.00000000000006
  0
LINE
  8
0
 62
0
 10
2.3274406122449
 20
41.3838
 30
0.0
 11
2.3274406122449
 21
54.3831
 31
0.0
  0
ARC
  8
0
 62
0
 10
2.8274406122449
 20
54.3831
 30
0.0
 40
0.5
 50
90.0
 51
-180.0
  0
LINE
  8
0
 62
0
 10
2.8274406122449
 20
54.8831
 30
0.0
 11
3.3274406122449
 21
54.8831
 31
0.0
  0
ARC
  8
0
 62
0
 10
3.3274406122449
 20
54.3831
 30
0.0
 40
0.5
 50
-0.0
 51
89.99999999999994
  0
LINE
  8
0
 62
0
 10
3.8274406122449
 20
54.3831
 30
0.0
 11
3.8274406122449
 21
41.3838
 31
0.0
  0
ARC
  8
0
 62
0
 10
3.3274406122449
 20
41.3838
 30
0.0
 40
0.5
 50
-90.0
 51
-0.0
  0
LINE
  8
0
 62
0
 10
25.2629
 20
41.3838
 30
0.0
 11
25.2629
 21
54.3831
 31
0.0
  0
ARC
  8
0
 62
0
 10
25.7629
 20
54.3831
 30
0.0
 40
0.5
 50
90.0
 51
-180.0
  0
LINE
  8
0
 62
0
 10
25.7629
 20
54.8831
 30
0.0
 11
26.2629
 21
54.8831
 31
0.0
  0
ARC
  8
0
 62
0
 10
26.2629
 20
54.3831
 30
0.0
 40
0.5
 50
-0.0
 51
90.0
  0
LINE
  8
0
 62
0
 10
26.7629
 20
54.3831
 30
0.0
 11
26.7629
 21
41.3838
 31
0.0
  0
ARC
  8
0
 62
0
 10
26.2629
 20
41.3838
 30
0.0
 40
0.5
 50
-90.0
 51
-0.0
  0
LINE
  8
0
 62
0
 10
26.2629
 20
40.8838
 30
0.0
 11
25.7629
 21
40.8838
 31
0.0
  0
ARC
  8
0
 62
0
 10
25.7629
 20
41.3838
 30
0.0
 40
0.5
 50
-180.0
 51
-90.0
  0
LINE
  8
0
 62
0
 10
192.664163447735
 20
12.78337
 30
0.0
 11
192.664163447735
 21
6.78337
 31
0.0
  0
ARC
  8
0
 62
0
 10
192.164163447735
 20
6.78337
 30
0.0
 40
0.5
 50
-90.0
 51
-0.0
  0
LINE
  8
0
 62
0
 10
192.164163447735
 20
6.28337
 30
0.0
 11
187.800353763552
 21
6.28337
 31
0.0
  0
ARC
  8
0
 62
0
 10
187.800353763552
 20
6.78337
 30
0.0
 40
0.5
 50
-180.0
 51
-90.0
  0
LINE
  8
0
 62
0
 10
187.300353763552
 20
6.78337
 30
0.0
 11
187.300353763552
 21
12.78337
 31
0.0
  0
ARC
  8
0
 62
0
 10
187.800353763552
 20
12.78337
 30
0.0
 40
0.5
 50
90.0
 51
-180.0
  0
LINE
  8
0
 62
0
 10
187.800353763552
 20
13.28337
 30
0.0
 11
192.164163447735
 21
13.28337
 31
0.0
  0
ARC
  8
0
 62
0
 10
192.164163447735
 20
12.78337
 30
0.0
 40
0.5
 50
-0.0
 51
90.0
  0
LINE
  8
0
 62
0
 10
154.986459225019
 20
13.28337
 30
0.0
 11
172.75979311966
 21
13.28337
 31
0.0
  0
ARC
  8
0
 62
0
 10
172.75979311966
 20
12.78337
 30
0.0
 40
0.5
 50
-0.0
 51
90.0
  0
LINE
  8
0
 62
0
 10
173.25979311966
 20
12.78337
 30
0.0
 11
173.25979311966
 21
6.78337
 31
0.0
  0
ARC
  8
0
 62
0
 10
172.75979311966
 20
6.78337
 30
0.0
 40
0.5
 50
-90.0
 51
-0.0
  0
LINE
  8
0
 62
0
 10
172.75979311966
 20
6.28337
 30
0.0
 11
154.986459225019
 21
6.28337
 31
0.0
  0
ARC
  8
0
 62
0
 10
154.986459225019
 20
6.78337
 30
0.0
 40
0.5
 50
-180.0
 51
-90.0
  0
LINE
  8
0
 62
0
 10
154.486459225019
 20
6.78337
 30
0.0
 11
154.486459225019
 21
12.78337
 31
0.0
  0
ARC
  8
0
 62
0
 10
154.986459225019
 20
12.78337
 30
0.0
 40
0.5
 50
90.0
 51
-180.0
  0
LINE
  8
0
 62
0
 10
93.6181660736294
 20
13.28337
 30
0.0
 11
120.226010036337
 21
13.28337
 31
0.0
  0
ARC
  8
0
 62
0
 10
120.226010036337
 20
12.78337
 30
0.0
 40
0.5
 50
-0.0
 51
90.0
  0
LINE
  8
0
 62
0
 10
120.726010036337
 20
12.78337
 30
0.0
 11
120.726010036337
 21
6.78337
 31
0.0
  0
ARC
  8
0
 62
0
 10
120.226010036337
 20
6.78337
 30
0.0
 40
0.5
 50
-90.0
 51
-0.0
  0
LINE
  8
0
 62
0
 10
120.226010036337
 20
6.28337
 30
0.0
 11
93.6181660736294
 21
6.28337
 31
0.0
  0
ARC
  8
0
 62
0
 10
93.6181660736294
 20
6.78337
 30
0.0
 40
0.5
 50
-180.0
 51
-90.0
  0
LINE
  8
0
 62
0
 10
93.1181660736294
 20
6.78337
 30
0.0
 11
93.1181660736294
 21
12.78337
 31
0.0
  0
ARC
  8
0
 62
0
 10
93.6181660736294
 20
12.78337
 30
0.0
 40
0.5
 50
90.0
 51
-180.0
  0
LINE
  8
0
 62
0
 10
178.187
 20
17.5341
 30
0.0
 11
183.938
 21
17.5341
 31
0.0
  0
ARC
  8
0
 62
0
 10
183.938
 20
17.0341
 30
0.0
 40
0.5
 50
-0.0
 51
90.0
  0
LINE
  8
0
 62
0
 10
184.438
 20
17.0341
 30
0.0
 11
184.438
 21
3.8320100000000004
 31
0.0
  0
ARC
  8
0
 62
0
 10
183.938
 20
3.83201
 30
0.0
 40
0.5
 50
-90.0
 51
-0.0
  0
LINE
  8
0
 62
0
 10
183.938
 20
3.33201
 30
0.0
 11
178.187
 21
3.33201
 31
0.0
  0
ARC
  8
0
 62
0
 10
178.187
 20
3.83201
 30
0.0
 40
0.5
 50
-180.0
 51
-90.0
  0
LINE
  8
0
 62
0
 10
177.687
 20
3.8320100000000004
 30
0.0
 11
177.687
 21
17.0341
 31
0.0
  0
ARC
  8
0
 62
0
 10
178.187
 20
17.0341
 30
0.0
 40
0.5
 50
90.0
 51
-180.0
  0
LINE
  8
0
 62
0
 10
149.969
 20
16.2831
 30
0.0
 11
149.969
 21
3.28364
 31
0.0
  0
ARC
  8
0
 62
0
 10
149.469
 20
3.28364
 30
0.0
 40
0.5
 50
-90.0
 51
-0.0
  0
LINE
  8
0
 62
0
 10
149.469
 20
2.78364
 30
0.0
 11
124.562
 21
2.78364
 31
0.0
  0
ARC
  8
0
 62
0
 10
124.562
 20
3.28364
 30
0.0
 40
0.5
 50
-180.0
 51
-90.0
  0
LINE
  8
0
 62
0
 10
124.062
 20
3.28364
 30
0.0
 11
124.062
 21
16.2831
 31
0.0
  0
ARC
  8
0
 62
0
 10
124.562
 20
16.2831
 30
0.0
 40
0.5
 50
90.0
 51
-180.0
  0
LINE
  8
0
 62
0
 10
124.562
 20
16.7831
 30
0.0
 11
149.469
 21
16.7831
 31
0.0
  0
ARC
  8
0
 62
0
 10
149.469
 20
16.2831
 30
0.0
 40
0.5
 50
-0.0
 51
90.0
  0
LINE
  8
0
 62
0
 10
77.3629
 20
17.5341
 30
0.0
 11
88.6949
 21
17.5341
 31
0.0
  0
ARC
  8
0
 62
0
 10
88.6949
 20
17.0341
 30
0.0
 40
0.5
 50
-0.0
 51
90.0
  0
LINE
  8
0
 62
0
 10
89.1949
 20
17.0341
 30
0.0
 11
89.1949
 21
3.8320100000000004
 31
0.0
  0
ARC
  8
0
 62
0
 10
88.6949
 20
3.83201
 30
0.0
 40
0.5
 50
-90.0
 51
-0.0
  0
LINE
  8
0
 62
0
 10
88.6949
 20
3.33201
 30
0.0
 11
77.3629
 21
3.33201
 31
0.0
  0
ARC
  8
0
 62
0
 10
77.3629
 20
3.83201
 30
0.0
 40
0.5
 50
-180.0
 51
-90.0
  0
LINE
  8
0
 62
0
 10
76.8629
 20
3.8320100000000004
 30
0.0
 11
76.8629
 21
17.0341
 31
0.0
  0
ARC
  8
0
 62
0
 10
77.3629
 20
17.0341
 30
0.0
 40
0.5
 50
90.0
 51
-180.0
  0
LINE
  8
0
 62
0
 10
271.413
 20
54.3831
 30
0.0
 11
271.413
 21
41.3838
 31
0.0
  0
ARC
  8
0
 62
0
 10
270.913
 20
41.3838
 30
0.0
 40
0.5
 50
-90.0
 51
-0.0
  0
LINE
  8
0
 62
0
 10
270.913
 20
40.8838
 30
0.0
 11
257.912
 21
40.8838
 31
0.0
  0
ARC
  8
0
 62
0
 10
257.912
 20
41.3838
 30
0.0
 40
0.5
 50
-180.0
 51
-90.0
  0
LINE
  8
0
 62
0
 10
257.412
 20
41.3838
 30
0.0
 11
257.412
 21
54.3831
 31
0.0
  0
ARC
  8
0
 62
0
 10
257.912
 20
54.3831
 30
0.0
 40
0.5
 50
90.0
 51
-180.0
  0
LINE
  8
0
 62
0
 10
257.912
 20
54.8831
 30
0.0
 11
270.913
 21
54.8831
 31
0.0
  0
ARC
  8
0
 62
0
 10
270.913
 20
54.3831
 30
0.0
 40
0.5
 50
-0.0
 51
90.0
  0
LINE
  8
0
 62
0
 10
28.5254
 20
35.333
 30
0.0
 11
28.5254
 21
22.3336
 31
0.0
  0
ARC
  8
0
 62
0
 10
28.0254
 20
22.3336
 30
0.0
 40
0.5
 50
-90.0
 51
-0.0
  0
LINE
  8
0
 62
0
 10
28.0254
 20
21.8336
 30
0.0
 11
15.0259
 21
21.8336
 31
0.0
  0
ARC
  8
0
 62
0
 10
15.0259
 20
22.3336
 30
0.0
 40
0.5
 50
-180.0
 51
-90.0
  0
LINE
  8
0
 62
0
 10
14.5259
 20
22.3336
 30
0.0
 11
14.5259
 21
35.333
 31
0.0
  0
ARC
  8
0
 62
0
 10
15.0259
 20
35.333
 30
0.0
 40
0.5
 50
90.0
 51
-180.0
  0
LINE
  8
0
 62
0
 10
15.0259
 20
35.833
 30
0.0
 11
28.0254
 21
35.833
 31
0.0
  0
ARC
  8
0
 62
0
 10
28.0254
 20
35.333
 30
0.0
 40
0.5
 50
-0.0
 51
90.0
  0
LINE
  8
0
 62
0
 10
280.512
 20
53.8334
 30
0.0
 11
280.512
 21
40.6327
 31
0.0
  0
ARC
  8
0
 62
0
 10
280.012
 20
40.6327
 30
0.0
 40
0.5
 50
-90.0
 51
-0.0
  0
LINE
  8
0
 62
0
 10
280.012
 20
40.1327
 30
0.0
 11
273.437
 21
40.1327
 31
0.0
  0
ARC
  8
0
 62
0
 10
273.437
 20
40.6327
 30
0.0
 40
0.5
 50
-180.0
 51
-90.0
  0
LINE
  8
0
 62
0
 10
272.937
 20
40.6327
 30
0.0
 11
272.937
 21
53.8334
 31
0.0
  0
ARC
  8
0
 62
0
 10
273.437
 20
53.8334
 30
0.0
 40
0.5
 50
90.0
 51
-180.0
  0
LINE
  8
0
 62
0
 10
273.437
 20
54.3334
 30
0.0
 11
280.012
 21
54.3334
 31
0.0
  0
ARC
  8
0
 62
0
 10
280.012
 20
53.8334
 30
0.0
 40
0.5
 50
-0.0
 51
90.0
  0
LINE
  8
0
 62
0
 10
255.888
 20
53.8334
 30
0.0
 11
255.888
 21
40.6327
 31
0.0
  0
ARC
  8
0
 62
0
 10
255.388
 20
40.6327
 30
0.0
 40
0.5
 50
-90.0
 51
-0.0
  0
LINE
  8
0
 62
0
 10
255.388
 20
40.1327
 30
0.0
 11
248.813
 21
40.1327
 31
0.0
  0
ARC
  8
0
 62
0
 10
248.813
 20
40.6327
 30
0.0
 40
0.5
 50
-180.0
 51
-90.0
  0
LINE
  8
0
 62
0
 10
248.313
 20
40.6327
 30
0.0
 11
248.313
 21
53.8334
 31
0.0
  0
ARC
  8
0
 62
0
 10
248.813
 20
53.8334
 30
0.0
 40
0.5
 50
90.0
 51
-180.0
  0
LINE
  8
0
 62
0
 10
248.813
 20
54.3334
 30
0.0
 11
255.388
 21
54.3334
 31
0.0
  0
ARC
  8
0
 62
0
 10
255.388
 20
53.8334
 30
0.0
 40
0.5
 50
-0.0
 51
90.0
  0
LINE
  8
0
 62
0
 10
30.0509
 20
21.5826
 30
0.0
 11
30.0509
 21
34.7848
 31
0.0
  0
ARC
  8
0
 62
0
 10
30.5509
 20
34.7848
 30
0.0
 40
0.5
 50
90.0
 51
-180.0
  0
LINE
  8
0
 62
0
 10
30.5509
 20
35.2848
 30
0.0
 11
37.12597
 21
35.2848
 31
0.0
  0
ARC
  8
0
 62
0
 10
37.12597
 20
34.7848
 30
0.0
 40
0.5
 50
-0.0
 51
90.0
  0
LINE
  8
0
 62
0
 10
37.62597
 20
34.7848
 30
0.0
 11
37.62597
 21
21.5826
 31
0.0
  0
ARC
  8
0
 62
0
 10
37.12597
 20
21.5826
 30
0.0
 40
0.5
 50
-90.0
 51
-0.0
  0
LINE
  8
0
 62
0
 10
37.12597
 20
21.0826
 30
0.0
 11
30.5509
 21
21.0826
 31
0.0
  0
ARC
  8
0
 62
0
 10
30.5509
 20
21.5826
 30
0.0
 40
0.5
 50
-180.0
 51
-90.0
  0
LINE
  8
0
 62
0
 10
5.42533
 20
21.5826
 30
0.0
 11
5.42533
 21
34.7848
 31
0.0
  0
ARC
  8
0
 62
0
 10
5.92533
 20
34.7848
 30
0.0
 40
0.5
 50
90.0
 51
-180.0
  0
LINE
  8
0
 62
0
 10
5.92533
 20
35.2848
 30
0.0
 11
12.5004
 21
35.2848
 31
0.0
  0
ARC
  8
0
 62
0
 10
12.5004
 20
34.7848
 30
0.0
 40
0.5
 50
-0.0
 51
90.0
  0
LINE
  8
0
 62
0
 10
13.0004
 20
34.7848
 30
0.0
 11
13.0004
 21
21.5826
 31
0.0
  0
ARC
  8
0
 62
0
 10
12.5004
 20
21.5826
 30
0.0
 40
0.5
 50
-90.0
 51
-0.0
  0
LINE
  8
0
 62
0
 10
12.5004
 20
21.0826
 30
0.0
 11
5.92533
 21
21.0826
 31
0.0
  0
ARC
  8
0
 62
0
 10
5.92533
 20
21.5826
 30
0.0
 40
0.5
 50
-180.0
 51
-90.0
  0
LINE
  8
0
 62
0
 10
92.319
 20
78.9838
 30
0.0
 11
79.3197
 21
78.9838
 31
0.0
  0
ARC
  8
0
 62
0
 10
79.3197
 20
79.4838
 30
0.0
 40
0.5
 50
-180.0
 51
-90.0
  0
LINE
  8
0
 62
0
 10
78.8197
 20
79.4838
 30
0.0
 11
78.8197
 21
92.4831
 31
0.0
  0
ARC
  8
0
 62
0
 10
79.3197
 20
92.4831
 30
0.0
 40
0.5
 50
90.0
 51
-180.0
  0
LINE
  8
0
 62
0
 10
79.3197
 20
92.9831
 30
0.0
 11
92.319
 21
92.9831
 31
0.0
  0
ARC
  8
0
 62
0
 10
92.319
 20
92.4831
 30
0.0
 40
0.5
 50
-0.0
 51
90.0
  0
LINE
  8
0
 62
0
 10
92.819
 20
92.4831
 30
0.0
 11
92.819
 21
79.4838
 31
0.0
  0
ARC
  8
0
 62
0
 10
92.319
 20
79.4838
 30
0.0
 40
0.5
 50
-90.0
 51
-0.0
  0
LINE
  8
0
 62
0
 10
41.2197
 20
92.9831
 30
0.0
 11
54.219
 21
92.9831
 31
0.0
  0
ARC
  8
0
 62
0
 10
54.219
 20
92.4831
 30
0.0
 40
0.5
 50
-0.0
 51
90.0
  0
LINE
  8
0
 62
0
 10
54.719
 20
92.4831
 30
0.0
 11
54.719
 21
79.4838
 31
0.0
  0
ARC
  8
0
 62
0
 10
54.219
 20
79.4838
 30
0.0
 40
0.5
 50
-90.0
 51
-0.0
  0
LINE
  8
0
 62
0
 10
54.219
 20
78.9838
 30
0.0
 11
41.2197
 21
78.9838
 31
0.0
  0
ARC
  8
0
 62
0
 10
41.2197
 20
79.4838
 30
0.0
 40
0.5
 50
-180.0
 51
-90.0
  0
LINE
  8
0
 62
0
 10
40.7197
 20
79.4838
 30
0.0
 11
40.7197
 21
92.4831
 31
0.0
  0
ARC
  8
0
 62
0
 10
41.2197
 20
92.4831
 30
0.0
 40
0.5
 50
90.0
 51
-180.0
  0
LINE
  8
0
 62
0
 10
16.1192
 20
78.9838
 30
0.0
 11
3.11965
 21
78.9838
 31
0.0
  0
ARC
  8
0
 62
0
 10
3.11965
 20
79.4838
 30
0.0
 40
0.5
 50
-180.0
 51
-90.0
  0
LINE
  8
0
 62
0
 10
2.61965
 20
79.4838
 30
0.0
 11
2.61965
 21
92.4831
 31
0.0
  0
ARC
  8
0
 62
0
 10
3.11965
 20
92.4831
 30
0.0
 40
0.5
 50
90.0
 51
-180.0
  0
LINE
  8
0
 62
0
 10
3.11965
 20
92.9831
 30
0.0
 11
16.1192
 21
92.9831
 31
0.0
  0
ARC
  8
0
 62
0
 10
16.1192
 20
92.4831
 30
0.0
 40
0.5
 50
-0.0
 51
90.0
  0
LINE
  8
0
 62
0
 10
16.6192
 20
92.4831
 30
0.0
 11
16.6192
 21
79.4838
 31
0.0
  0
ARC
  8
0
 62
0
 10
16.1192
 20
79.4838
 30
0.0
 40
0.5
 50
-90.0
 51
-0.0
  0
LINE
  8
0
 62
0
 10
130.419
 20
78.9838
 30
0.0
 11
117.418
 21
78.9838
 31
0.0
  0
ARC
  8
0
 62
0
 10
117.418
 20
79.4838
 30
0.0
 40
0.5
 50
-180.0
 51
-90.0
  0
LINE
  8
0
 62
0
 10
116.918
 20
79.4838
 30
0.0
 11
116.918
 21
92.4831
 31
0.0
  0
ARC
  8
0
 62
0
 10
117.418
 20
92.4831
 30
0.0
 40
0.5
 50
90.0
 51
-180.0
  0
LINE
  8
0
 62
0
 10
117.418
 20
92.9831
 30
0.0
 11
130.419
 21
92.9831
 31
0.0
  0
ARC
  8
0
 62
0
 10
130.419
 20
92.4831
 30
0.0
 40
0.5
 50
-0.0
 51
90.0
  0
LINE
  8
0
 62
0
 10
130.919
 20
92.4831
 30
0.0
 11
130.919
 21
79.4838
 31
0.0
  0
ARC
  8
0
 62
0
 10
130.419
 20
79.4838
 30
0.0
 40
0.5
 50
-90.0
 51
-0.0
  0
LINE
  8
0
 62
0
 10
35.169
 20
78.9838
 30
0.0
 11
22.1697
 21
78.9838
 31
0.0
  0
ARC
  8
0
 62
0
 10
22.1697
 20
79.4838
 30
0.0
 40
0.5
 50
-180.0
 51
-90.0
  0
LINE
  8
0
 62
0
 10
21.6697
 20
79.4838
 30
0.0
 11
21.6697
 21
92.4831
 31
0.0
  0
ARC
  8
0
 62
0
 10
22.1697
 20
92.4831
 30
0.0
 40
0.5
 50
90.0
 51
-180.0
  0
LINE
  8
0
 62
0
 10
22.1697
 20
92.9831
 30
0.0
 11
35.169
 21
92.9831
 31
0.0
  0
ARC
  8
0
 62
0
 10
35.169
 20
92.4831
 30
0.0
 40
0.5
 50
-0.0
 51
90.0
  0
LINE
  8
0
 62
0
 10
35.669
 20
92.4831
 30
0.0
 11
35.669
 21
79.4838
 31
0.0
  0
ARC
  8
0
 62
0
 10
35.169
 20
79.4838
 30
0.0
 40
0.5
 50
-90.0
 51
-0.0
  0
LINE
  8
0
 62
0
 10
64.244
 20
73.4331
 30
0.0
 11
64.244
 21
60.4338
 31
0.0
  0
ARC
  8
0
 62
0
 10
63.744
 20
60.4338
 30
0.0
 40
0.5
 50
-90.0
 51
-0.0
  0
LINE
  8
0
 62
0
 10
63.744
 20
59.9338
 30
0.0
 11
50.7447
 21
59.9338
 31
0.0
  0
ARC
  8
0
 62
0
 10
50.7447
 20
60.4338
 30
0.0
 40
0.5
 50
-180.0
 51
-90.0
  0
LINE
  8
0
 62
0
 10
50.2447
 20
60.4338
 30
0.0
 11
50.2447
 21
73.4331
 31
0.0
  0
ARC
  8
0
 62
0
 10
50.7447
 20
73.4331
 30
0.0
 40
0.5
 50
90.0
 51
-180.0
  0
LINE
  8
0
 62
0
 10
50.7447
 20
73.9331
 30
0.0
 11
63.744
 21
73.9331
 31
0.0
  0
ARC
  8
0
 62
0
 10
63.744
 20
73.4331
 30
0.0
 40
0.5
 50
-0.0
 51
90.0
  0
LINE
  8
0
 62
0
 10
59.7697
 20
79.4838
 30
0.0
 11
59.7697
 21
92.4831
 31
0.0
  0
ARC
  8
0
 62
0
 10
60.2697
 20
92.4831
 30
0.0
 40
0.5
 50
90.0
 51
-180.0
  0
LINE
  8
0
 62
0
 10
60.2697
 20
92.9831
 30
0.0
 11
73.269
 21
92.9831
 31
0.0
  0
ARC
  8
0
 62
0
 10
73.269
 20
92.4831
 30
0.0
 40
0.5
 50
-0.0
 51
90.0
  0
LINE
  8
0
 62
0
 10
73.769
 20
92.4831
 30
0.0
 11
73.769
 21
79.4838
 31
0.0
  0
ARC
  8
0
 62
0
 10
73.269
 20
79.4838
 30
0.0
 40
0.5
 50
-90.0
 51
-0.0
  0
LINE
  8
0
 62
0
 10
73.269
 20
78.9838
 30
0.0
 11
60.2697
 21
78.9838
 31
0.0
  0
ARC
  8
0
 62
0
 10
60.2697
 20
79.4838
 30
0.0
 40
0.5
 50
-180.0
 51
-90.0
  0
LINE
  8
0
 62
0
 10
111.869
 20
92.4831
 30
0.0
 11
111.869
 21
79.4838
 31
0.0
  0
ARC
  8
0
 62
0
 10
111.369
 20
79.4838
 30
0.0
 40
0.5
 50
-90.0
 51
-0.0
  0
LINE
  8
0
 62
0
 10
111.369
 20
78.9838
 30
0.0
 11
98.3683
 21
78.9838
 31
0.0
  0
ARC
  8
0
 62
0
 10
98.3683
 20
79.4838
 30
0.0
 40
0.5
 50
-180.0
 51
-90.0
  0
LINE
  8
0
 62
0
 10
97.8683
 20
79.4838
 30
0.0
 11
97.8683
 21
92.4831
 31
0.0
  0
ARC
  8
0
 62
0
 10
98.3683
 20
92.4831
 30
0.0
 40
0.5
 50
90.0
 51
-180.0
  0
LINE
  8
0
 62
0
 10
98.3683
 20
92.9831
 30
0.0
 11
111.369
 21
92.9831
 31
0.0
  0
ARC
  8
0
 62
0
 10
111.369
 20
92.4831
 30
0.0
 40
0.5
 50
-0.0
 51
90.0
  0
LINE
  8
0
 62
0
 10
207.119
 20
92.4831
 30
0.0
 11
207.119
 21
79.4838
 31
0.0
  0
ARC
  8
0
 62
0
 10
206.619
 20
79.4838
 30
0.0
 40
0.5
 50
-90.0
 51
-0.0
  0
LINE
  8
0
 62
0
 10
206.619
 20
78.9838
 30
0.0
 11
193.62
 21
78.9838
 31
0.0
  0
ARC
  8
0
 62
0
 10
193.62
 20
79.4838
 30
0.0
 40
0.5
 50
-180.0
 51
-90.0
  0
LINE
  8
0
 62
0
 10
193.12
 20
79.4838
 30
0.0
 11
193.12
 21
92.4831
 31
0.0
  0
ARC
  8
0
 62
0
 10
193.62
 20
92.4831
 30
0.0
 40
0.5
 50
90.0
 51
-180.0
  0
LINE
  8
0
 62
0
 10
193.62
 20
92.9831
 30
0.0
 11
206.619
 21
92.9831
 31
0.0
  0
ARC
  8
0
 62
0
 10
206.619
 20
92.4831
 30
0.0
 40
0.5
 50
-0.0
 51
90.0
  0
LINE
  8
0
 62
0
 10
83.294
 20
73.4331
 30
0.0
 11
83.294
 21
60.4338
 31
0.0
  0
ARC
  8
0
 62
0
 10
82.794
 20
60.4338
 30
0.0
 40
0.5
 50
-90.0
 51
-0.0
  0
LINE
  8
0
 62
0
 10
82.794
 20
59.9338
 30
0.0
 11
69.7947
 21
59.9338
 31
0.0
  0
ARC
  8
0
 62
0
 10
69.7947
 20
60.4338
 30
0.0
 40
0.5
 50
-180.0
 51
-90.0
  0
LINE
  8
0
 62
0
 10
69.2947
 20
60.4338
 30
0.0
 11
69.2947
 21
73.4331
 31
0.0
  0
ARC
  8
0
 62
0
 10
69.7947
 20
73.4331
 30
0.0
 40
0.5
 50
90.0
 51
-180.0
  0
LINE
  8
0
 62
0
 10
69.7947
 20
73.9331
 30
0.0
 11
82.794
 21
73.9331
 31
0.0
  0
ARC
  8
0
 62
0
 10
82.794
 20
73.4331
 30
0.0
 40
0.5
 50
-0.0
 51
90.0
  0
LINE
  8
0
 62
0
 10
88.8447
 20
73.9331
 30
0.0
 11
101.844
 21
73.9331
 31
0.0
  0
ARC
  8
0
 62
0
 10
101.844
 20
73.4331
 30
0.0
 40
0.5
 50
-0.0
 51
90.0
  0
LINE
  8
0
 62
0
 10
102.344
 20
73.4331
 30
0.0
 11
102.344
 21
60.4338
 31
0.0
  0
ARC
  8
0
 62
0
 10
101.844
 20
60.4338
 30
0.0
 40
0.5
 50
-90.0
 51
-0.0
  0
LINE
  8
0
 62
0
 10
101.844
 20
59.9338
 30
0.0
 11
88.8447
 21
59.9338
 31
0.0
  0
ARC
  8
0
 62
0
 10
88.8447
 20
60.4338
 30
0.0
 40
0.5
 50
-180.0
 51
-90.0
  0
LINE
  8
0
 62
0
 10
88.3447
 20
60.4338
 30
0.0
 11
88.3447
 21
73.4331
 31
0.0
  0
ARC
  8
0
 62
0
 10
88.8447
 20
73.4331
 30
0.0
 40
0.5
 50
90.0
 51
-180.0
  0
LINE
  8
0
 62
0
 10
244.719
 20
78.9838
 30
0.0
 11
231.72
 21
78.9838
 31
0.0
  0
ARC
  8
0
 62
0
 10
231.72
 20
79.4838
 30
0.0
 40
0.5
 50
-180.0
 51
-90.0
  0
LINE
  8
0
 62
0
 10
231.22
 20
79.4838
 30
0.0
 11
231.22
 21
92.4831
 31
0.0
  0
ARC
  8
0
 62
0
 10
231.72
 20
92.4831
 30
0.0
 40
0.5
 50
90.0
 51
-180.0
  0
LINE
  8
0
 62
0
 10
231.72
 20
92.9831
 30
0.0
 11
244.719
 21
92.9831
 31
0.0
  0
ARC
  8
0
 62
0
 10
244.719
 20
92.4831
 30
0.0
 40
0.5
 50
-0.0
 51
90.0
  0
LINE
  8
0
 62
0
 10
245.219
 20
92.4831
 30
0.0
 11
245.219
 21
79.4838
 31
0.0
  0
ARC
  8
0
 62
0
 10
244.719
 20
79.4838
 30
0.0
 40
0.5
 50
-90.0
 51
-0.0
  0
LINE
  8
0
 62
0
 10
107.395
 20
60.4338
 30
0.0
 11
107.395
 21
73.4331
 31
0.0
  0
ARC
  8
0
 62
0
 10
107.895
 20
73.4331
 30
0.0
 40
0.5
 50
90.0
 51
-180.0
  0
LINE
  8
0
 62
0
 10
107.895
 20
73.9331
 30
0.0
 11
120.894
 21
73.9331
 31
0.0
  0
ARC
  8
0
 62
0
 10
120.894
 20
73.4331
 30
0.0
 40
0.5
 50
-0.0
 51
90.0
  0
LINE
  8
0
 62
0
 10
121.394
 20
73.4331
 30
0.0
 11
121.394
 21
60.4338
 31
0.0
  0
ARC
  8
0
 62
0
 10
120.894
 20
60.4338
 30
0.0
 40
0.5
 50
-90.0
 51
-0.0
  0
LINE
  8
0
 62
0
 10
120.894
 20
59.9338
 30
0.0
 11
107.895
 21
59.9338
 31
0.0
  0
ARC
  8
0
 62
0
 10
107.895
 20
60.4338
 30
0.0
 40
0.5
 50
-180.0
 51
-90.0
  0
LINE
  8
0
 62
0
 10
135.97
 20
79.4838
 30
0.0
 11
135.97
 21
92.4831
 31
0.0
  0
ARC
  8
0
 62
0
 10
136.47
 20
92.4831
 30
0.0
 40
0.5
 50
90.0
 51
-180.0
  0
LINE
  8
0
 62
0
 10
136.47
 20
92.9831
 30
0.0
 11
149.469
 21
92.9831
 31
0.0
  0
ARC
  8
0
 62
0
 10
149.469
 20
92.4831
 30
0.0
 40
0.5
 50
-0.0
 51
90.0
  0
LINE
  8
0
 62
0
 10
149.969
 20
92.4831
 30
0.0
 11
149.969
 21
79.4838
 31
0.0
  0
ARC
  8
0
 62
0
 10
149.469
 20
79.4838
 30
0.0
 40
0.5
 50
-90.0
 51
-0.0
  0
LINE
  8
0
 62
0
 10
149.469
 20
78.9838
 30
0.0
 11
136.47
 21
78.9838
 31
0.0
  0
ARC
  8
0
 62
0
 10
136.47
 20
79.4838
 30
0.0
 40
0.5
 50
-180.0
 51
-90.0
  0
LINE
  8
0
 62
0
 10
174.57
 20
92.9831
 30
0.0
 11
187.569
 21
92.9831
 31
0.0
  0
ARC
  8
0
 62
0
 10
187.569
 20
92.4831
 30
0.0
 40
0.5
 50
-0.0
 51
90.0
  0
LINE
  8
0
 62
0
 10
188.069
 20
92.4831
 30
0.0
 11
188.069
 21
79.4838
 31
0.0
  0
ARC
  8
0
 62
0
 10
187.569
 20
79.4838
 30
0.0
 40
0.5
 50
-90.0
 51
-0.0
  0
LINE
  8
0
 62
0
 10
187.569
 20
78.9838
 30
0.0
 11
174.57
 21
78.9838
 31
0.0
  0
ARC
  8
0
 62
0
 10
174.57
 20
79.4838
 30
0.0
 40
0.5
 50
-180.0
 51
-90.0
  0
LINE
  8
0
 62
0
 10
174.07
 20
79.4838
 30
0.0
 11
174.07
 21
92.4831
 31
0.0
  0
ARC
  8
0
 62
0
 10
174.57
 20
92.4831
 30
0.0
 40
0.5
 50
90.0
 51
-180.0
  0
LINE
  8
0
 62
0
 10
31.6947
 20
73.9331
 30
0.0
 11
44.694
 21
73.9331
 31
0.0
  0
ARC
  8
0
 62
0
 10
44.694
 20
73.4331
 30
0.0
 40
0.5
 50
-0.0
 51
90.0
  0
LINE
  8
0
 62
0
 10
45.194
 20
73.4331
 30
0.0
 11
45.194
 21
60.4338
 31
0.0
  0
ARC
  8
0
 62
0
 10
44.694
 20
60.4338
 30
0.0
 40
0.5
 50
-90.0
 51
-0.0
  0
LINE
  8
0
 62
0
 10
44.694
 20
59.9338
 30
0.0
 11
31.6947
 21
59.9338
 31
0.0
  0
ARC
  8
0
 62
0
 10
31.6947
 20
60.4338
 30
0.0
 40
0.5
 50
-180.0
 51
-90.0
  0
LINE
  8
0
 62
0
 10
31.1947
 20
60.4338
 30
0.0
 11
31.1947
 21
73.4331
 31
0.0
  0
ARC
  8
0
 62
0
 10
31.6947
 20
73.4331
 30
0.0
 40
0.5
 50
90.0
 51
-180.0
  0
LINE
  8
0
 62
0
 10
226.169
 20
92.4831
 30
0.0
 11
226.169
 21
79.4838
 31
0.0
  0
ARC
  8
0
 62
0
 10
225.669
 20
79.4838
 30
0.0
 40
0.5
 50
-90.0
 51
-0.0
  0
LINE
  8
0
 62
0
 10
225.669
 20
78.9838
 30
0.0
 11
212.67
 21
78.9838
 31
0.0
  0
ARC
  8
0
 62
0
 10
212.67
 20
79.4838
 30
0.0
 40
0.5
 50
-180.0
 51
-90.0
  0
LINE
  8
0
 62
0
 10
212.17
 20
79.4838
 30
0.0
 11
212.17
 21
92.4831
 31
0.0
  0
ARC
  8
0
 62
0
 10
212.67
 20
92.4831
 30
0.0
 40
0.5
 50
90.0
 51
-180.0
  0
LINE
  8
0
 62
0
 10
212.67
 20
92.9831
 30
0.0
 11
225.669
 21
92.9831
 31
0.0
  0
ARC
  8
0
 62
0
 10
225.669
 20
92.4831
 30
0.0
 40
0.5
 50
-0.0
 51
90.0
  0
LINE
  8
0
 62
0
 10
139.944
 20
59.9338
 30
0.0
 11
126.945
 21
59.9338
 31
0.0
  0
ARC
  8
0
 62
0
 10
126.945
 20
60.4338
 30
0.0
 40
0.5
 50
-180.0
 51
-90.0
  0
LINE
  8
0
 62
0
 10
126.445
 20
60.4338
 30
0.0
 11
126.445
 21
73.4331
 31
0.0
  0
ARC
  8
0
 62
0
 10
126.945
 20
73.4331
 30
0.0
 40
0.5
 50
90.0
 51
-180.0
  0
LINE
  8
0
 62
0
 10
126.945
 20
73.9331
 30
0.0
 11
139.944
 21
73.9331
 31
0.0
  0
ARC
  8
0
 62
0
 10
139.944
 20
73.4331
 30
0.0
 40
0.5
 50
-0.0
 51
90.0
  0
LINE
  8
0
 62
0
 10
140.444
 20
73.4331
 30
0.0
 11
140.444
 21
60.4338
 31
0.0
  0
ARC
  8
0
 62
0
 10
139.944
 20
60.4338
 30
0.0
 40
0.5
 50
-90.0
 51
-0.0
  0
LINE
  8
0
 62
0
 10
169.019
 20
92.4831
 30
0.0
 11
169.019
 21
79.4838
 31
0.0
  0
ARC
  8
0
 62
0
 10
168.519
 20
79.4838
 30
0.0
 40
0.5
 50
-90.0
 51
-0.0
  0
LINE
  8
0
 62
0
 10
168.519
 20
78.9838
 30
0.0
 11
155.52
 21
78.9838
 31
0.0
  0
ARC
  8
0
 62
0
 10
155.52
 20
79.4838
 30
0.0
 40
0.5
 50
-180.0
 51
-90.0
  0
LINE
  8
0
 62
0
 10
155.02
 20
79.4838
 30
0.0
 11
155.02
 21
92.4831
 31
0.0
  0
ARC
  8
0
 62
0
 10
155.52
 20
92.4831
 30
0.0
 40
0.5
 50
90.0
 51
-180.0
  0
LINE
  8
0
 62
0
 10
155.52
 20
92.9831
 30
0.0
 11
168.519
 21
92.9831
 31
0.0
  0
ARC
  8
0
 62
0
 10
168.519
 20
92.4831
 30
0.0
 40
0.5
 50
-0.0
 51
90.0
  0
LINE
  8
0
 62
0
 10
164.257
 20
54.3831
 30
0.0
 11
164.257
 21
41.3838
 31
0.0
  0
ARC
  8
0
 62
0
 10
163.757
 20
41.3838
 30
0.0
 40
0.5
 50
-90.0
 51
-0.0
  0
LINE
  8
0
 62
0
 10
163.757
 20
40.8838
 30
0.0
 11
150.757
 21
40.8838
 31
0.0
  0
ARC
  8
0
 62
0
 10
150.757
 20
41.3838
 30
0.0
 40
0.5
 50
-180.0
 51
-90.0
  0
LINE
  8
0
 62
0
 10
150.257
 20
41.3838
 30
0.0
 11
150.257
 21
54.3831
 31
0.0
  0
ARC
  8
0
 62
0
 10
150.757
 20
54.3831
 30
0.0
 40
0.5
 50
90.0
 51
-180.0
  0
LINE
  8
0
 62
0
 10
150.757
 20
54.8831
 30
0.0
 11
163.757
 21
54.8831
 31
0.0
  0
ARC
  8
0
 62
0
 10
163.757
 20
54.3831
 30
0.0
 40
0.5
 50
-0.0
 51
90.0
  0
LINE
  8
0
 62
0
 10
183.595
 20
60.4338
 30
0.0
 11
183.595
 21
73.4331
 31
0.0
  0
ARC
  8
0
 62
0
 10
184.095
 20
73.4331
 30
0.0
 40
0.5
 50
90.0
 51
-180.0
  0
LINE
  8
0
 62
0
 10
184.095
 20
73.9331
 30
0.0
 11
197.094
 21
73.9331
 31
0.0
  0
ARC
  8
0
 62
0
 10
197.094
 20
73.4331
 30
0.0
 40
0.5
 50
-0.0
 51
90.0
  0
LINE
  8
0
 62
0
 10
197.594
 20
73.4331
 30
0.0
 11
197.594
 21
60.4338
 31
0.0
  0
ARC
  8
0
 62
0
 10
197.094
 20
60.4338
 30
0.0
 40
0.5
 50
-90.0
 51
-0.0
  0
LINE
  8
0
 62
0
 10
197.094
 20
59.9338
 30
0.0
 11
184.095
 21
59.9338
 31
0.0
  0
ARC
  8
0
 62
0
 10
184.095
 20
60.4338
 30
0.0
 40
0.5
 50
-180.0
 51
-90.0
  0
LINE
  8
0
 62
0
 10
145.207
 20
54.3831
 30
0.0
 11
145.207
 21
41.3838
 31
0.0
  0
ARC
  8
0
 62
0
 10
144.707
 20
41.3838
 30
0.0
 40
0.5
 50
-90.0
 51
-0.0
  0
LINE
  8
0
 62
0
 10
144.707
 20
40.8838
 30
0.0
 11
131.707
 21
40.8838
 31
0.0
  0
ARC
  8
0
 62
0
 10
131.707
 20
41.3838
 30
0.0
 40
0.5
 50
-180.0
 51
-90.0
  0
LINE
  8
0
 62
0
 10
131.207
 20
41.3838
 30
0.0
 11
131.207
 21
54.3831
 31
0.0
  0
ARC
  8
0
 62
0
 10
131.707
 20
54.3831
 30
0.0
 40
0.5
 50
90.0
 51
-180.0
  0
LINE
  8
0
 62
0
 10
131.707
 20
54.8831
 30
0.0
 11
144.707
 21
54.8831
 31
0.0
  0
ARC
  8
0
 62
0
 10
144.707
 20
54.3831
 30
0.0
 40
0.5
 50
-0.0
 51
90.0
  0
LINE
  8
0
 62
0
 10
235.694
 20
73.4331
 30
0.0
 11
235.694
 21
60.4338
 31
0.0
  0
ARC
  8
0
 62
0
 10
235.194
 20
60.4338
 30
0.0
 40
0.5
 50
-90.0
 51
-0.0
  0
LINE
  8
0
 62
0
 10
235.194
 20
59.9338
 30
0.0
 11
222.195
 21
59.9338
 31
0.0
  0
ARC
  8
0
 62
0
 10
222.195
 20
60.4338
 30
0.0
 40
0.5
 50
-180.0
 51
-90.0
  0
LINE
  8
0
 62
0
 10
221.695
 20
60.4338
 30
0.0
 11
221.695
 21
73.4331
 31
0.0
  0
ARC
  8
0
 62
0
 10
222.195
 20
73.4331
 30
0.0
 40
0.5
 50
90.0
 51
-180.0
  0
LINE
  8
0
 62
0
 10
222.195
 20
73.9331
 30
0.0
 11
235.194
 21
73.9331
 31
0.0
  0
ARC
  8
0
 62
0
 10
235.194
 20
73.4331
 30
0.0
 40
0.5
 50
-0.0
 51
90.0
  0
LINE
  8
0
 62
0
 10
88.0565
 20
54.3831
 30
0.0
 11
88.0565
 21
41.3838
 31
0.0
  0
ARC
  8
0
 62
0
 10
87.5565
 20
41.3838
 30
0.0
 40
0.5
 50
-90.0
 51
-0.0
  0
LINE
  8
0
 62
0
 10
87.5565
 20
40.8838
 30
0.0
 11
74.5572
 21
40.8838
 31
0.0
  0
ARC
  8
0
 62
0
 10
74.5572
 20
41.3838
 30
0.0
 40
0.5
 50
-180.0
 51
-90.0
  0
LINE
  8
0
 62
0
 10
74.0572
 20
41.3838
 30
0.0
 11
74.0572
 21
54.3831
 31
0.0
  0
ARC
  8
0
 62
0
 10
74.5572
 20
54.3831
 30
0.0
 40
0.5
 50
90.0
 51
-180.0
  0
LINE
  8
0
 62
0
 10
74.5572
 20
54.8831
 30
0.0
 11
87.5565
 21
54.8831
 31
0.0
  0
ARC
  8
0
 62
0
 10
87.5565
 20
54.3831
 30
0.0
 40
0.5
 50
-0.0
 51
90.0
  0
LINE
  8
0
 62
0
 10
203.145
 20
73.9331
 30
0.0
 11
216.144
 21
73.9331
 31
0.0
  0
ARC
  8
0
 62
0
 10
216.144
 20
73.4331
 30
0.0
 40
0.5
 50
-0.0
 51
90.0
  0
LINE
  8
0
 62
0
 10
216.644
 20
73.4331
 30
0.0
 11
216.644
 21
60.4338
 31
0.0
  0
ARC
  8
0
 62
0
 10
216.144
 20
60.4338
 30
0.0
 40
0.5
 50
-90.0
 51
-0.0
  0
LINE
  8
0
 62
0
 10
216.144
 20
59.9338
 30
0.0
 11
203.145
 21
59.9338
 31
0.0
  0
ARC
  8
0
 62
0
 10
203.145
 20
60.4338
 30
0.0
 40
0.5
 50
-180.0
 51
-90.0
  0
LINE
  8
0
 62
0
 10
202.645
 20
60.4338
 30
0.0
 11
202.645
 21
73.4331
 31
0.0
  0
ARC
  8
0
 62
0
 10
203.145
 20
73.4331
 30
0.0
 40
0.5
 50
90.0
 51
-180.0
  0
LINE
  8
0
 62
0
 10
241.245
 20
73.9331
 30
0.0
 11
254.244
 21
73.9331
 31
0.0
  0
ARC
  8
0
 62
0
 10
254.244
 20
73.4331
 30
0.0
 40
0.5
 50
-0.0
 51
90.0
  0
LINE
  8
0
 62
0
 10
254.744
 20
73.4331
 30
0.0
 11
254.744
 21
60.4338
 31
0.0
  0
ARC
  8
0
 62
0
 10
254.244
 20
60.4338
 30
0.0
 40
0.5
 50
-90.0
 51
-0.0
  0
LINE
  8
0
 62
0
 10
254.244
 20
59.9338
 30
0.0
 11
241.245
 21
59.9338
 31
0.0
  0
ARC
  8
0
 62
0
 10
241.245
 20
60.4338
 30
0.0
 40
0.5
 50
-180.0
 51
-90.0
  0
LINE
  8
0
 62
0
 10
240.745
 20
60.4338
 30
0.0
 11
240.745
 21
73.4331
 31
0.0
  0
ARC
  8
0
 62
0
 10
241.245
 20
73.4331
 30
0.0
 40
0.5
 50
90.0
 51
-180.0
  0
LINE
  8
0
 62
0
 10
35.9572
 20
41.3838
 30
0.0
 11
35.9572
 21
54.3831
 31
0.0
  0
ARC
  8
0
 62
0
 10
36.4572
 20
54.3831
 30
0.0
 40
0.5
 50
90.0
 51
-180.0
  0
LINE
  8
0
 62
0
 10
36.4572
 20
54.8831
 30
0.0
 11
49.4565
 21
54.8831
 31
0.0
  0
ARC
  8
0
 62
0
 10
49.4565
 20
54.3831
 30
0.0
 40
0.5
 50
-0.0
 51
90.0
  0
LINE
  8
0
 62
0
 10
49.9565
 20
54.3831
 30
0.0
 11
49.9565
 21
41.3838
 31
0.0
  0
ARC
  8
0
 62
0
 10
49.4565
 20
41.3838
 30
0.0
 40
0.5
 50
-90.0
 51
-0.0
  0
LINE
  8
0
 62
0
 10
49.4565
 20
40.8838
 30
0.0
 11
36.4572
 21
40.8838
 31
0.0
  0
ARC
  8
0
 62
0
 10
36.4572
 20
41.3838
 30
0.0
 40
0.5
 50
-180.0
 51
-90.0
  0
LINE
  8
0
 62
0
 10
106.607
 20
40.8838
 30
0.0
 11
93.6072
 21
40.8838
 31
0.0
  0
ARC
  8
0
 62
0
 10
93.6072
 20
41.3838
 30
0.0
 40
0.5
 50
-180.0
 51
-90.0
  0
LINE
  8
0
 62
0
 10
93.1072
 20
41.3838
 30
0.0
 11
93.1072
 21
54.3831
 31
0.0
  0
ARC
  8
0
 62
0
 10
93.6072
 20
54.3831
 30
0.0
 40
0.5
 50
90.0
 51
-180.0
  0
LINE
  8
0
 62
0
 10
93.6072
 20
54.8831
 30
0.0
 11
106.607
 21
54.8831
 31
0.0
  0
ARC
  8
0
 62
0
 10
106.607
 20
54.3831
 30
0.0
 40
0.5
 50
-0.0
 51
90.0
  0
LINE
  8
0
 62
0
 10
107.107
 20
54.3831
 30
0.0
 11
107.107
 21
41.3838
 31
0.0
  0
ARC
  8
0
 62
0
 10
106.607
 20
41.3838
 30
0.0
 40
0.5
 50
-90.0
 51
-0.0
  0
LINE
  8
0
 62
0
 10
182.807
 20
40.8838
 30
0.0
 11
169.807
 21
40.8838
 31
0.0
  0
ARC
  8
0
 62
0
 10
169.807
 20
41.3838
 30
0.0
 40
0.5
 50
-180.0
 51
-90.0
  0
LINE
  8
0
 62
0
 10
169.307
 20
41.3838
 30
0.0
 11
169.307
 21
54.3831
 31
0.0
  0
ARC
  8
0
 62
0
 10
169.807
 20
54.3831
 30
0.0
 40
0.5
 50
90.0
 51
-180.0
  0
LINE
  8
0
 62
0
 10
169.807
 20
54.8831
 30
0.0
 11
182.807
 21
54.8831
 31
0.0
  0
ARC
  8
0
 62
0
 10
182.807
 20
54.3831
 30
0.0
 40
0.5
 50
-0.0
 51
90.0
  0
LINE
  8
0
 62
0
 10
183.307
 20
54.3831
 30
0.0
 11
183.307
 21
41.3838
 31
0.0
  0
ARC
  8
0
 62
0
 10
182.807
 20
41.3838
 30
0.0
 40
0.5
 50
-90.0
 51
-0.0
  0
LINE
  8
0
 62
0
 10
68.5065
 20
40.8838
 30
0.0
 11
55.5072
 21
40.8838
 31
0.0
  0
ARC
  8
0
 62
0
 10
55.5072
 20
41.3838
 30
0.0
 40
0.5
 50
-180.0
 51
-90.0
  0
LINE
  8
0
 62
0
 10
55.0072
 20
41.3838
 30
0.0
 11
55.0072
 21
54.3831
 31
0.0
  0
ARC
  8
0
 62
0
 10
55.5072
 20
54.3831
 30
0.0
 40
0.5
 50
90.0
 51
-180.0
  0
LINE
  8
0
 62
0
 10
55.5072
 20
54.8831
 30
0.0
 11
68.5065
 21
54.8831
 31
0.0
  0
ARC
  8
0
 62
0
 10
68.5065
 20
54.3831
 30
0.0
 40
0.5
 50
-0.0
 51
90.0
  0
LINE
  8
0
 62
0
 10
69.0065
 20
54.3831
 30
0.0
 11
69.0065
 21
41.3838
 31
0.0
  0
ARC
  8
0
 62
0
 10
68.5065
 20
41.3838
 30
0.0
 40
0.5
 50
-90.0
 51
-0.0
  0
LINE
  8
0
 62
0
 10
178.044
 20
59.9338
 30
0.0
 11
165.045
 21
59.9338
 31
0.0
  0
ARC
  8
0
 62
0
 10
165.045
 20
60.4338
 30
0.0
 40
0.5
 50
-180.0
 51
-90.0
  0
LINE
  8
0
 62
0
 10
164.545
 20
60.4338
 30
0.0
 11
164.545
 21
73.4331
 31
0.0
  0
ARC
  8
0
 62
0
 10
165.045
 20
73.4331
 30
0.0
 40
0.5
 50
90.0
 51
-180.0
  0
LINE
  8
0
 62
0
 10
165.045
 20
73.9331
 30
0.0
 11
178.044
 21
73.9331
 31
0.0
  0
ARC
  8
0
 62
0
 10
178.044
 20
73.4331
 30
0.0
 40
0.5
 50
-0.0
 51
90.0
  0
LINE
  8
0
 62
0
 10
178.544
 20
73.4331
 30
0.0
 11
178.544
 21
60.4338
 31
0.0
  0
ARC
  8
0
 62
0
 10
178.044
 20
60.4338
 30
0.0
 40
0.5
 50
-90.0
 51
-0.0
  0
LINE
  8
0
 62
0
 10
112.657
 20
54.8831
 30
0.0
 11
125.657
 21
54.8831
 31
0.0
  0
ARC
  8
0
 62
0
 10
125.657
 20
54.3831
 30
0.0
 40
0.5
 50
-0.0
 51
90.0
  0
LINE
  8
0
 62
0
 10
126.157
 20
54.3831
 30
0.0
 11
126.157
 21
41.3838
 31
0.0
  0
ARC
  8
0
 62
0
 10
125.657
 20
41.3838
 30
0.0
 40
0.5
 50
-90.0
 51
-0.0
  0
LINE
  8
0
 62
0
 10
125.657
 20
40.8838
 30
0.0
 11
112.657
 21
40.8838
 31
0.0
  0
ARC
  8
0
 62
0
 10
112.657
 20
41.3838
 30
0.0
 40
0.5
 50
-180.0
 51
-90.0
  0
LINE
  8
0
 62
0
 10
112.157
 20
41.3838
 30
0.0
 11
112.157
 21
54.3831
 31
0.0
  0
ARC
  8
0
 62
0
 10
112.657
 20
54.3831
 30
0.0
 40
0.5
 50
90.0
 51
-180.0
  0
LINE
  8
0
 62
0
 10
188.857
 20
54.8831
 30
0.0
 11
201.857
 21
54.8831
 31
0.0
  0
ARC
  8
0
 62
0
 10
201.857
 20
54.3831
 30
0.0
 40
0.5
 50
-0.0
 51
90.0
  0
LINE
  8
0
 62
0
 10
202.357
 20
54.3831
 30
0.0
 11
202.357
 21
41.3838
 31
0.0
  0
ARC
  8
0
 62
0
 10
201.857
 20
41.3838
 30
0.0
 40
0.5
 50
-90.0
 51
-0.0
  0
LINE
  8
0
 62
0
 10
201.857
 20
40.8838
 30
0.0
 11
188.857
 21
40.8838
 31
0.0
  0
ARC
  8
0
 62
0
 10
188.857
 20
41.3838
 30
0.0
 40
0.5
 50
-180.0
 51
-90.0
  0
LINE
  8
0
 62
0
 10
188.357
 20
41.3838
 30
0.0
 11
188.357
 21
54.3831
 31
0.0
  0
ARC
  8
0
 62
0
 10
188.857
 20
54.3831
 30
0.0
 40
0.5
 50
90.0
 51
-180.0
  0
LINE
  8
0
 62
0
 10
226.957
 20
54.8831
 30
0.0
 11
239.957
 21
54.8831
 31
0.0
  0
ARC
  8
0
 62
0
 10
239.957
 20
54.3831
 30
0.0
 40
0.5
 50
-0.0
 51
90.0
  0
LINE
  8
0
 62
0
 10
240.457
 20
54.3831
 30
0.0
 11
240.457
 21
41.3838
 31
0.0
  0
ARC
  8
0
 62
0
 10
239.957
 20
41.3838
 30
0.0
 40
0.5
 50
-90.0
 51
-0.0
  0
LINE
  8
0
 62
0
 10
239.957
 20
40.8838
 30
0.0
 11
226.957
 21
40.8838
 31
0.0
  0
ARC
  8
0
 62
0
 10
226.957
 20
41.3838
 30
0.0
 40
0.5
 50
-180.0
 51
-90.0
  0
LINE
  8
0
 62
0
 10
226.457
 20
41.3838
 30
0.0
 11
226.457
 21
54.3831
 31
0.0
  0
ARC
  8
0
 62
0
 10
226.957
 20
54.3831
 30
0.0
 40
0.5
 50
90.0
 51
-180.0
  0
LINE
  8
0
 62
0
 10
145.495
 20
60.4338
 30
0.0
 11
145.495
 21
73.4331
 31
0.0
  0
ARC
  8
0
 62
0
 10
145.995
 20
73.4331
 30
0.0
 40
0.5
 50
90.0
 51
-180.0
  0
LINE
  8
0
 62
0
 10
145.995
 20
73.9331
 30
0.0
 11
158.994
 21
73.9331
 31
0.0
  0
ARC
  8
0
 62
0
 10
158.994
 20
73.4331
 30
0.0
 40
0.5
 50
-0.0
 51
90.0
  0
LINE
  8
0
 62
0
 10
159.494
 20
73.4331
 30
0.0
 11
159.494
 21
60.4338
 31
0.0
  0
ARC
  8
0
 62
0
 10
158.994
 20
60.4338
 30
0.0
 40
0.5
 50
-90.0
 51
-0.0
  0
LINE
  8
0
 62
0
 10
158.994
 20
59.9338
 30
0.0
 11
145.995
 21
59.9338
 31
0.0
  0
ARC
  8
0
 62
0
 10
145.995
 20
60.4338
 30
0.0
 40
0.5
 50
-180.0
 51
-90.0
  0
LINE
  8
0
 62
0
 10
220.907
 20
40.8838
 30
0.0
 11
207.907
 21
40.8838
 31
0.0
  0
ARC
  8
0
 62
0
 10
207.907
 20
41.3838
 30
0.0
 40
0.5
 50
-180.0
 51
-90.0
  0
LINE
  8
0
 62
0
 10
207.407
 20
41.3838
 30
0.0
 11
207.407
 21
54.3831
 31
0.0
  0
ARC
  8
0
 62
0
 10
207.907
 20
54.3831
 30
0.0
 40
0.5
 50
90.0
 51
-180.0
  0
LINE
  8
0
 62
0
 10
207.907
 20
54.8831
 30
0.0
 11
220.907
 21
54.8831
 31
0.0
  0
ARC
  8
0
 62
0
 10
220.907
 20
54.3831
 30
0.0
 40
0.5
 50
-0.0
 51
90.0
  0
LINE
  8
0
 62
0
 10
221.407
 20
54.3831
 30
0.0
 11
221.407
 21
41.3838
 31
0.0
  0
ARC
  8
0
 62
0
 10
220.907
 20
41.3838
 30
0.0
 40
0.5
 50
-90.0
 51
-0.0
  0
LINE
  8
0
 62
0
 10
45.4822
 20
22.3336
 30
0.0
 11
45.4822
 21
35.333
 31
0.0
  0
ARC
  8
0
 62
0
 10
45.9822
 20
35.333
 30
0.0
 40
0.5
 50
90.0
 51
-180.0
  0
LINE
  8
0
 62
0
 10
45.9822
 20
35.833
 30
0.0
 11
58.9815
 21
35.833
 31
0.0
  0
ARC
  8
0
 62
0
 10
58.9815
 20
35.333
 30
0.0
 40
0.5
 50
-0.0
 51
90.0
  0
LINE
  8
0
 62
0
 10
59.4815
 20
35.333
 30
0.0
 11
59.4815
 21
22.3336
 31
0.0
  0
ARC
  8
0
 62
0
 10
58.9815
 20
22.3336
 30
0.0
 40
0.5
 50
-90.0
 51
-0.0
  0
LINE
  8
0
 62
0
 10
58.9815
 20
21.8336
 30
0.0
 11
45.9822
 21
21.8336
 31
0.0
  0
ARC
  8
0
 62
0
 10
45.9822
 20
22.3336
 30
0.0
 40
0.5
 50
-180.0
 51
-90.0
  0
LINE
  8
0
 62
0
 10
78.5315
 20
35.333
 30
0.0
 11
78.5315
 21
22.3336
 31
0.0
  0
ARC
  8
0
 62
0
 10
78.0315
 20
22.3336
 30
0.0
 40
0.5
 50
-90.0
 51
-0.0
  0
LINE
  8
0
 62
0
 10
78.0315
 20
21.8336
 30
0.0
 11
65.0322
 21
21.8336
 31
0.0
  0
ARC
  8
0
 62
0
 10
65.0322
 20
22.3336
 30
0.0
 40
0.5
 50
-180.0
 51
-90.0
  0
LINE
  8
0
 62
0
 10
64.5322
 20
22.3336
 30
0.0
 11
64.5322
 21
35.333
 31
0.0
  0
ARC
  8
0
 62
0
 10
65.0322
 20
35.333
 30
0.0
 40
0.5
 50
90.0
 51
-180.0
  0
LINE
  8
0
 62
0
 10
65.0322
 20
35.833
 30
0.0
 11
78.0315
 21
35.833
 31
0.0
  0
ARC
  8
0
 62
0
 10
78.0315
 20
35.333
 30
0.0
 40
0.5
 50
-0.0
 51
90.0
  0
LINE
  8
0
 62
0
 10
160.282
 20
35.833
 30
0.0
 11
173.282
 21
35.833
 31
0.0
  0
ARC
  8
0
 62
0
 10
173.282
 20
35.333
 30
0.0
 40
0.5
 50
-0.0
 51
90.0
  0
LINE
  8
0
 62
0
 10
173.782
 20
35.333
 30
0.0
 11
173.782
 21
22.3336
 31
0.0
  0
ARC
  8
0
 62
0
 10
173.282
 20
22.3336
 30
0.0
 40
0.5
 50
-90.0
 51
-0.0
  0
LINE
  8
0
 62
0
 10
173.282
 20
21.8336
 30
0.0
 11
160.282
 21
21.8336
 31
0.0
  0
ARC
  8
0
 62
0
 10
160.282
 20
22.3336
 30
0.0
 40
0.5
 50
-180.0
 51
-90.0
  0
LINE
  8
0
 62
0
 10
159.782
 20
22.3336
 30
0.0
 11
159.782
 21
35.333
 31
0.0
  0
ARC
  8
0
 62
0
 10
160.282
 20
35.333
 30
0.0
 40
0.5
 50
90.0
 51
-180.0
  0
LINE
  8
0
 62
0
 10
122.182
 20
35.833
 30
0.0
 11
135.182
 21
35.833
 31
0.0
  0
ARC
  8
0
 62
0
 10
135.182
 20
35.333
 30
0.0
 40
0.5
 50
-0.0
 51
90.0
  0
LINE
  8
0
 62
0
 10
135.682
 20
35.333
 30
0.0
 11
135.682
 21
22.3336
 31
0.0
  0
ARC
  8
0
 62
0
 10
135.182
 20
22.3336
 30
0.0
 40
0.5
 50
-90.0
 51
-0.0
  0
LINE
  8
0
 62
0
 10
135.182
 20
21.8336
 30
0.0
 11
122.182
 21
21.8336
 31
0.0
  0
ARC
  8
0
 62
0
 10
122.182
 20
22.3336
 30
0.0
 40
0.5
 50
-180.0
 51
-90.0
  0
LINE
  8
0
 62
0
 10
121.682
 20
22.3336
 30
0.0
 11
121.682
 21
35.333
 31
0.0
  0
ARC
  8
0
 62
0
 10
122.182
 20
35.333
 30
0.0
 40
0.5
 50
90.0
 51
-180.0
  0
LINE
  8
0
 62
0
 10
198.382
 20
35.833
 30
0.0
 11
211.382
 21
35.833
 31
0.0
  0
ARC
  8
0
 62
0
 10
211.382
 20
35.333
 30
0.0
 40
0.5
 50
-0.0
 51
90.0
  0
LINE
  8
0
 62
0
 10
211.882
 20
35.333
 30
0.0
 11
211.882
 21
22.3336
 31
0.0
  0
ARC
  8
0
 62
0
 10
211.382
 20
22.3336
 30
0.0
 40
0.5
 50
-90.0
 51
-0.0
  0
LINE
  8
0
 62
0
 10
211.382
 20
21.8336
 30
0.0
 11
198.382
 21
21.8336
 31
0.0
  0
ARC
  8
0
 62
0
 10
198.382
 20
22.3336
 30
0.0
 40
0.5
 50
-180.0
 51
-90.0
  0
LINE
  8
0
 62
0
 10
197.882
 20
22.3336
 30
0.0
 11
197.882
 21
35.333
 31
0.0
  0
ARC
  8
0
 62
0
 10
198.382
 20
35.333
 30
0.0
 40
0.5
 50
90.0
 51
-180.0
  0
LINE
  8
0
 62
0
 10
103.132
 20
35.833
 30
0.0
 11
116.132
 21
35.833
 31
0.0
  0
ARC
  8
0
 62
0
 10
116.132
 20
35.333
 30
0.0
 40
0.5
 50
-0.0
 51
90.0
  0
LINE
  8
0
 62
0
 10
116.632
 20
35.333
 30
0.0
 11
116.632
 21
22.3336
 31
0.0
  0
ARC
  8
0
 62
0
 10
116.132
 20
22.3336
 30
0.0
 40
0.5
 50
-90.0
 51
-0.0
  0
LINE
  8
0
 62
0
 10
116.132
 20
21.8336
 30
0.0
 11
103.132
 21
21.8336
 31
0.0
  0
ARC
  8
0
 62
0
 10
103.132
 20
22.3336
 30
0.0
 40
0.5
 50
-180.0
 51
-90.0
  0
LINE
  8
0
 62
0
 10
102.632
 20
22.3336
 30
0.0
 11
102.632
 21
35.333
 31
0.0
  0
ARC
  8
0
 62
0
 10
103.132
 20
35.333
 30
0.0
 40
0.5
 50
90.0
 51
-180.0
  0
LINE
  8
0
 62
0
 10
217.432
 20
35.833
 30
0.0
 11
230.432
 21
35.833
 31
0.0
  0
ARC
  8
0
 62
0
 10
230.432
 20
35.333
 30
0.0
 40
0.5
 50
-0.0
 51
90.0
  0
LINE
  8
0
 62
0
 10
230.932
 20
35.333
 30
0.0
 11
230.932
 21
22.3336
 31
0.0
  0
ARC
  8
0
 62
0
 10
230.432
 20
22.3336
 30
0.0
 40
0.5
 50
-90.0
 51
-0.0
  0
LINE
  8
0
 62
0
 10
230.432
 20
21.8336
 30
0.0
 11
217.432
 21
21.8336
 31
0.0
  0
ARC
  8
0
 62
0
 10
217.432
 20
22.3336
 30
0.0
 40
0.5
 50
-180.0
 51
-90.0
  0
LINE
  8
0
 62
0
 10
216.932
 20
22.3336
 30
0.0
 11
216.932
 21
35.333
 31
0.0
  0
ARC
  8
0
 62
0
 10
217.432
 20
35.333
 30
0.0
 40
0.5
 50
90.0
 51
-180.0
  0
LINE
  8
0
 62
0
 10
179.332
 20
35.833
 30
0.0
 11
192.332
 21
35.833
 31
0.0
  0
ARC
  8
0
 62
0
 10
192.332
 20
35.333
 30
0.0
 40
0.5
 50
-0.0
 51
90.0
  0
LINE
  8
0
 62
0
 10
192.832
 20
35.333
 30
0.0
 11
192.832
 21
22.3336
 31
0.0
  0
ARC
  8
0
 62
0
 10
192.332
 20
22.3336
 30
0.0
 40
0.5
 50
-90.0
 51
-0.0
  0
LINE
  8
0
 62
0
 10
192.332
 20
21.8336
 30
0.0
 11
179.332
 21
21.8336
 31
0.0
  0
ARC
  8
0
 62
0
 10
179.332
 20
22.3336
 30
0.0
 40
0.5
 50
-180.0
 51
-90.0
  0
LINE
  8
0
 62
0
 10
178.832
 20
22.3336
 30
0.0
 11
178.832
 21
35.333
 31
0.0
  0
ARC
  8
0
 62
0
 10
179.332
 20
35.333
 30
0.0
 40
0.5
 50
90.0
 51
-180.0
  0
LINE
  8
0
 62
0
 10
83.5822
 20
22.3336
 30
0.0
 11
83.5822
 21
35.333
 31
0.0
  0
ARC
  8
0
 62
0
 10
84.0822
 20
35.333
 30
0.0
 40
0.5
 50
90.0
 51
-180.0
  0
LINE
  8
0
 62
0
 10
84.0822
 20
35.833
 30
0.0
 11
97.0815
 21
35.833
 31
0.0
  0
ARC
  8
0
 62
0
 10
97.0815
 20
35.333
 30
0.0
 40
0.5
 50
-0.0
 51
90.0
  0
LINE
  8
0
 62
0
 10
97.5815
 20
35.333
 30
0.0
 11
97.5815
 21
22.3336
 31
0.0
  0
ARC
  8
0
 62
0
 10
97.0815
 20
22.3336
 30
0.0
 40
0.5
 50
-90.0
 51
-0.0
  0
LINE
  8
0
 62
0
 10
97.0815
 20
21.8336
 30
0.0
 11
84.0822
 21
21.8336
 31
0.0
  0
ARC
  8
0
 62
0
 10
84.0822
 20
22.3336
 30
0.0
 40
0.5
 50
-180.0
 51
-90.0
  0
LINE
  8
0
 62
0
 10
141.232
 20
35.833
 30
0.0
 11
154.232
 21
35.833
 31
0.0
  0
ARC
  8
0
 62
0
 10
154.232
 20
35.333
 30
0.0
 40
0.5
 50
-0.0
 51
90.0
  0
LINE
  8
0
 62
0
 10
154.732
 20
35.333
 30
0.0
 11
154.732
 21
22.3336
 31
0.0
  0
ARC
  8
0
 62
0
 10
154.232
 20
22.3336
 30
0.0
 40
0.5
 50
-90.0
 51
-0.0
  0
LINE
  8
0
 62
0
 10
154.232
 20
21.8336
 30
0.0
 11
141.232
 21
21.8336
 31
0.0
  0
ARC
  8
0
 62
0
 10
141.232
 20
22.3336
 30
0.0
 40
0.5
 50
-180.0
 51
-90.0
  0
LINE
  8
0
 62
0
 10
140.732
 20
22.3336
 30
0.0
 11
140.732
 21
35.333
 31
0.0
  0
ARC
  8
0
 62
0
 10
141.232
 20
35.333
 30
0.0
 40
0.5
 50
90.0
 51
-180.0
  0
LINE
  8
0
 62
0
 10
264.557
 20
3.28364
 30
0.0
 11
264.557
 21
16.2831
 31
0.0
  0
ARC
  8
0
 62
0
 10
265.057
 20
16.2831
 30
0.0
 40
0.5
 50
90.0
 51
-180.0
  0
LINE
  8
0
 62
0
 10
265.057
 20
16.7831
 30
0.0
 11
280.438
 21
16.7831
 31
0.0
  0
ARC
  8
0
 62
0
 10
280.438
 20
16.2831
 30
0.0
 40
0.5
 50
-0.0
 51
90.0
  0
LINE
  8
0
 62
0
 10
280.938
 20
16.2831
 30
0.0
 11
280.938
 21
3.28364
 31
0.0
  0
ARC
  8
0
 62
0
 10
280.438
 20
3.28364
 30
0.0
 40
0.5
 50
-90.0
 51
-0.0
  0
LINE
  8
0
 62
0
 10
280.438
 20
2.78364
 30
0.0
 11
265.057
 21
2.7836399999999997
 31
0.0
  0
ARC
  8
0
 62
0
 10
265.057
 20
3.28364
 30
0.0
 40
0.5
 50
180.0
 51
-90.0
  0
LINE
  8
0
 62
0
 10
217.432
 20
16.7831
 30
0.0
 11
232.813
 21
16.7831
 31
0.0
  0
ARC
  8
0
 62
0
 10
232.813
 20
16.2831
 30
0.0
 40
0.5
 50
-0.0
 51
90.0
  0
LINE
  8
0
 62
0
 10
233.313
 20
16.2831
 30
0.0
 11
233.313
 21
3.28364
 31
0.0
  0
ARC
  8
0
 62
0
 10
232.813
 20
3.28364
 30
0.0
 40
0.5
 50
-90.0
 51
-0.0
  0
LINE
  8
0
 62
0
 10
232.813
 20
2.78364
 30
0.0
 11
217.432
 21
2.7836399999999997
 31
0.0
  0
ARC
  8
0
 62
0
 10
217.432
 20
3.28364
 30
0.0
 40
0.5
 50
-180.0
 51
-90.0
  0
LINE
  8
0
 62
0
 10
216.932
 20
3.28364
 30
0.0
 11
216.932
 21
16.2831
 31
0.0
  0
ARC
  8
0
 62
0
 10
217.432
 20
16.2831
 30
0.0
 40
0.5
 50
90.0
 51
-180.0
  0
LINE
  8
0
 62
0
 10
52.626
 20
3.28364
 30
0.0
 11
52.626
 21
16.2831
 31
0.0
  0
ARC
  8
0
 62
0
 10
53.126
 20
16.2831
 30
0.0
 40
0.5
 50
90.0
 51
-180.0
  0
LINE
  8
0
 62
0
 10
53.126
 20
16.7831
 30
0.0
 11
68.5065
 21
16.7831
 31
0.0
  0
ARC
  8
0
 62
0
 10
68.5065
 20
16.2831
 30
0.0
 40
0.5
 50
-0.0
 51
90.0
  0
LINE
  8
0
 62
0
 10
69.0065
 20
16.2831
 30
0.0
 11
69.0065
 21
3.28364
 31
0.0
  0
ARC
  8
0
 62
0
 10
68.5065
 20
3.28364
 30
0.0
 40
0.5
 50
-90.0
 51
-0.0
  0
LINE
  8
0
 62
0
 10
68.5065
 20
2.78364
 30
0.0
 11
53.126
 21
2.7836399999999997
 31
0.0
  0
ARC
  8
0
 62
0
 10
53.126
 20
3.28364
 30
0.0
 40
0.5
 50
-180.0
 51
-90.0
  0
LINE
  8
0
 62
0
 10
20.8817
 20
2.78364
 30
0.0
 11
5.500910000000001
 21
2.7836399999999997
 31
0.0
  0
ARC
  8
0
 62
0
 10
5.50091
 20
3.28364
 30
0.0
 40
0.5
 50
-180.0
 51
-90.0
  0
LINE
  8
0
 62
0
 10
5.00091
 20
3.28364
 30
0.0
 11
5.00091
 21
16.2831
 31
0.0
  0
ARC
  8
0
 62
0
 10
5.50091
 20
16.2831
 30
0.0
 40
0.5
 50
90.0
 51
-180.0
  0
LINE
  8
0
 62
0
 10
5.50091
 20
16.7831
 30
0.0
 11
20.8817
 21
16.7831
 31
0.0
  0
ARC
  8
0
 62
0
 10
20.8817
 20
16.2831
 30
0.0
 40
0.5
 50
-0.0
 51
90.0
  0
LINE
  8
0
 62
0
 10
21.3817
 20
16.2831
 30
0.0
 11
21.3817
 21
3.28364
 31
0.0
  0
ARC
  8
0
 62
0
 10
20.8817
 20
3.28364
 30
0.0
 40
0.5
 50
-90.0
 51
-0.0
  0
LINE
  8
0
 62
0
 10
29.312
 20
16.7831
 30
0.0
 11
44.694
 21
16.7831
 31
0.0
  0
ARC
  8
0
 62
0
 10
44.694
 20
16.2831
 30
0.0
 40
0.5
 50
-0.0
 51
90.0
  0
LINE
  8
0
 62
0
 10
45.194
 20
16.2831
 30
0.0
 11
45.194
 21
3.28364
 31
0.0
  0
ARC
  8
0
 62
0
 10
44.694
 20
3.28364
 30
0.0
 40
0.5
 50
-90.0
 51
-0.0
  0
LINE
  8
0
 62
0
 10
44.694
 20
2.78364
 30
0.0
 11
29.312
 21
2.78364
 31
0.0
  0
ARC
  8
0
 62
0
 10
29.312
 20
3.28364
 30
0.0
 40
0.5
 50
-180.0
 51
-90.0
  0
LINE
  8
0
 62
0
 10
28.812
 20
3.28364
 30
0.0
 11
28.812
 21
16.2831
 31
0.0
  0
ARC
  8
0
 62
0
 10
29.312
 20
16.2831
 30
0.0
 40
0.5
 50
90.0
 51
-180.0
  0
LINE
  8
0
 62
0
 10
240.745
 20
3.28364
 30
0.0
 11
240.745
 21
16.2831
 31
0.0
  0
ARC
  8
0
 62
0
 10
241.245
 20
16.2831
 30
0.0
 40
0.5
 50
90.0
 51
-180.0
  0
LINE
  8
0
 62
0
 10
241.245
 20
16.7831
 30
0.0
 11
256.625
 21
16.7831
 31
0.0
  0
ARC
  8
0
 62
0
 10
256.625
 20
16.2831
 30
0.0
 40
0.5
 50
-0.0
 51
90.0
  0
LINE
  8
0
 62
0
 10
257.125
 20
16.2831
 30
0.0
 11
257.125
 21
3.28364
 31
0.0
  0
ARC
  8
0
 62
0
 10
256.625
 20
3.28364
 30
0.0
 40
0.5
 50
-90.0
 51
-0.0
  0
LINE
  8
0
 62
0
 10
256.625
 20
2.78364
 30
0.0
 11
241.245
 21
2.7836399999999997
 31
0.0
  0
ARC
  8
0
 62
0
 10
241.245
 20
3.28364
 30
0.0
 40
0.5
 50
-180.0
 51
-90.0
  0
LINE
  8
0
 62
0
 10
23.7629
 20
54.3831
 30
0.0
 11
23.7629
 21
41.3838
 31
0.0
  0
ARC
  8
0
 62
0
 10
23.2629
 20
41.3838
 30
0.0
 40
0.5
 50
-90.0
 51
-0.0
  0
LINE
  8
0
 62
0
 10
23.2629
 20
40.8838
 30
0.0
 11
5.827440612244899
 21
40.883799999999994
 31
0.0
  0
ARC
  8
0
 62
0
 10
5.8274406122449
 20
41.3838
 30
0.0
 40
0.5
 50
-180.0
 51
-90.0
  0
LINE
  8
0
 62
0
 10
5.3274406122449
 20
41.3838
 30
0.0
 11
5.3274406122449
 21
54.3831
 31
0.0
  0
ARC
  8
0
 62
0
 10
5.8274406122449
 20
54.3831
 30
0.0
 40
0.5
 50
90.0
 51
-180.0
  0
LINE
  8
0
 62
0
 10
5.8274406122449
 20
54.8831
 30
0.0
 11
23.2629
 21
54.8831
 31
0.0
  0
ARC
  8
0
 62
0
 10
23.2629
 20
54.3831
 30
0.0
 40
0.5
 50
-0.0
 51
90.0
  0
LINE
  8
0
 62
0
 10
23.3817
 20
73.9331
 30
0.0
 11
23.8817
 21
73.9331
 31
0.0
  0
ARC
  8
0
 62
0
 10
23.8817
 20
73.4331
 30
0.0
 40
0.5
 50
-0.0
 51
90.0
  0
LINE
  8
0
 62
0
 10
24.3817
 20
73.4331
 30
0.0
 11
24.3817
 21
60.4338
 31
0.0
  0
ARC
  8
0
 62
0
 10
23.8817
 20
60.4338
 30
0.0
 40
0.5
 50
-90.0
 51
-0.0
  0
LINE
  8
0
 62
0
 10
23.8817
 20
59.9338
 30
0.0
 11
23.3817
 21
59.9338
 31
0.0
  0
ARC
  8
0
 62
0
 10
23.3817
 20
60.4338
 30
0.0
 40
0.5
 50
-180.0
 51
-90.0
  0
LINE
  8
0
 62
0
 10
22.8817
 20
60.4338
 30
0.0
 11
22.8817
 21
73.4331
 31
0.0
  0
ARC
  8
0
 62
0
 10
23.3817
 20
73.4331
 30
0.0
 40
0.5
 50
90.0
 51
-180.0
  0
LINE
  8
0
 62
0
 10
278.557
 20
73.4331
 30
0.0
 11
278.557
 21
60.4338
 31
0.0
  0
ARC
  8
0
 62
0
 10
278.057
 20
60.4338
 30
0.0
 40
0.5
 50
-90.0
 51
-0.0
  0
LINE
  8
0
 62
0
 10
278.057
 20
59.9338
 30
0.0
 11
265.057
 21
59.9338
 31
0.0
  0
ARC
  8
0
 62
0
 10
265.057
 20
60.4338
 30
0.0
 40
0.5
 50
-180.0
 51
-90.0
  0
LINE
  8
0
 62
0
 10
264.557
 20
60.4338
 30
0.0
 11
264.557
 21
73.4331
 31
0.0
  0
ARC
  8
0
 62
0
 10
265.057
 20
73.4331
 30
0.0
 40
0.5
 50
90.0
 51
-180.0
  0
LINE
  8
0
 62
0
 10
265.057
 20
73.9331
 30
0.0
 11
278.057
 21
73.9331
 31
0.0
  0
ARC
  8
0
 62
0
 10
278.057
 20
73.4331
 30
0.0
 40
0.5
 50
-0.0
 51
90.0
  0
CIRCLE
  8
0
 62
0
 10
92.0520629539867
 20
97.7435914725014
 30
0.0
 40
0.999999999999996
  0
CIRCLE
  8
0
 62
0
 10
16.0885780825242
 20
97.7398941346702
 30
0.0
 40
1.0
  0
CIRCLE
  8
0
 62
0
 10
92.0520629539867
 20
-1.97839847250142
 30
0.0
 40
0.999999999999996
  0
CIRCLE
  8
0
 62
0
 10
16.0885780825242
 20
-1.97470113467023
 30
0.0
 40
1.0
  0
ARC
  8
0
 62
0
 10
202.237511197199
 20
17.28307
 30
0.0
 40
0.5
 50
-165.58342952879423
 51
-90.0
  0
LINE
  8
0
 62
0
 10
202.237511197199
 20
16.78307
 30
0.0
 11
209.0
 21
16.78307
 31
0.0
  0
ARC
  8
0
 62
0
 10
209.0
 20
16.28307
 30
0.0
 40
0.5
 50
-0.0
 51
90.0
  0
LINE
  8
0
 62
0
 10
209.5
 20
16.28307
 30
0.0
 11
209.5
 21
3.28361
 31
0.0
  0
ARC
  8
0
 62
0
 10
209.0
 20
3.28361
 30
0.0
 40
0.5
 50
-90.0
 51
-0.0
  0
LINE
  8
0
 62
0
 10
209.0
 20
2.78361
 30
0.0
 11
196.001
 21
2.78361
 31
0.0
  0
ARC
  8
0
 62
0
 10
196.001
 20
3.28361
 30
0.0
 40
0.5
 50
-180.0
 51
-90.0
  0
LINE
  8
0
 62
0
 10
195.501
 20
3.2836099999999995
 30
0.0
 11
195.501
 21
16.28307
 31
0.0
  0
ARC
  8
0
 62
0
 10
196.001
 20
16.28307
 30
0.0
 40
0.5
 50
90.0
 51
-180.0
  0
LINE
  8
0
 62
0
 10
196.001
 20
16.78307
 30
0.0
 11
197.969
 21
16.78307
 31
0.0
  0
ARC
  8
0
 62
0
 10
197.969
 20
17.28307
 30
0.0
 40
0.5
 50
-90.0
 51
-14.416570471177792
  0
ARC
  8
0
 62
0
 10
198.937511197199
 20
17.0341
 30
0.0
 40
0.5
 50
90.0
 51
165.58342952879343
  0
LINE
  8
0
 62
0
 10
198.937511197199
 20
17.5341
 30
0.0
 11
201.269
 21
17.5341
 31
0.0
  0
ARC
  8
0
 62
0
 10
201.269
 20
17.0341
 30
0.0
 40
0.5
 50
14.41657047117856
 51
90.0
  0
ENDBLK
  0
ENDSEC
  0
SECTION
  2
ENTITIES
  0
INSERT
  2
PART__FEATURE
  8
0
 62
0
 10
0.0
 20
0.0
 30
0.0
  0
ENDSEC
  0
EOF
