999
"DXF R12 Output" (www.mydxf.blogspot.com)
 0 
SECTION
 2 
HEADER
 9 
$ACADVER
 1 
AC1009
 9 
$EXTMIN
 10 
 0 
 20 
 0 
 9 
$EXTMAX
 10 
 8.5 
 20 
 11 
 0 
ENDSEC
 0 
SECTION
 2 
ENTITIES
0
LINE
8
Layer 1
10
5.888130
20
74.393800
11
5.024747
21
74.393800
0
LINE
8
Layer 1
10
5.024747
20
74.393800
11
4.978078
21
74.580478
0
LINE
8
Layer 1
10
4.978078
20
74.580478
11
6.763178
21
74.697151
0
LINE
8
Layer 1
10
6.763178
20
74.697151
11
6.891519
21
74.487139
0
LINE
8
Layer 1
10
6.891519
20
74.487139
11
6.809847
21
74.463805
0
LINE
8
Layer 1
10
6.809847
20
74.463805
11
6.121474
21
74.417136
0
LINE
8
Layer 1
10
6.121474
20
74.417136
11
6.121470
21
74.230500
0
LINE
8
Layer 1
10
6.121470
20
74.230500
11
7.253210
21
74.230500
0
LINE
8
Layer 1
10
7.253210
20
74.230500
11
7.253210
21
74.043800
0
LINE
8
Layer 1
10
7.253210
20
74.043800
11
6.121470
21
74.043800
0
LINE
8
Layer 1
10
6.121470
20
74.043800
11
6.121470
21
73.868800
0
LINE
8
Layer 1
10
6.121470
20
73.868800
11
6.914850
21
73.868800
0
LINE
8
Layer 1
10
6.914850
20
73.868800
11
6.914850
21
72.970400
0
LINE
8
Layer 1
10
6.914850
20
72.970400
11
6.121470
21
72.970400
0
LINE
8
Layer 1
10
6.121470
20
72.970400
11
6.121470
21
72.760400
0
LINE
8
Layer 1
10
6.121470
20
72.760400
11
6.996520
21
72.760400
0
LINE
8
Layer 1
10
6.996520
20
72.760400
11
6.996520
21
72.573700
0
LINE
8
Layer 1
10
6.996520
20
72.573700
11
6.121470
21
72.573700
0
LINE
8
Layer 1
10
6.121470
20
72.573700
11
6.121470
21
72.340400
0
LINE
8
Layer 1
10
6.121470
20
72.340400
11
7.288210
21
72.340400
0
LINE
8
Layer 1
10
7.288210
20
72.340400
11
7.288210
21
72.153700
0
LINE
8
Layer 1
10
7.288210
20
72.153700
11
4.698060
21
72.153700
0
LINE
8
Layer 1
10
4.698060
20
72.153700
11
4.698060
21
72.340400
0
LINE
8
Layer 1
10
4.698060
20
72.340400
11
5.888130
21
72.340400
0
LINE
8
Layer 1
10
5.888130
20
72.340400
11
5.888130
21
72.573700
0
LINE
8
Layer 1
10
5.888130
20
72.573700
11
4.989740
21
72.573700
0
LINE
8
Layer 1
10
4.989740
20
72.573700
11
4.989740
21
72.760400
0
LINE
8
Layer 1
10
4.989740
20
72.760400
11
5.888130
21
72.760400
0
LINE
8
Layer 1
10
5.888130
20
72.760400
11
5.888130
21
72.970400
0
LINE
8
Layer 1
10
5.888130
20
72.970400
11
5.491440
21
72.970400
0
LINE
8
Layer 1
10
5.491440
20
72.970400
11
5.106410
21
72.970400
0
LINE
8
Layer 1
10
5.106410
20
72.970400
11
5.106410
21
73.868800
0
LINE
8
Layer 1
10
5.106410
20
73.868800
11
5.888130
21
73.868800
0
LINE
8
Layer 1
10
5.888130
20
73.868800
11
5.888130
21
74.043800
0
LINE
8
Layer 1
10
5.888130
20
74.043800
11
4.744730
21
74.043800
0
LINE
8
Layer 1
10
4.744730
20
74.043800
11
4.744730
21
74.230500
0
LINE
8
Layer 1
10
4.744730
20
74.230500
11
5.888130
21
74.230500
0
LINE
8
Layer 1
10
5.888130
20
74.230500
11
5.888130
21
74.393800
0
LINE
8
Layer 1
10
5.304763
20
73.495415
11
5.888130
21
73.495400
0
LINE
8
Layer 1
10
5.888130
20
73.495400
11
5.888130
21
73.682100
0
LINE
8
Layer 1
10
5.888130
20
73.682100
11
5.304760
21
73.682100
0
LINE
8
Layer 1
10
5.304760
20
73.682100
11
5.304763
21
73.495415
0
LINE
8
Layer 1
10
5.304763
20
73.157062
11
6.471490
21
74.055500
0
LINE
8
Layer 1
10
6.471490
20
74.055500
11
6.471490
21
74.253800
0
LINE
8
Layer 1
10
6.471490
20
74.253800
11
5.888130
21
74.253800
0
LINE
8
Layer 1
10
5.888130
20
74.253800
11
5.304763
21
73.157062
0
LINE
8
Layer 1
10
6.121477
20
73.495415
11
7.299880
21
74.732200
0
LINE
8
Layer 1
10
7.299880
20
74.732200
11
7.299880
21
74.918800
0
LINE
8
Layer 1
10
7.299880
20
74.918800
11
6.704840
21
74.918800
0
LINE
8
Layer 1
10
6.704840
20
74.918800
11
6.121477
21
73.495415
0
LINE
8
Layer 1
10
6.716512
20
73.157062
11
6.483160
21
74.253800
0
LINE
8
Layer 1
10
6.483160
20
74.253800
11
5.888130
21
74.253800
0
LINE
8
Layer 1
10
5.888130
20
74.253800
11
5.888130
21
74.055500
0
LINE
8
Layer 1
10
5.888130
20
74.055500
11
6.716512
21
73.157062
0
LINE
8
Layer 1
10
7.789900
20
72.398700
11
8.495774
21
72.909147
0
LINE
8
Layer 1
10
8.495774
20
72.909147
11
8.769957
21
73.810450
0
LINE
8
Layer 1
10
8.769957
20
73.810450
11
7.929910
21
73.810400
0
LINE
8
Layer 1
10
7.929910
20
73.810400
11
7.929910
21
74.067100
0
LINE
8
Layer 1
10
7.929910
20
74.067100
11
8.781630
21
74.067100
0
LINE
8
Layer 1
10
8.781630
20
74.067100
11
8.781630
21
74.662200
0
LINE
8
Layer 1
10
8.781630
20
74.662200
11
9.038310
21
74.662200
0
LINE
8
Layer 1
10
9.038310
20
74.662200
11
9.049977
21
74.568861
0
LINE
8
Layer 1
10
9.049977
20
74.568861
11
9.049980
21
74.067100
0
LINE
8
Layer 1
10
9.049980
20
74.067100
11
10.076700
21
74.067100
0
LINE
8
Layer 1
10
10.076700
20
74.067100
11
10.030031
21
72.667020
0
LINE
8
Layer 1
10
10.030031
20
72.667020
11
9.930859
21
72.316999
0
LINE
8
Layer 1
10
9.930859
20
72.316999
11
9.680011
21
72.200326
0
LINE
8
Layer 1
10
9.680011
20
72.200326
11
9.213320
21
72.200400
0
LINE
8
Layer 1
10
9.213320
20
72.200400
11
9.166650
21
72.457000
0
LINE
8
Layer 1
10
9.166650
20
72.457000
11
9.563340
21
72.457000
0
LINE
8
Layer 1
10
9.563340
20
72.457000
11
9.761685
21
72.643677
0
LINE
8
Layer 1
10
9.761685
20
72.643677
11
9.808354
21
73.810407
0
LINE
8
Layer 1
10
9.808354
20
73.810407
11
9.038310
21
73.810400
0
LINE
8
Layer 1
10
9.038310
20
73.810400
11
8.968306
21
73.232139
0
LINE
8
Layer 1
10
8.968306
20
73.232139
11
8.758295
21
72.757425
0
LINE
8
Layer 1
10
8.758295
20
72.757425
11
8.408276
21
72.386259
0
LINE
8
Layer 1
10
8.408276
20
72.386259
11
7.918250
21
72.118640
0
LINE
8
Layer 1
10
7.918250
20
72.118640
11
7.789900
21
72.398700
0
LINE
8
Layer 1
10
10.940100
20
73.903800
11
10.823427
21
73.448773
0
LINE
8
Layer 1
10
10.823427
20
73.448773
11
10.613415
21
73.542112
0
LINE
8
Layer 1
10
10.613415
20
73.542112
11
10.788425
21
74.475499
0
LINE
8
Layer 1
10
10.788425
20
74.475499
11
11.010104
21
74.452165
0
LINE
8
Layer 1
10
11.010104
20
74.452165
11
11.010104
21
74.393828
0
LINE
8
Layer 1
10
11.010104
20
74.393828
11
10.986770
21
74.160481
0
LINE
8
Layer 1
10
10.986770
20
74.160481
11
11.150100
21
74.160500
0
LINE
8
Layer 1
10
11.150100
20
74.160500
11
11.150100
21
74.732200
0
LINE
8
Layer 1
10
11.150100
20
74.732200
11
11.371800
21
74.732200
0
LINE
8
Layer 1
10
11.371800
20
74.732200
11
11.383467
21
74.662196
0
LINE
8
Layer 1
10
11.383467
20
74.662196
11
11.383400
21
74.160500
0
LINE
8
Layer 1
10
11.383400
20
74.160500
11
11.675100
21
74.160500
0
LINE
8
Layer 1
10
11.675100
20
74.160500
11
11.675100
21
73.903800
0
LINE
8
Layer 1
10
11.675100
20
73.903800
11
11.383400
21
73.903800
0
LINE
8
Layer 1
10
11.383400
20
73.903800
11
11.383400
21
73.367100
0
LINE
8
Layer 1
10
11.383400
20
73.367100
11
11.628414
21
73.448771
0
LINE
8
Layer 1
10
11.628414
20
73.448771
11
11.675083
21
73.227092
0
LINE
8
Layer 1
10
11.675083
20
73.227092
11
11.383400
21
73.110419
0
LINE
8
Layer 1
10
11.383400
20
73.110419
11
11.383400
21
72.060300
0
LINE
8
Layer 1
10
11.383400
20
72.060300
11
11.150100
21
72.060300
0
LINE
8
Layer 1
10
11.150100
20
72.060300
11
11.150100
21
73.005400
0
LINE
8
Layer 1
10
11.150100
20
73.005400
11
10.811747
21
72.877059
0
LINE
8
Layer 1
10
10.811747
20
72.877059
11
10.753410
21
72.842057
0
LINE
8
Layer 1
10
10.753410
20
72.842057
11
10.671739
21
73.110406
0
LINE
8
Layer 1
10
10.671739
20
73.110406
11
11.150100
21
73.262081
0
LINE
8
Layer 1
10
11.150100
20
73.262081
11
11.150100
21
73.903800
0
LINE
8
Layer 1
10
11.150100
20
73.903800
11
10.940100
21
73.903800
0
LINE
8
Layer 1
10
12.188510
20
72.422050
11
11.873492
21
72.772070
0
LINE
8
Layer 1
10
11.873492
20
72.772070
11
12.060170
21
72.923746
0
LINE
8
Layer 1
10
12.060170
20
72.923746
11
12.386856
21
72.597060
0
LINE
8
Layer 1
10
12.386856
20
72.597060
11
12.188510
21
72.422050
0
LINE
8
Layer 1
10
12.550198
20
74.732180
11
12.561865
21
74.662176
0
LINE
8
Layer 1
10
12.561865
20
74.662176
11
11.313400
21
75.805600
0
LINE
8
Layer 1
10
11.313400
20
75.805600
11
11.873500
21
75.805600
0
LINE
8
Layer 1
10
11.873500
20
75.805600
11
11.873500
21
75.583900
0
LINE
8
Layer 1
10
11.873500
20
75.583900
11
11.313400
21
75.583900
0
LINE
8
Layer 1
10
11.313400
20
75.583900
11
11.313400
21
75.233900
0
LINE
8
Layer 1
10
11.313400
20
75.233900
11
12.048500
21
75.233900
0
LINE
8
Layer 1
10
12.048500
20
75.233900
11
12.048500
21
75.012200
0
LINE
8
Layer 1
10
12.048500
20
75.012200
11
11.640100
21
75.012200
0
LINE
8
Layer 1
10
11.640100
20
75.012200
11
11.640100
21
74.708800
0
LINE
8
Layer 1
10
11.640100
20
74.708800
11
11.990100
21
74.708800
0
LINE
8
Layer 1
10
11.990100
20
74.708800
11
11.990100
21
74.487200
0
LINE
8
Layer 1
10
11.990100
20
74.487200
11
11.640100
21
74.487200
0
LINE
8
Layer 1
10
11.640100
20
74.487200
11
11.640100
21
73.728800
0
LINE
8
Layer 1
10
11.640100
20
73.728800
11
11.488424
21
73.565457
0
LINE
8
Layer 1
10
11.488424
20
73.565457
11
12.468500
21
73.565400
0
LINE
8
Layer 1
10
12.468500
20
73.565400
11
12.433498
21
73.787079
0
LINE
8
Layer 1
10
12.433498
20
73.787079
11
12.608500
21
73.787100
0
LINE
8
Layer 1
10
12.608500
20
73.787100
11
12.655169
21
73.833769
0
LINE
8
Layer 1
10
12.655169
20
73.833769
11
12.655200
21
74.487200
0
LINE
8
Layer 1
10
12.655200
20
74.487200
11
11.768500
21
74.487200
0
LINE
8
Layer 1
10
11.768500
20
74.487200
11
11.768500
21
74.708800
0
LINE
8
Layer 1
10
11.768500
20
74.708800
11
12.655200
21
74.708800
0
LINE
8
Layer 1
10
12.655200
20
74.708800
11
12.655200
21
75.012200
0
LINE
8
Layer 1
10
12.655200
20
75.012200
11
11.675100
21
75.012200
0
LINE
8
Layer 1
10
11.675100
20
75.012200
11
11.675100
21
75.233900
0
LINE
8
Layer 1
10
11.675100
20
75.233900
11
12.328500
21
75.233900
0
LINE
8
Layer 1
10
12.328500
20
75.233900
11
12.328500
21
75.583900
0
LINE
8
Layer 1
10
12.328500
20
75.583900
11
11.803500
21
75.583900
0
LINE
8
Layer 1
10
11.803500
20
75.583900
11
11.803500
21
75.805600
0
LINE
8
Layer 1
10
11.803500
20
75.805600
11
12.328500
21
75.805600
0
LINE
8
Layer 1
10
12.328500
20
75.805600
11
12.328500
21
76.213900
0
LINE
8
Layer 1
10
12.328500
20
76.213900
11
12.550198
21
74.732180
0
LINE
8
Layer 1
10
14.673600
20
73.378800
11
15.187000
21
73.378800
0
LINE
8
Layer 1
10
15.187000
20
73.378800
11
15.187000
21
73.647100
0
LINE
8
Layer 1
10
15.187000
20
73.647100
11
14.673600
21
73.647100
0
LINE
8
Layer 1
10
14.673600
20
73.647100
11
14.673600
21
73.378800
0
LINE
8
Layer 1
10
15.420310
20
72.923774
11
16.295400
21
72.923700
0
LINE
8
Layer 1
10
16.295400
20
72.923700
11
16.295400
21
72.702000
0
LINE
8
Layer 1
10
16.295400
20
72.702000
11
13.576900
21
72.702000
0
LINE
8
Layer 1
10
13.576900
20
72.702000
11
13.576900
21
72.923700
0
LINE
8
Layer 1
10
13.576900
20
72.923700
11
14.440300
21
72.923700
0
LINE
8
Layer 1
10
14.440300
20
72.923700
11
14.440300
21
73.157100
0
LINE
8
Layer 1
10
14.440300
20
73.157100
11
13.845300
21
73.157100
0
LINE
8
Layer 1
10
13.845300
20
73.157100
11
13.845300
21
73.378800
0
LINE
8
Layer 1
10
13.845300
20
73.378800
11
14.440300
21
73.378800
0
LINE
8
Layer 1
10
14.440300
20
73.378800
11
14.440300
21
73.647100
0
LINE
8
Layer 1
10
14.440300
20
73.647100
11
14.125300
21
73.647100
0
LINE
8
Layer 1
10
14.125300
20
73.647100
11
14.125300
21
73.542100
0
LINE
8
Layer 1
10
14.125300
20
73.542100
11
13.891900
21
73.542100
0
LINE
8
Layer 1
10
13.891900
20
73.542100
11
13.891900
21
74.650500
0
LINE
8
Layer 1
10
13.891900
20
74.650500
11
15.957000
21
74.650500
0
LINE
8
Layer 1
10
15.957000
20
74.650500
11
15.957000
21
73.565400
0
LINE
8
Layer 1
10
15.957000
20
73.565400
11
15.723700
21
73.565400
0
LINE
8
Layer 1
10
15.723700
20
73.565400
11
15.723700
21
73.647100
0
LINE
8
Layer 1
10
15.723700
20
73.647100
11
15.420300
21
73.647100
0
LINE
8
Layer 1
10
15.420300
20
73.647100
11
15.420300
21
73.378800
0
LINE
8
Layer 1
10
15.420300
20
73.378800
11
16.027000
21
73.378800
0
LINE
8
Layer 1
10
16.027000
20
73.378800
11
16.027000
21
73.157100
0
LINE
8
Layer 1
10
16.027000
20
73.157100
11
15.420300
21
73.157100
0
LINE
8
Layer 1
10
15.420300
20
73.157100
11
15.420310
21
72.923774
0
LINE
8
Layer 1
10
14.696935
20
72.457080
11
13.810217
21
72.060390
0
LINE
8
Layer 1
10
13.810217
20
72.060390
11
13.670209
21
72.282069
0
LINE
8
Layer 1
10
13.670209
20
72.282069
11
14.591929
21
72.667091
0
LINE
8
Layer 1
10
14.591929
20
72.667091
11
14.743604
21
72.515416
0
LINE
8
Layer 1
10
14.743604
20
72.515416
11
14.696935
21
72.457079
0
LINE
8
Layer 1
10
14.696935
20
72.457079
11
14.696935
21
72.457080
0
LINE
8
Layer 1
10
16.155355
20
72.095392
11
15.186965
21
72.503749
0
LINE
8
Layer 1
10
15.186965
20
72.503749
11
15.396977
21
72.655424
0
LINE
8
Layer 1
10
15.396977
20
72.655424
11
16.260360
21
72.328738
0
LINE
8
Layer 1
10
16.260360
20
72.328738
11
16.155355
21
72.095392
0
LINE
8
Layer 1
10
14.673605
20
73.157122
11
13.191900
21
74.207100
0
LINE
8
Layer 1
10
13.191900
20
74.207100
11
13.705200
21
74.207100
0
LINE
8
Layer 1
10
13.705200
20
74.207100
11
13.705200
21
74.440500
0
LINE
8
Layer 1
10
13.705200
20
74.440500
11
14.673605
21
73.157122
0
LINE
8
Layer 1
10
15.723665
20
74.463862
11
15.035300
21
74.685500
0
LINE
8
Layer 1
10
15.035300
20
74.685500
11
15.035300
21
74.463800
0
LINE
8
Layer 1
10
15.035300
20
74.463800
11
15.723700
21
74.463800
0
LINE
8
Layer 1
10
15.723700
20
74.463800
11
15.723665
21
74.463862
0
LINE
8
Layer 1
10
15.723665
20
74.055505
11
13.985300
21
72.970400
0
LINE
8
Layer 1
10
13.985300
20
72.970400
11
13.985300
21
72.748700
0
LINE
8
Layer 1
10
13.985300
20
72.748700
11
14.673600
21
72.748700
0
LINE
8
Layer 1
10
14.673600
20
72.748700
11
15.723665
21
74.055505
0
LINE
8
Layer 1
10
14.125235
20
74.242182
11
13.751900
21
73.565400
0
LINE
8
Layer 1
10
13.751900
20
73.565400
11
13.751900
21
73.787100
0
LINE
8
Layer 1
10
13.751900
20
73.787100
11
13.075200
21
73.787100
0
LINE
8
Layer 1
10
13.075200
20
73.787100
11
14.125235
21
74.242182
0
LINE
8
Layer 1
10
14.801941
20
73.833825
11
15.350300
21
73.192100
0
LINE
8
Layer 1
10
15.350300
20
73.192100
11
14.673600
21
73.192100
0
LINE
8
Layer 1
10
14.673600
20
73.192100
11
14.673600
21
72.970400
0
LINE
8
Layer 1
10
14.673600
20
72.970400
11
14.801941
21
73.833825
0
LINE
8
Layer 1
10
18.757200
20
72.807100
11
19.177224
21
72.258735
0
LINE
8
Layer 1
10
19.177224
20
72.258735
11
18.897208
21
72.118727
0
LINE
8
Layer 1
10
18.897208
20
72.118727
11
18.547188
21
72.690427
0
LINE
8
Layer 1
10
18.547188
20
72.690427
11
18.757200
21
72.807100
0
LINE
8
Layer 1
10
18.220502
20
72.795433
11
18.453849
21
72.165397
0
LINE
8
Layer 1
10
18.453849
20
72.165397
11
18.162200
21
72.095300
0
LINE
8
Layer 1
10
18.162200
20
72.095300
11
17.987200
21
72.713700
0
LINE
8
Layer 1
10
17.987200
20
72.713700
11
18.220502
21
72.795433
0
LINE
8
Layer 1
10
16.680412
20
72.223733
11
17.018765
21
72.783765
0
LINE
8
Layer 1
10
17.018765
20
72.783765
11
17.263779
21
72.690426
0
LINE
8
Layer 1
10
17.263779
20
72.690426
11
16.937093
21
72.072057
0
LINE
8
Layer 1
10
16.937093
20
72.072057
11
16.680412
21
72.223733
0
LINE
8
Layer 1
10
17.695472
20
72.725429
11
17.765476
21
72.107060
0
LINE
8
Layer 1
10
17.765476
20
72.107060
11
17.485460
21
72.095393
0
LINE
8
Layer 1
10
17.485460
20
72.095393
11
17.450458
21
72.713762
0
LINE
8
Layer 1
10
17.450458
20
72.713762
11
17.695472
21
72.725429
0
LINE
8
Layer 1
10
18.605525
20
73.168788
11
19.667300
21
73.623800
0
LINE
8
Layer 1
10
19.667300
20
73.623800
11
17.298800
21
73.623800
0
LINE
8
Layer 1
10
17.298800
20
73.623800
11
17.298800
21
73.168700
0
LINE
8
Layer 1
10
17.298800
20
73.168700
11
18.605525
21
73.168788
0
LINE
8
Layer 1
10
17.987200
20
74.708800
11
17.998867
21
74.638796
0
LINE
8
Layer 1
10
17.998867
20
74.638796
11
17.998800
21
74.382100
0
LINE
8
Layer 1
10
17.998800
20
74.382100
11
18.978900
21
74.382100
0
LINE
8
Layer 1
10
18.978900
20
74.382100
11
18.978900
21
74.160500
0
LINE
8
Layer 1
10
18.978900
20
74.160500
11
17.998800
21
74.160500
0
LINE
8
Layer 1
10
17.998800
20
74.160500
11
17.998800
21
73.845400
0
LINE
8
Layer 1
10
17.998800
20
73.845400
11
18.873900
21
73.845400
0
LINE
8
Layer 1
10
18.873900
20
73.845400
11
18.873900
21
72.877100
0
LINE
8
Layer 1
10
18.873900
20
72.877100
11
18.605500
21
72.877100
0
LINE
8
Layer 1
10
18.605500
20
72.877100
11
18.605500
21
72.947100
0
LINE
8
Layer 1
10
18.605500
20
72.947100
11
17.298800
21
72.947100
0
LINE
8
Layer 1
10
17.298800
20
72.947100
11
17.298800
21
72.853700
0
LINE
8
Layer 1
10
17.298800
20
72.853700
11
17.030400
21
72.853700
0
LINE
8
Layer 1
10
17.030400
20
72.853700
11
17.030400
21
73.845400
0
LINE
8
Layer 1
10
17.030400
20
73.845400
11
17.730500
21
73.845400
0
LINE
8
Layer 1
10
17.730500
20
73.845400
11
17.730500
21
74.708800
0
LINE
8
Layer 1
10
17.730500
20
74.708800
11
17.987200
21
74.708800
 0 
ENDSEC
 0 
EOF