  0
SECTION
  2
HEADER
  9
$ACADVER
  1
AC1009
  9
$INSBASE
 10
0.0
 20
0.0
 30
0.0
  9
$EXTMIN
 10
0.0
 20
0.0
 30
0.0
  9
$EXTMAX
 10
0.0
 20
0.0
 30
0.0
  0
ENDSEC
  0
SECTION
  2
TABLES
  0
TABLE
  2
VPORT
 70
0
  0
ENDTAB
  0
TABLE
  2
LTYPE
 70
1
  0
LTYPE
  2
CONTINUOUS
 70
0
  3
Solid line
 72
65
 73
0
 40
0.0
  0
ENDTAB
  0
TABLE
  2
LAYER
 70
1
  0
LAYER
  2
0
 70
64
 62
7
  6
continuous
  0
ENDTAB
  0
TABLE
  2
STYLE
 70
1
  0
STYLE
  2
STANDARD
 70
0
 40
0
 41
1.0
 50
0.0
 71
0
 42
1
 3
ARIAL.TTF
 4

  0
ENDTAB
  0
TABLE
  2
VIEW
 70
0
  0
ENDTAB
  0
ENDSEC
  0
SECTION
  2
BLOCKS
  0
BLOCK
  8
0
  2
PART__FEATURE
 70
0
 10
0.0
 20
0.0
 30
0.0
  3
PART__FEATURE
  0
ARC
  8
0
 62
0
 10
281.845
 20
15.2831
 30
0.0
 40
4.0
 50
0.0
 51
90.0
  0
LINE
  8
0
 62
0
 10
281.845
 20
19.283099999999997
 30
0.0
 11
4.095084600000007
 21
19.28310000000001
 31
0.0
  0
ARC
  8
0
 62
0
 10
4.09508460000001
 20
15.2831
 30
0.0
 40
4.0
 50
90.00000000000004
 51
-180.0
  0
LINE
  8
0
 62
0
 10
285.845
 20
4.2576930000000175
 30
0.0
 11
285.845
 21
15.283100000000005
 31
0.0
  0
ARC
  8
0
 62
0
 10
281.845
 20
4.257693
 30
0.0
 40
4.0
 50
-90.0
 51
0.0
  0
LINE
  8
0
 62
0
 10
276.458
 20
0.257693
 30
0.0
 11
281.845
 21
0.257693
 31
0.0
  0
LINE
  8
0
 62
0
 10
0.09508459999999386
 20
15.2831
 30
0.0
 11
0.09508459999999301
 21
4.257693
 31
0.0
  0
ARC
  8
0
 62
0
 10
4.09508459999999
 20
4.257693
 30
0.0
 40
4.0
 50
-180.0
 51
-90.00000000000013
  0
LINE
  8
0
 62
0
 10
4.095084600000007
 20
0.257693
 30
0.0
 11
9.482084600000007
 21
0.257693
 31
0.0
  0
LINE
  8
0
 62
0
 10
9.4820846
 20
0.257693000000003
 30
0.0
 11
13.908335154460172
 21
-5.017307000000024
 31
0.0
  0
LINE
  8
0
 62
0
 10
13.9083351544602
 20
-5.017307
 30
0.0
 11
94.2318340455399
 21
-5.017307
 31
0.0
  0
LINE
  8
0
 62
0
 10
94.23183404553987
 20
-5.017306999999979
 30
0.0
 11
98.6580846
 21
0.257693000000003
 31
0.0
  0
LINE
  8
0
 62
0
 10
98.6580846
 20
0.257693
 30
0.0
 11
187.282
 21
0.257693
 31
0.0
  0
LINE
  8
0
 62
0
 10
187.282
 20
0.257693000000003
 30
0.0
 11
191.70825055446008
 21
-5.017306999999931
 31
0.0
  0
LINE
  8
0
 62
0
 10
191.70825055446
 20
-5.017307
 30
0.0
 11
272.03174944554
 21
-5.017307
 31
0.0
  0
LINE
  8
0
 62
0
 10
272.0317494455399
 20
-5.017306999999926
 30
0.0
 11
276.458
 21
0.257693000000003
 31
0.0
  0
CIRCLE
  8
0
 62
0
 10
193.888021646013
 20
-1.97839847250142
 30
0.0
 40
1.00000000000001
  0
CIRCLE
  8
0
 62
0
 10
269.851506517476
 20
-1.97470113467023
 30
0.0
 40
1.00000000000001
  0
LINE
  8
0
 62
0
 10
192.664163447735
 20
13.28337
 30
0.0
 11
192.664163447735
 21
6.28337
 31
0.0
  0
LINE
  8
0
 62
0
 10
192.664163447735
 20
6.28337
 30
0.0
 11
187.300353763552
 21
6.28337
 31
0.0
  0
LINE
  8
0
 62
0
 10
187.300353763552
 20
6.28337
 30
0.0
 11
187.300353763552
 21
13.28337
 31
0.0
  0
LINE
  8
0
 62
0
 10
187.300353763552
 20
13.28337
 30
0.0
 11
192.664163447735
 21
13.28337
 31
0.0
  0
LINE
  8
0
 62
0
 10
154.486459225019
 20
13.28337
 30
0.0
 11
173.25979311966
 21
13.28337
 31
0.0
  0
LINE
  8
0
 62
0
 10
173.25979311966
 20
13.28337
 30
0.0
 11
173.25979311966
 21
6.28337
 31
0.0
  0
LINE
  8
0
 62
0
 10
173.25979311966
 20
6.28337
 30
0.0
 11
154.486459225019
 21
6.28337
 31
0.0
  0
LINE
  8
0
 62
0
 10
154.486459225019
 20
6.28337
 30
0.0
 11
154.486459225019
 21
13.28337
 31
0.0
  0
LINE
  8
0
 62
0
 10
93.1181660736294
 20
13.28337
 30
0.0
 11
120.726010036337
 21
13.28337
 31
0.0
  0
LINE
  8
0
 62
0
 10
120.726010036337
 20
13.28337
 30
0.0
 11
120.726010036337
 21
6.28337
 31
0.0
  0
LINE
  8
0
 62
0
 10
120.726010036337
 20
6.28337
 30
0.0
 11
93.1181660736294
 21
6.28337
 31
0.0
  0
LINE
  8
0
 62
0
 10
93.1181660736294
 20
6.28337
 30
0.0
 11
93.1181660736294
 21
13.28337
 31
0.0
  0
LINE
  8
0
 62
0
 10
198.469
 20
16.78307
 30
0.0
 11
198.469
 21
17.5341
 31
0.0
  0
LINE
  8
0
 62
0
 10
198.469
 20
17.5341
 30
0.0
 11
201.769
 21
17.5341
 31
0.0
  0
LINE
  8
0
 62
0
 10
201.769
 20
17.5341
 30
0.0
 11
201.769
 21
16.78307
 31
0.0
  0
LINE
  8
0
 62
0
 10
201.769
 20
16.78307
 30
0.0
 11
209.5
 21
16.78307
 31
0.0
  0
LINE
  8
0
 62
0
 10
209.5
 20
16.78307
 30
0.0
 11
209.5
 21
2.78361
 31
0.0
  0
LINE
  8
0
 62
0
 10
209.5
 20
2.78361
 30
0.0
 11
195.501
 21
2.78361
 31
0.0
  0
LINE
  8
0
 62
0
 10
195.501
 20
2.7836099999999995
 30
0.0
 11
195.501
 21
16.78307
 31
0.0
  0
LINE
  8
0
 62
0
 10
195.501
 20
16.78307
 30
0.0
 11
198.469
 21
16.78307
 31
0.0
  0
LINE
  8
0
 62
0
 10
177.687
 20
17.5341
 30
0.0
 11
184.438
 21
17.5341
 31
0.0
  0
LINE
  8
0
 62
0
 10
184.438
 20
17.5341
 30
0.0
 11
184.438
 21
3.3320100000000004
 31
0.0
  0
LINE
  8
0
 62
0
 10
184.438
 20
3.33201
 30
0.0
 11
177.687
 21
3.33201
 31
0.0
  0
LINE
  8
0
 62
0
 10
177.687
 20
3.3320100000000004
 30
0.0
 11
177.687
 21
17.5341
 31
0.0
  0
LINE
  8
0
 62
0
 10
149.969
 20
16.7831
 30
0.0
 11
149.969
 21
2.78364
 31
0.0
  0
LINE
  8
0
 62
0
 10
149.969
 20
2.78364
 30
0.0
 11
124.062
 21
2.78364
 31
0.0
  0
LINE
  8
0
 62
0
 10
124.062
 20
2.78364
 30
0.0
 11
124.062
 21
16.7831
 31
0.0
  0
LINE
  8
0
 62
0
 10
124.062
 20
16.7831
 30
0.0
 11
149.969
 21
16.7831
 31
0.0
  0
LINE
  8
0
 62
0
 10
76.8629
 20
17.5341
 30
0.0
 11
89.1949
 21
17.5341
 31
0.0
  0
LINE
  8
0
 62
0
 10
89.1949
 20
17.5341
 30
0.0
 11
89.1949
 21
3.3320100000000004
 31
0.0
  0
LINE
  8
0
 62
0
 10
89.1949
 20
3.33201
 30
0.0
 11
76.8629
 21
3.33201
 31
0.0
  0
LINE
  8
0
 62
0
 10
76.8629
 20
3.3320100000000004
 30
0.0
 11
76.8629
 21
17.5341
 31
0.0
  0
LINE
  8
0
 62
0
 10
264.557
 20
2.78364
 30
0.0
 11
264.557
 21
16.7831
 31
0.0
  0
LINE
  8
0
 62
0
 10
264.557
 20
16.7831
 30
0.0
 11
280.938
 21
16.7831
 31
0.0
  0
LINE
  8
0
 62
0
 10
280.938
 20
16.7831
 30
0.0
 11
280.938
 21
2.78364
 31
0.0
  0
LINE
  8
0
 62
0
 10
280.938
 20
2.78364
 30
0.0
 11
264.557
 21
2.7836399999999997
 31
0.0
  0
LINE
  8
0
 62
0
 10
216.932
 20
16.7831
 30
0.0
 11
233.313
 21
16.7831
 31
0.0
  0
LINE
  8
0
 62
0
 10
233.313
 20
16.7831
 30
0.0
 11
233.313
 21
2.78364
 31
0.0
  0
LINE
  8
0
 62
0
 10
233.313
 20
2.78364
 30
0.0
 11
216.932
 21
2.7836399999999997
 31
0.0
  0
LINE
  8
0
 62
0
 10
216.932
 20
2.78364
 30
0.0
 11
216.932
 21
16.7831
 31
0.0
  0
LINE
  8
0
 62
0
 10
52.626
 20
2.78364
 30
0.0
 11
52.626
 21
16.7831
 31
0.0
  0
LINE
  8
0
 62
0
 10
52.626
 20
16.7831
 30
0.0
 11
69.0065
 21
16.7831
 31
0.0
  0
LINE
  8
0
 62
0
 10
69.0065
 20
16.7831
 30
0.0
 11
69.0065
 21
2.78364
 31
0.0
  0
LINE
  8
0
 62
0
 10
69.0065
 20
2.78364
 30
0.0
 11
52.626
 21
2.7836399999999997
 31
0.0
  0
LINE
  8
0
 62
0
 10
21.3817
 20
2.78364
 30
0.0
 11
5.000910000000001
 21
2.7836399999999997
 31
0.0
  0
LINE
  8
0
 62
0
 10
5.00091
 20
2.78364
 30
0.0
 11
5.00091
 21
16.7831
 31
0.0
  0
LINE
  8
0
 62
0
 10
5.00091
 20
16.7831
 30
0.0
 11
21.3817
 21
16.7831
 31
0.0
  0
LINE
  8
0
 62
0
 10
21.3817
 20
16.7831
 30
0.0
 11
21.3817
 21
2.78364
 31
0.0
  0
LINE
  8
0
 62
0
 10
28.812
 20
16.7831
 30
0.0
 11
45.194
 21
16.7831
 31
0.0
  0
LINE
  8
0
 62
0
 10
45.194
 20
16.7831
 30
0.0
 11
45.194
 21
2.78364
 31
0.0
  0
LINE
  8
0
 62
0
 10
45.194
 20
2.78364
 30
0.0
 11
28.812
 21
2.78364
 31
0.0
  0
LINE
  8
0
 62
0
 10
28.812
 20
2.78364
 30
0.0
 11
28.812
 21
16.7831
 31
0.0
  0
LINE
  8
0
 62
0
 10
240.745
 20
2.78364
 30
0.0
 11
240.745
 21
16.7831
 31
0.0
  0
LINE
  8
0
 62
0
 10
240.745
 20
16.7831
 30
0.0
 11
257.125
 21
16.7831
 31
0.0
  0
LINE
  8
0
 62
0
 10
257.125
 20
16.7831
 30
0.0
 11
257.125
 21
2.78364
 31
0.0
  0
LINE
  8
0
 62
0
 10
257.125
 20
2.78364
 30
0.0
 11
240.745
 21
2.7836399999999997
 31
0.0
  0
CIRCLE
  8
0
 62
0
 10
92.0520629539867
 20
-1.97839847250142
 30
0.0
 40
0.999999999999996
  0
CIRCLE
  8
0
 62
0
 10
16.0885780825242
 20
-1.97470113467023
 30
0.0
 40
1.0
  0
ENDBLK
  0
ENDSEC
  0
SECTION
  2
ENTITIES
  0
INSERT
  2
PART__FEATURE
  8
0
 62
0
 10
0.0
 20
0.0
 30
0.0
  0
ENDSEC
  0
EOF
