  0
SECTION
  2
HEADER
  9
$ACADVER
  1
AC1009
  9
$INSBASE
 10
0.0
 20
0.0
 30
0.0
  9
$EXTMIN
 10
0.0
 20
0.0
 30
0.0
  9
$EXTMAX
 10
0.0
 20
0.0
 30
0.0
  0
ENDSEC
  0
SECTION
  2
TABLES
  0
TABLE
  2
VPORT
 70
0
  0
ENDTAB
  0
TABLE
  2
LTYPE
 70
1
  0
LTYPE
  2
CONTINUOUS
 70
0
  3
Solid line
 72
65
 73
0
 40
0.0
  0
ENDTAB
  0
TABLE
  2
LAYER
 70
1
  0
LAYER
  2
0
 70
64
 62
7
  6
continuous
  0
ENDTAB
  0
TABLE
  2
STYLE
 70
1
  0
STYLE
  2
STANDARD
 70
0
 40
0
 41
1.0
 50
0.0
 71
0
 42
1
 3
ARIAL.TTF
 4

  0
ENDTAB
  0
TABLE
  2
VIEW
 70
0
  0
ENDTAB
  0
ENDSEC
  0
SECTION
  2
BLOCKS
  0
BLOCK
  8
0
  2
PART__FEATURE
 70
0
 10
0.0
 20
0.0
 30
0.0
  3
PART__FEATURE
  0
ARC
  8
0
 62
0
 10
92.0
 20
22.0
 30
0.0
 40
8.0
 50
-0.0
 51
90.0
  0
LINE
  8
0
 62
0
 10
100.0
 20
8.0
 30
0.0
 11
100.0
 21
22.0
 31
0.0
  0
LINE
  8
0
 62
0
 10
92.0
 20
30.0
 30
0.0
 11
8.000000000000014
 21
30.0
 31
0.0
  0
ARC
  8
0
 62
0
 10
8.0
 20
22.0
 30
0.0
 40
8.0
 50
89.99999999999993
 51
-180.0
  0
LINE
  8
0
 62
0
 10
0.0
 20
22.0
 30
0.0
 11
0.0
 21
8.0
 31
0.0
  0
ARC
  8
0
 62
0
 10
8.0
 20
8.0
 30
0.0
 40
8.0
 50
-180.0
 51
-90.0
  0
LINE
  8
0
 62
0
 10
8.0
 20
0.0
 30
0.0
 11
92.0
 21
0.0
 31
0.0
  0
ARC
  8
0
 62
0
 10
92.0
 20
8.0
 30
0.0
 40
8.0
 50
-90.0
 51
-0.0
  0
POLYLINE
  8
0
 62
0
 70
0
 66
1
 10
0.0
 20
0.0
 30
0.0
  0
VERTEX
  8
0
 10
7.6514383405447
 20
8.31514358520507
 30
0.0
  0
VERTEX
  8
0
 10
5.63643179833889
 20
9.9815821647644
 30
0.0
  0
SEQEND
  8
0
  0
POLYLINE
  8
0
 62
0
 70
0
 66
1
 10
0.0
 20
0.0
 30
0.0
  0
VERTEX
  8
0
 10
5.63643179833889
 20
9.9815821647644
 30
0.0
  0
VERTEX
  8
0
 10
4.86767314374447
 20
12.4979519844055
 30
0.0
  0
SEQEND
  8
0
  0
LINE
  8
0
 62
0
 10
4.867673143744469
 20
12.49795198440551
 30
0.0
 11
6.615285500884056
 21
12.65074968338012
 31
0.0
  0
POLYLINE
  8
0
 62
0
 70
0
 66
1
 10
0.0
 20
0.0
 30
0.0
  0
VERTEX
  8
0
 10
6.61528550088406
 20
12.6507496833801
 30
0.0
  0
VERTEX
  8
0
 10
7.19304762780666
 20
10.9270119667053
 30
0.0
  0
SEQEND
  8
0
  0
POLYLINE
  8
0
 62
0
 70
0
 66
1
 10
0.0
 20
0.0
 30
0.0
  0
VERTEX
  8
0
 10
7.19304762780666
 20
10.9270119667053
 30
0.0
  0
VERTEX
  8
0
 10
8.60164247453213
 20
9.8383355140686
 30
0.0
  0
SEQEND
  8
0
  0
POLYLINE
  8
0
 62
0
 70
0
 66
1
 10
0.0
 20
0.0
 30
0.0
  0
VERTEX
  8
0
 10
8.60164247453213
 20
9.8383355140686
 30
0.0
  0
VERTEX
  8
0
 10
10.7503470033407
 20
9.42291975021362
 30
0.0
  0
SEQEND
  8
0
  0
POLYLINE
  8
0
 62
0
 70
0
 66
1
 10
0.0
 20
0.0
 30
0.0
  0
VERTEX
  8
0
 10
10.7503470033407
 20
9.42291975021362
 30
0.0
  0
VERTEX
  8
0
 10
12.6221068948507
 20
9.73806142807006
 30
0.0
  0
SEQEND
  8
0
  0
POLYLINE
  8
0
 62
0
 70
0
 66
1
 10
0.0
 20
0.0
 30
0.0
  0
VERTEX
  8
0
 10
12.6221068948507
 20
9.73806142807006
 30
0.0
  0
VERTEX
  8
0
 10
13.8301559537649
 20
10.6023192405701
 30
0.0
  0
SEQEND
  8
0
  0
POLYLINE
  8
0
 62
0
 70
0
 66
1
 10
0.0
 20
0.0
 30
0.0
  0
VERTEX
  8
0
 10
13.8301559537649
 20
10.6023192405701
 30
0.0
  0
VERTEX
  8
0
 10
14.2264720052481
 20
11.8008184432983
 30
0.0
  0
SEQEND
  8
0
  0
POLYLINE
  8
0
 62
0
 70
0
 66
1
 10
0.0
 20
0.0
 30
0.0
  0
VERTEX
  8
0
 10
14.2264720052481
 20
11.8008184432983
 30
0.0
  0
VERTEX
  8
0
 10
13.8444813340902
 20
12.9515671730041
 30
0.0
  0
SEQEND
  8
0
  0
POLYLINE
  8
0
 62
0
 70
0
 66
1
 10
0.0
 20
0.0
 30
0.0
  0
VERTEX
  8
0
 10
13.8444813340902
 20
12.9515671730041
 30
0.0
  0
VERTEX
  8
0
 10
12.5839074701071
 20
13.7776255607605
 30
0.0
  0
SEQEND
  8
0
  0
POLYLINE
  8
0
 62
0
 70
0
 66
1
 10
0.0
 20
0.0
 30
0.0
  0
VERTEX
  8
0
 10
12.5839074701071
 20
13.7776255607605
 30
0.0
  0
VERTEX
  8
0
 10
10.0914105027914
 20
14.4604361057281
 30
0.0
  0
SEQEND
  8
0
  0
POLYLINE
  8
0
 62
0
 70
0
 66
1
 10
0.0
 20
0.0
 30
0.0
  0
VERTEX
  8
0
 10
10.0914105027914
 20
14.4604361057281
 30
0.0
  0
VERTEX
  8
0
 10
7.38881908357143
 20
15.3342425823212
 30
0.0
  0
SEQEND
  8
0
  0
POLYLINE
  8
0
 62
0
 70
0
 66
1
 10
0.0
 20
0.0
 30
0.0
  0
VERTEX
  8
0
 10
7.38881908357143
 20
15.3342425823212
 30
0.0
  0
VERTEX
  8
0
 10
5.89427553117275
 20
16.6377902030945
 30
0.0
  0
SEQEND
  8
0
  0
POLYLINE
  8
0
 62
0
 70
0
 66
1
 10
0.0
 20
0.0
 30
0.0
  0
VERTEX
  8
0
 10
5.89427553117275
 20
16.6377902030945
 30
0.0
  0
VERTEX
  8
0
 10
5.40246151387691
 20
18.3806264400482
 30
0.0
  0
SEQEND
  8
0
  0
POLYLINE
  8
0
 62
0
 70
0
 66
1
 10
0.0
 20
0.0
 30
0.0
  0
VERTEX
  8
0
 10
5.40246151387691
 20
18.3806264400482
 30
0.0
  0
VERTEX
  8
0
 10
6.00409828126431
 20
20.3622090816498
 30
0.0
  0
SEQEND
  8
0
  0
POLYLINE
  8
0
 62
0
 70
0
 66
1
 10
0.0
 20
0.0
 30
0.0
  0
VERTEX
  8
0
 10
6.00409828126431
 20
20.3622090816498
 30
0.0
  0
VERTEX
  8
0
 10
7.76126109063625
 20
21.7612540721893
 30
0.0
  0
SEQEND
  8
0
  0
POLYLINE
  8
0
 62
0
 70
0
 66
1
 10
0.0
 20
0.0
 30
0.0
  0
VERTEX
  8
0
 10
7.76126109063625
 20
21.7612540721893
 30
0.0
  0
VERTEX
  8
0
 10
10.3301557153463
 20
22.2387433052063
 30
0.0
  0
SEQEND
  8
0
  0
POLYLINE
  8
0
 62
0
 70
0
 66
1
 10
0.0
 20
0.0
 30
0.0
  0
VERTEX
  8
0
 10
10.3301557153463
 20
22.2387433052063
 30
0.0
  0
VERTEX
  8
0
 10
13.0757220834494
 20
21.7373788356781
 30
0.0
  0
SEQEND
  8
0
  0
POLYLINE
  8
0
 62
0
 70
0
 66
1
 10
0.0
 20
0.0
 30
0.0
  0
VERTEX
  8
0
 10
13.0757220834494
 20
21.7373788356781
 30
0.0
  0
VERTEX
  8
0
 10
14.9045070260763
 20
20.2619361877441
 30
0.0
  0
SEQEND
  8
0
  0
POLYLINE
  8
0
 62
0
 70
0
 66
1
 10
0.0
 20
0.0
 30
0.0
  0
VERTEX
  8
0
 10
14.9045070260763
 20
20.2619361877441
 30
0.0
  0
VERTEX
  8
0
 10
15.5920919030905
 20
18.055933713913
 30
0.0
  0
SEQEND
  8
0
  0
LINE
  8
0
 62
0
 10
15.592091903090498
 20
18.055933713913006
 30
0.0
 11
13.815830573439598
 21
17.92223691940312
 31
0.0
  0
POLYLINE
  8
0
 62
0
 70
0
 66
1
 10
0.0
 20
0.0
 30
0.0
  0
VERTEX
  8
0
 10
13.8158305734396
 20
17.9222369194031
 30
0.0
  0
VERTEX
  8
0
 10
12.8465267270803
 20
19.927693605423
 30
0.0
  0
SEQEND
  8
0
  0
POLYLINE
  8
0
 62
0
 70
0
 66
1
 10
0.0
 20
0.0
 30
0.0
  0
VERTEX
  8
0
 10
12.8465267270803
 20
19.927693605423
 30
0.0
  0
VERTEX
  8
0
 10
10.4065545648336
 20
20.6057286262512
 30
0.0
  0
SEQEND
  8
0
  0
POLYLINE
  8
0
 62
0
 70
0
 66
1
 10
0.0
 20
0.0
 30
0.0
  0
VERTEX
  8
0
 10
10.4065545648336
 20
20.6057286262512
 30
0.0
  0
VERTEX
  8
0
 10
7.95703135430813
 20
19.989767074585
 30
0.0
  0
SEQEND
  8
0
  0
POLYLINE
  8
0
 62
0
 70
0
 66
1
 10
0.0
 20
0.0
 30
0.0
  0
VERTEX
  8
0
 10
7.95703135430813
 20
19.989767074585
 30
0.0
  0
VERTEX
  8
0
 10
7.18827329576015
 20
18.5047733783722
 30
0.0
  0
SEQEND
  8
0
  0
POLYLINE
  8
0
 62
0
 70
0
 66
1
 10
0.0
 20
0.0
 30
0.0
  0
VERTEX
  8
0
 10
7.18827329576015
 20
18.5047733783722
 30
0.0
  0
VERTEX
  8
0
 10
7.73261152207851
 20
17.2633004188538
 30
0.0
  0
SEQEND
  8
0
  0
POLYLINE
  8
0
 62
0
 70
0
 66
1
 10
0.0
 20
0.0
 30
0.0
  0
VERTEX
  8
0
 10
7.73261152207851
 20
17.2633004188538
 30
0.0
  0
VERTEX
  8
0
 10
10.5259259790182
 20
16.2653470039368
 30
0.0
  0
SEQEND
  8
0
  0
POLYLINE
  8
0
 62
0
 70
0
 66
1
 10
0.0
 20
0.0
 30
0.0
  0
VERTEX
  8
0
 10
10.5259259790182
 20
16.2653470039368
 30
0.0
  0
VERTEX
  8
0
 10
13.6248358339071
 20
15.3724408149719
 30
0.0
  0
SEQEND
  8
0
  0
POLYLINE
  8
0
 62
0
 70
0
 66
1
 10
0.0
 20
0.0
 30
0.0
  0
VERTEX
  8
0
 10
13.6248358339071
 20
15.3724408149719
 30
0.0
  0
VERTEX
  8
0
 10
15.4297455400229
 20
13.9447474479675
 30
0.0
  0
SEQEND
  8
0
  0
POLYLINE
  8
0
 62
0
 70
0
 66
1
 10
0.0
 20
0.0
 30
0.0
  0
VERTEX
  8
0
 10
15.4297455400229
 20
13.9447474479675
 30
0.0
  0
VERTEX
  8
0
 10
16.0122831910849
 20
11.9536137580872
 30
0.0
  0
SEQEND
  8
0
  0
POLYLINE
  8
0
 62
0
 70
0
 66
1
 10
0.0
 20
0.0
 30
0.0
  0
VERTEX
  8
0
 10
16.0122831910849
 20
11.9536137580872
 30
0.0
  0
VERTEX
  8
0
 10
15.3724475950003
 20
9.84788417816162
 30
0.0
  0
SEQEND
  8
0
  0
POLYLINE
  8
0
 62
0
 70
0
 66
1
 10
0.0
 20
0.0
 30
0.0
  0
VERTEX
  8
0
 10
15.3724475950003
 20
9.84788417816162
 30
0.0
  0
VERTEX
  8
0
 10
13.5341127961874
 20
8.31036806106567
 30
0.0
  0
SEQEND
  8
0
  0
POLYLINE
  8
0
 62
0
 70
0
 66
1
 10
0.0
 20
0.0
 30
0.0
  0
VERTEX
  8
0
 10
13.5341127961874
 20
8.31036806106567
 30
0.0
  0
VERTEX
  8
0
 10
10.836294516921
 20
7.76125431060791
 30
0.0
  0
SEQEND
  8
0
  0
POLYLINE
  8
0
 62
0
 70
0
 66
1
 10
0.0
 20
0.0
 30
0.0
  0
VERTEX
  8
0
 10
10.836294516921
 20
7.76125431060791
 30
0.0
  0
VERTEX
  8
0
 10
7.6514383405447
 20
8.31514358520507
 30
0.0
  0
SEQEND
  8
0
  0
LINE
  8
0
 62
0
 10
20.0518473237753
 20
18.1418824195862
 30
0.0
 11
20.0518473237753
 21
7.99999952316284
 31
0.0
  0
LINE
  8
0
 62
0
 10
20.0518473237753
 20
7.99999952316284
 30
0.0
 11
18.332883939147
 21
7.99999952316284
 31
0.0
  0
LINE
  8
0
 62
0
 10
18.332883939147
 20
7.99999952316284
 30
0.0
 11
18.332883939147
 21
18.1418824195862
 31
0.0
  0
LINE
  8
0
 62
0
 10
18.332883939147
 20
18.1418824195862
 30
0.0
 11
20.0518473237753
 21
18.1418824195862
 31
0.0
  0
POLYLINE
  8
0
 62
0
 70
0
 66
1
 10
0.0
 20
0.0
 30
0.0
  0
VERTEX
  8
0
 10
37.2414764016867
 20
3.88403892517089
 30
0.0
  0
VERTEX
  8
0
 10
34.3096908181906
 20
4.70054626464843
 30
0.0
  0
SEQEND
  8
0
  0
POLYLINE
  8
0
 62
0
 70
0
 66
1
 10
0.0
 20
0.0
 30
0.0
  0
VERTEX
  8
0
 10
34.3096908181906
 20
4.70054626464843
 30
0.0
  0
VERTEX
  8
0
 10
33.2305630296469
 20
7.15961694717407
 30
0.0
  0
SEQEND
  8
0
  0
LINE
  8
0
 62
0
 10
33.2305630296469
 20
7.159616947174061
 30
0.0
 11
34.9017771333456
 21
6.911323070526117
 31
0.0
  0
POLYLINE
  8
0
 62
0
 70
0
 66
1
 10
0.0
 20
0.0
 30
0.0
  0
VERTEX
  8
0
 10
34.9017771333456
 20
6.91132307052612
 30
0.0
  0
VERTEX
  8
0
 10
35.4843147844076
 20
5.78444719314575
 30
0.0
  0
SEQEND
  8
0
  0
POLYLINE
  8
0
 62
0
 70
0
 66
1
 10
0.0
 20
0.0
 30
0.0
  0
VERTEX
  8
0
 10
35.4843147844076
 20
5.78444719314575
 30
0.0
  0
VERTEX
  8
0
 10
37.2319277375937
 20
5.30695676803588
 30
0.0
  0
SEQEND
  8
0
  0
POLYLINE
  8
0
 62
0
 70
0
 66
1
 10
0.0
 20
0.0
 30
0.0
  0
VERTEX
  8
0
 10
37.2319277375937
 20
5.30695676803588
 30
0.0
  0
VERTEX
  8
0
 10
39.075036868453
 20
5.78444719314575
 30
0.0
  0
SEQEND
  8
0
  0
POLYLINE
  8
0
 62
0
 70
0
 66
1
 10
0.0
 20
0.0
 30
0.0
  0
VERTEX
  8
0
 10
39.075036868453
 20
5.78444719314575
 30
0.0
  0
VERTEX
  8
0
 10
39.9536188691854
 20
7.12141752243042
 30
0.0
  0
SEQEND
  8
0
  0
POLYLINE
  8
0
 62
0
 70
0
 66
1
 10
0.0
 20
0.0
 30
0.0
  0
VERTEX
  8
0
 10
39.9536188691854
 20
7.12141752243042
 30
0.0
  0
VERTEX
  8
0
 10
40.0777634233236
 20
9.32742118835449
 30
0.0
  0
SEQEND
  8
0
  0
POLYLINE
  8
0
 62
0
 70
0
 66
1
 10
0.0
 20
0.0
 30
0.0
  0
VERTEX
  8
0
 10
40.0777634233236
 20
9.32742118835449
 30
0.0
  0
VERTEX
  8
0
 10
37.2701271623373
 20
7.99999952316284
 30
0.0
  0
SEQEND
  8
0
  0
POLYLINE
  8
0
 62
0
 70
0
 66
1
 10
0.0
 20
0.0
 30
0.0
  0
VERTEX
  8
0
 10
37.2701271623373
 20
7.99999952316284
 30
0.0
  0
VERTEX
  8
0
 10
34.032746180892
 20
9.50886726379394
 30
0.0
  0
SEQEND
  8
0
  0
POLYLINE
  8
0
 62
0
 70
0
 66
1
 10
0.0
 20
0.0
 30
0.0
  0
VERTEX
  8
0
 10
34.032746180892
 20
9.50886726379394
 30
0.0
  0
VERTEX
  8
0
 10
32.8867705911398
 20
13.12824010849
 30
0.0
  0
SEQEND
  8
0
  0
POLYLINE
  8
0
 62
0
 70
0
 66
1
 10
0.0
 20
0.0
 30
0.0
  0
VERTEX
  8
0
 10
32.8867705911398
 20
13.12824010849
 30
0.0
  0
VERTEX
  8
0
 10
33.4120091050863
 20
15.8069562911987
 30
0.0
  0
SEQEND
  8
0
  0
POLYLINE
  8
0
 62
0
 70
0
 66
1
 10
0.0
 20
0.0
 30
0.0
  0
VERTEX
  8
0
 10
33.4120091050863
 20
15.8069562911987
 30
0.0
  0
VERTEX
  8
0
 10
34.9352010339499
 20
17.70259141922
 30
0.0
  0
SEQEND
  8
0
  0
POLYLINE
  8
0
 62
0
 70
0
 66
1
 10
0.0
 20
0.0
 30
0.0
  0
VERTEX
  8
0
 10
34.9352010339499
 20
17.70259141922
 30
0.0
  0
VERTEX
  8
0
 10
37.2796758264303
 20
18.3710765838623
 30
0.0
  0
SEQEND
  8
0
  0
POLYLINE
  8
0
 62
0
 70
0
 66
1
 10
0.0
 20
0.0
 30
0.0
  0
VERTEX
  8
0
 10
37.2796758264303
 20
18.3710765838623
 30
0.0
  0
VERTEX
  8
0
 10
39.4401121704486
 20
17.6924859905911
 30
0.0
  0
SEQEND
  8
0
  0
LINE
  8
0
 62
0
 10
39.44011217057701
 20
17.6924859907678
 30
0.0
 11
39.440112170576995
 21
15.9496161838057
 31
0.0
  0
POLYLINE
  8
0
 62
0
 70
0
 66
1
 10
0.0
 20
0.0
 30
0.0
  0
VERTEX
  8
0
 10
39.440112170577
 20
15.9496161838057
 30
0.0
  0
VERTEX
  8
0
 10
39.3949564546347
 20
16.0027277469635
 30
0.0
  0
SEQEND
  8
0
  0
POLYLINE
  8
0
 62
0
 70
0
 66
1
 10
0.0
 20
0.0
 30
0.0
  0
VERTEX
  8
0
 10
39.3949564546347
 20
16.0027277469635
 30
0.0
  0
VERTEX
  8
0
 10
37.4038227647543
 20
16.9481575489044
 30
0.0
  0
SEQEND
  8
0
  0
POLYLINE
  8
0
 62
0
 70
0
 66
1
 10
0.0
 20
0.0
 30
0.0
  0
VERTEX
  8
0
 10
37.4038227647543
 20
16.9481575489044
 30
0.0
  0
VERTEX
  8
0
 10
35.4556664079428
 20
16.0170519351959
 30
0.0
  0
SEQEND
  8
0
  0
POLYLINE
  8
0
 62
0
 70
0
 66
1
 10
0.0
 20
0.0
 30
0.0
  0
VERTEX
  8
0
 10
35.4556664079428
 20
16.0170519351959
 30
0.0
  0
VERTEX
  8
0
 10
34.6534832566977
 20
13.252387046814
 30
0.0
  0
SEQEND
  8
0
  0
POLYLINE
  8
0
 62
0
 70
0
 66
1
 10
0.0
 20
0.0
 30
0.0
  0
VERTEX
  8
0
 10
34.6534832566977
 20
13.252387046814
 30
0.0
  0
VERTEX
  8
0
 10
35.446115359664
 20
10.3396987915039
 30
0.0
  0
SEQEND
  8
0
  0
POLYLINE
  8
0
 62
0
 70
0
 66
1
 10
0.0
 20
0.0
 30
0.0
  0
VERTEX
  8
0
 10
35.446115359664
 20
10.3396987915039
 30
0.0
  0
VERTEX
  8
0
 10
37.4324735254049
 20
9.42291975021362
 30
0.0
  0
SEQEND
  8
0
  0
POLYLINE
  8
0
 62
0
 70
0
 66
1
 10
0.0
 20
0.0
 30
0.0
  0
VERTEX
  8
0
 10
37.4324735254049
 20
9.42291975021362
 30
0.0
  0
VERTEX
  8
0
 10
39.4188316911459
 20
10.3349256515503
 30
0.0
  0
SEQEND
  8
0
  0
POLYLINE
  8
0
 62
0
 70
0
 66
1
 10
0.0
 20
0.0
 30
0.0
  0
VERTEX
  8
0
 10
39.4188316911459
 20
10.3349256515503
 30
0.0
  0
VERTEX
  8
0
 10
40.221014842391
 20
13.1950879096985
 30
0.0
  0
SEQEND
  8
0
  0
POLYLINE
  8
0
 62
0
 70
0
 66
1
 10
0.0
 20
0.0
 30
0.0
  0
VERTEX
  8
0
 10
40.221014842391
 20
13.1950879096985
 30
0.0
  0
VERTEX
  8
0
 10
39.9935595052075
 20
14.8969978329167
 30
0.0
  0
SEQEND
  8
0
  0
LINE
  8
0
 62
0
 10
40.240112170577
 20
15.9496161838057
 30
0.0
 11
39.993559505207536
 21
14.896997832916693
 31
0.0
  0
LINE
  8
0
 62
0
 10
40.240112170577
 20
15.9496161838057
 30
0.0
 11
40.240112170577
 21
18.1418812274933
 31
0.0
  0
LINE
  8
0
 62
0
 10
40.240112170577
 20
18.1418812274933
 30
0.0
 11
41.8253811448812
 21
18.1418812274933
 31
0.0
  0
LINE
  8
0
 62
0
 10
41.8253811448812
 20
18.1418812274933
 30
0.0
 11
41.8253811448812
 21
9.37516927719116
 31
0.0
  0
POLYLINE
  8
0
 62
0
 70
0
 66
1
 10
0.0
 20
0.0
 30
0.0
  0
VERTEX
  8
0
 10
41.8253811448812
 20
9.37516927719116
 30
0.0
  0
VERTEX
  8
0
 10
41.3431128114462
 20
6.01841688156127
 30
0.0
  0
SEQEND
  8
0
  0
POLYLINE
  8
0
 62
0
 70
0
 66
1
 10
0.0
 20
0.0
 30
0.0
  0
VERTEX
  8
0
 10
41.3431128114462
 20
6.01841688156127
 30
0.0
  0
VERTEX
  8
0
 10
39.8151501268148
 20
4.4570255279541
 30
0.0
  0
SEQEND
  8
0
  0
POLYLINE
  8
0
 62
0
 70
0
 66
1
 10
0.0
 20
0.0
 30
0.0
  0
VERTEX
  8
0
 10
39.8151501268148
 20
4.4570255279541
 30
0.0
  0
VERTEX
  8
0
 10
37.2414764016867
 20
3.88403892517089
 30
0.0
  0
SEQEND
  8
0
  0
POLYLINE
  8
0
 62
0
 70
0
 66
1
 10
0.0
 20
0.0
 30
0.0
  0
VERTEX
  8
0
 10
89.2592056840658
 20
4.28035497665405
 30
0.0
  0
VERTEX
  8
0
 10
87.8458412736654
 20
3.88403892517089
 30
0.0
  0
SEQEND
  8
0
  0
POLYLINE
  8
0
 62
0
 70
0
 66
1
 10
0.0
 20
0.0
 30
0.0
  0
VERTEX
  8
0
 10
87.8458412736654
 20
3.88403892517089
 30
0.0
  0
VERTEX
  8
0
 10
86.7380722612143
 20
4.09413337707519
 30
0.0
  0
SEQEND
  8
0
  0
LINE
  8
0
 62
0
 10
86.73807226121427
 20
4.09413337707519
 30
0.0
 11
86.54707036912443
 21
5.708048343658446
 31
0.0
  0
POLYLINE
  8
0
 62
0
 70
0
 66
1
 10
0.0
 20
0.0
 30
0.0
  0
VERTEX
  8
0
 10
86.5470703691244
 20
5.70804834365844
 30
0.0
  0
VERTEX
  8
0
 10
87.5306900590658
 20
5.55525302886962
 30
0.0
  0
SEQEND
  8
0
  0
POLYLINE
  8
0
 62
0
 70
0
 66
1
 10
0.0
 20
0.0
 30
0.0
  0
VERTEX
  8
0
 10
87.5306900590658
 20
5.55525302886962
 30
0.0
  0
VERTEX
  8
0
 10
88.4474762529135
 20
5.7462477684021
 30
0.0
  0
SEQEND
  8
0
  0
POLYLINE
  8
0
 62
0
 70
0
 66
1
 10
0.0
 20
0.0
 30
0.0
  0
VERTEX
  8
0
 10
88.4474762529135
 20
5.7462477684021
 30
0.0
  0
VERTEX
  8
0
 10
89.0109070390463
 20
6.28103733062744
 30
0.0
  0
SEQEND
  8
0
  0
POLYLINE
  8
0
 62
0
 70
0
 66
1
 10
0.0
 20
0.0
 30
0.0
  0
VERTEX
  8
0
 10
89.0109070390463
 20
6.28103733062744
 30
0.0
  0
VERTEX
  8
0
 10
89.5361527055502
 20
7.56070852279663
 30
0.0
  0
SEQEND
  8
0
  0
POLYLINE
  8
0
 62
0
 70
0
 66
1
 10
0.0
 20
0.0
 30
0.0
  0
VERTEX
  8
0
 10
89.5361527055502
 20
7.56070852279663
 30
0.0
  0
VERTEX
  8
0
 10
89.6889504045248
 20
7.98089981079101
 30
0.0
  0
SEQEND
  8
0
  0
LINE
  8
0
 62
0
 10
89.68895040452476
 20
7.9808998107909925
 30
0.0
 11
85.84037862718101
 21
18.14188122749327
 31
0.0
  0
LINE
  8
0
 62
0
 10
85.8403786271811
 20
18.1418812274933
 30
0.0
 11
87.6930435746908
 21
18.1418812274933
 31
0.0
  0
LINE
  8
0
 62
0
 10
87.69304357469085
 20
18.141881227493315
 30
0.0
 11
89.80354391038422
 21
12.268757820129405
 31
0.0
  0
POLYLINE
  8
0
 62
0
 70
0
 66
1
 10
0.0
 20
0.0
 30
0.0
  0
VERTEX
  8
0
 10
89.8035439103842
 20
12.2687578201294
 30
0.0
  0
VERTEX
  8
0
 10
90.5388840287924
 20
9.91950750350952
 30
0.0
  0
SEQEND
  8
0
  0
POLYLINE
  8
0
 62
0
 70
0
 66
1
 10
0.0
 20
0.0
 30
0.0
  0
VERTEX
  8
0
 10
90.5388840287924
 20
9.91950750350952
 30
0.0
  0
VERTEX
  8
0
 10
91.2455757707357
 20
12.2305583953857
 30
0.0
  0
SEQEND
  8
0
  0
LINE
  8
0
 62
0
 10
91.24557577073573
 20
12.230558395385685
 30
0.0
 11
93.4133728593588
 21
18.141881227493297
 31
0.0
  0
LINE
  8
0
 62
0
 10
93.4133728593588
 20
18.1418812274933
 30
0.0
 11
95.1323326677084
 21
18.1418812274933
 31
0.0
  0
LINE
  8
0
 62
0
 10
95.1323326677084
 20
18.141881227493304
 30
0.0
 11
91.27422414720058
 21
7.828102111816408
 31
0.0
  0
POLYLINE
  8
0
 62
0
 70
0
 66
1
 10
0.0
 20
0.0
 30
0.0
  0
VERTEX
  8
0
 10
91.2742241472006
 20
7.8281021118164
 30
0.0
  0
VERTEX
  8
0
 10
90.3096779435873
 20
5.52660226821899
 30
0.0
  0
SEQEND
  8
0
  0
POLYLINE
  8
0
 62
0
 70
0
 66
1
 10
0.0
 20
0.0
 30
0.0
  0
VERTEX
  8
0
 10
90.3096779435873
 20
5.52660226821899
 30
0.0
  0
VERTEX
  8
0
 10
89.2592056840658
 20
4.28035497665405
 30
0.0
  0
SEQEND
  8
0
  0
LINE
  8
0
 62
0
 10
68.4024628251791
 20
7.99999952316284
 30
0.0
 11
66.6070993989706
 21
7.99999952316284
 31
0.0
  0
POLYLINE
  8
0
 62
0
 70
0
 66
1
 10
0.0
 20
0.0
 30
0.0
  0
VERTEX
  8
0
 10
66.6070993989706
 20
7.99999952316284
 30
0.0
  0
VERTEX
  8
0
 10
66.2633093446493
 20
9.25102233886718
 30
0.0
  0
SEQEND
  8
0
  0
LINE
  8
0
 62
0
 10
66.2633093446493
 20
9.25102233886718
 30
0.0
 11
65.84311567246911
 21
10.740790367126504
 31
0.0
  0
POLYLINE
  8
0
 62
0
 70
0
 66
1
 10
0.0
 20
0.0
 30
0.0
  0
VERTEX
  8
0
 10
65.8431156724691
 20
10.7407903671265
 30
0.0
  0
VERTEX
  8
0
 10
66.1200626939535
 20
12.4597549438477
 30
0.0
  0
SEQEND
  8
0
  0
LINE
  8
0
 62
0
 10
66.1200626939535
 20
12.4597549438477
 30
0.0
 11
66.1200626939535
 21
13.0900406837463
 31
0.0
  0
POLYLINE
  8
0
 62
0
 70
0
 66
1
 10
0.0
 20
0.0
 30
0.0
  0
VERTEX
  8
0
 10
66.1200626939535
 20
13.0900406837463
 30
0.0
  0
VERTEX
  8
0
 10
63.3124216645956
 20
12.4406552314758
 30
0.0
  0
SEQEND
  8
0
  0
POLYLINE
  8
0
 62
0
 70
0
 66
1
 10
0.0
 20
0.0
 30
0.0
  0
VERTEX
  8
0
 10
63.3124216645956
 20
12.4406552314758
 30
0.0
  0
VERTEX
  8
0
 10
61.8131025880575
 20
12.0968627929687
 30
0.0
  0
SEQEND
  8
0
  0
POLYLINE
  8
0
 62
0
 70
0
 66
1
 10
0.0
 20
0.0
 30
0.0
  0
VERTEX
  8
0
 10
61.8131025880575
 20
12.0968627929687
 30
0.0
  0
VERTEX
  8
0
 10
61.1350687593222
 20
11.5381979942322
 30
0.0
  0
SEQEND
  8
0
  0
POLYLINE
  8
0
 62
0
 70
0
 66
1
 10
0.0
 20
0.0
 30
0.0
  0
VERTEX
  8
0
 10
61.1350687593222
 20
11.5381979942322
 30
0.0
  0
VERTEX
  8
0
 10
60.896325930953
 20
10.7216906547546
 30
0.0
  0
SEQEND
  8
0
  0
POLYLINE
  8
0
 62
0
 70
0
 66
1
 10
0.0
 20
0.0
 30
0.0
  0
VERTEX
  8
0
 10
60.896325930953
 20
10.7216906547546
 30
0.0
  0
VERTEX
  8
0
 10
61.4167889207602
 20
9.57571506500244
 30
0.0
  0
SEQEND
  8
0
  0
POLYLINE
  8
0
 62
0
 70
0
 66
1
 10
0.0
 20
0.0
 30
0.0
  0
VERTEX
  8
0
 10
61.4167889207602
 20
9.57571506500244
 30
0.0
  0
VERTEX
  8
0
 10
62.9399784654379
 20
9.11732673645019
 30
0.0
  0
SEQEND
  8
0
  0
POLYLINE
  8
0
 62
0
 70
0
 66
1
 10
0.0
 20
0.0
 30
0.0
  0
VERTEX
  8
0
 10
62.9399784654379
 20
9.11732673645019
 30
0.0
  0
VERTEX
  8
0
 10
64.7066935151815
 20
9.551842212677
 30
0.0
  0
SEQEND
  8
0
  0
POLYLINE
  8
0
 62
0
 70
0
 66
1
 10
0.0
 20
0.0
 30
0.0
  0
VERTEX
  8
0
 10
64.7066935151815
 20
9.551842212677
 30
0.0
  0
VERTEX
  8
0
 10
65.0753458269404
 20
9.79490676761332
 30
0.0
  0
SEQEND
  8
0
  0
LINE
  8
0
 62
0
 10
65.4091976198701
 20
8.61125798874365
 30
0.0
 11
65.07534582727762
 21
9.794906767176615
 31
0.0
  0
POLYLINE
  8
0
 62
0
 70
0
 66
1
 10
0.0
 20
0.0
 30
0.0
  0
VERTEX
  8
0
 10
65.409197619872
 20
8.61125798874485
 30
0.0
  0
VERTEX
  8
0
 10
64.4249733537436
 20
8.10504674911499
 30
0.0
  0
SEQEND
  8
0
  0
POLYLINE
  8
0
 62
0
 70
0
 66
1
 10
0.0
 20
0.0
 30
0.0
  0
VERTEX
  8
0
 10
64.4249733537436
 20
8.10504674911499
 30
0.0
  0
VERTEX
  8
0
 10
62.5293406099081
 20
7.77080535888671
 30
0.0
  0
SEQEND
  8
0
  0
POLYLINE
  8
0
 62
0
 70
0
 66
1
 10
0.0
 20
0.0
 30
0.0
  0
VERTEX
  8
0
 10
62.5293406099081
 20
7.77080535888671
 30
0.0
  0
VERTEX
  8
0
 10
59.9604424089193
 20
8.58731269836425
 30
0.0
  0
SEQEND
  8
0
  0
POLYLINE
  8
0
 62
0
 70
0
 66
1
 10
0.0
 20
0.0
 30
0.0
  0
VERTEX
  8
0
 10
59.9604424089193
 20
8.58731269836425
 30
0.0
  0
VERTEX
  8
0
 10
59.0627630800009
 20
10.673942565918
 30
0.0
  0
SEQEND
  8
0
  0
POLYLINE
  8
0
 62
0
 70
0
 66
1
 10
0.0
 20
0.0
 30
0.0
  0
VERTEX
  8
0
 10
59.0627630800009
 20
10.673942565918
 30
0.0
  0
VERTEX
  8
0
 10
59.4017799943686
 20
12.0347881317139
 30
0.0
  0
SEQEND
  8
0
  0
POLYLINE
  8
0
 62
0
 70
0
 66
1
 10
0.0
 20
0.0
 30
0.0
  0
VERTEX
  8
0
 10
59.4017799943686
 20
12.0347881317139
 30
0.0
  0
VERTEX
  8
0
 10
60.2899130433798
 20
13.023190498352
 30
0.0
  0
SEQEND
  8
0
  0
POLYLINE
  8
0
 62
0
 70
0
 66
1
 10
0.0
 20
0.0
 30
0.0
  0
VERTEX
  8
0
 10
60.2899130433798
 20
13.023190498352
 30
0.0
  0
VERTEX
  8
0
 10
61.5266092866659
 20
13.586630821228
 30
0.0
  0
SEQEND
  8
0
  0
POLYLINE
  8
0
 62
0
 70
0
 66
1
 10
0.0
 20
0.0
 30
0.0
  0
VERTEX
  8
0
 10
61.5266092866659
 20
13.586630821228
 30
0.0
  0
VERTEX
  8
0
 10
63.0545767396688
 20
13.844473361969
 30
0.0
  0
SEQEND
  8
0
  0
POLYLINE
  8
0
 62
0
 70
0
 66
1
 10
0.0
 20
0.0
 30
0.0
  0
VERTEX
  8
0
 10
63.0545767396688
 20
13.844473361969
 30
0.0
  0
VERTEX
  8
0
 10
66.1200626939535
 20
14.4365608692169
 30
0.0
  0
SEQEND
  8
0
  0
POLYLINE
  8
0
 62
0
 70
0
 66
1
 10
0.0
 20
0.0
 30
0.0
  0
VERTEX
  8
0
 10
66.1200626939535
 20
14.4365608692169
 30
0.0
  0
VERTEX
  8
0
 10
66.1296137422323
 20
14.885401725769
 30
0.0
  0
SEQEND
  8
0
  0
POLYLINE
  8
0
 62
0
 70
0
 66
1
 10
0.0
 20
0.0
 30
0.0
  0
VERTEX
  8
0
 10
66.1296137422323
 20
14.885401725769
 30
0.0
  0
VERTEX
  8
0
 10
65.6425722688437
 20
16.3656198978424
 30
0.0
  0
SEQEND
  8
0
  0
POLYLINE
  8
0
 62
0
 70
0
 66
1
 10
0.0
 20
0.0
 30
0.0
  0
VERTEX
  8
0
 10
65.6425722688437
 20
16.3656198978424
 30
0.0
  0
VERTEX
  8
0
 10
63.6848648637533
 20
16.9481563568115
 30
0.0
  0
SEQEND
  8
0
  0
POLYLINE
  8
0
 62
0
 70
0
 66
1
 10
0.0
 20
0.0
 30
0.0
  0
VERTEX
  8
0
 10
63.6848648637533
 20
16.9481563568115
 30
0.0
  0
VERTEX
  8
0
 10
61.89427934587
 20
16.5231919288635
 30
0.0
  0
SEQEND
  8
0
  0
POLYLINE
  8
0
 62
0
 70
0
 66
1
 10
0.0
 20
0.0
 30
0.0
  0
VERTEX
  8
0
 10
61.89427934587
 20
16.5231919288635
 30
0.0
  0
VERTEX
  8
0
 10
61.0395725816488
 20
15.0190985202789
 30
0.0
  0
SEQEND
  8
0
  0
LINE
  8
0
 62
0
 10
61.0395725816488
 20
15.019098520278911
 30
0.0
 11
59.3588074296713
 21
15.248293876647924
 31
0.0
  0
POLYLINE
  8
0
 62
0
 70
0
 66
1
 10
0.0
 20
0.0
 30
0.0
  0
VERTEX
  8
0
 10
59.3588074296713
 20
15.2482938766479
 30
0.0
  0
VERTEX
  8
0
 10
60.1132401078939
 20
16.9911313056946
 30
0.0
  0
SEQEND
  8
0
  0
POLYLINE
  8
0
 62
0
 70
0
 66
1
 10
0.0
 20
0.0
 30
0.0
  0
VERTEX
  8
0
 10
60.1132401078939
 20
16.9911313056946
 30
0.0
  0
VERTEX
  8
0
 10
61.6316565126181
 20
18.0129599571228
 30
0.0
  0
SEQEND
  8
0
  0
POLYLINE
  8
0
 62
0
 70
0
 66
1
 10
0.0
 20
0.0
 30
0.0
  0
VERTEX
  8
0
 10
61.6316565126181
 20
18.0129599571228
 30
0.0
  0
VERTEX
  8
0
 10
63.9331587404013
 20
18.3710765838623
 30
0.0
  0
SEQEND
  8
0
  0
POLYLINE
  8
0
 62
0
 70
0
 66
1
 10
0.0
 20
0.0
 30
0.0
  0
VERTEX
  8
0
 10
63.9331587404013
 20
18.3710765838623
 30
0.0
  0
VERTEX
  8
0
 10
66.0436638444662
 20
18.0654835700989
 30
0.0
  0
SEQEND
  8
0
  0
POLYLINE
  8
0
 62
0
 70
0
 66
1
 10
0.0
 20
0.0
 30
0.0
  0
VERTEX
  8
0
 10
66.0436638444662
 20
18.0654835700989
 30
0.0
  0
VERTEX
  8
0
 10
67.2373875230551
 20
17.296724319458
 30
0.0
  0
SEQEND
  8
0
  0
POLYLINE
  8
0
 62
0
 70
0
 66
1
 10
0.0
 20
0.0
 30
0.0
  0
VERTEX
  8
0
 10
67.2373875230551
 20
17.296724319458
 30
0.0
  0
VERTEX
  8
0
 10
67.7721747010946
 20
16.1268746852875
 30
0.0
  0
SEQEND
  8
0
  0
POLYLINE
  8
0
 62
0
 70
0
 66
1
 10
0.0
 20
0.0
 30
0.0
  0
VERTEX
  8
0
 10
67.7721747010946
 20
16.1268746852875
 30
0.0
  0
VERTEX
  8
0
 10
67.8581245988607
 20
14.541609287262
 30
0.0
  0
SEQEND
  8
0
  0
LINE
  8
0
 62
0
 10
67.8581245988607
 20
14.541609287262
 30
0.0
 11
67.8581245988607
 21
12.2496581077576
 31
0.0
  0
POLYLINE
  8
0
 62
0
 70
0
 66
1
 10
0.0
 20
0.0
 30
0.0
  0
VERTEX
  8
0
 10
67.8581245988607
 20
12.2496581077576
 30
0.0
  0
VERTEX
  8
0
 10
67.9679449647665
 20
9.21759843826294
 30
0.0
  0
SEQEND
  8
0
  0
POLYLINE
  8
0
 62
0
 70
0
 66
1
 10
0.0
 20
0.0
 30
0.0
  0
VERTEX
  8
0
 10
67.9679449647665
 20
9.21759843826294
 30
0.0
  0
VERTEX
  8
0
 10
68.4024628251791
 20
7.99999952316284
 30
0.0
  0
SEQEND
  8
0
  0
LINE
  8
0
 62
0
 10
78.763986453414
 20
21.9999992847443
 30
0.0
 11
78.763986453414
 21
20.0231909751892
 31
0.0
  0
LINE
  8
0
 62
0
 10
78.763986453414
 20
20.0231909751892
 30
0.0
 11
77.0450218766928
 21
20.0231909751892
 31
0.0
  0
LINE
  8
0
 62
0
 10
77.0450218766928
 20
20.0231909751892
 30
0.0
 11
77.0450218766928
 21
21.9999992847443
 31
0.0
  0
LINE
  8
0
 62
0
 10
77.0450218766928
 20
21.9999992847443
 30
0.0
 11
78.763986453414
 21
21.9999992847443
 31
0.0
  0
POLYLINE
  8
0
 62
0
 70
0
 66
1
 10
0.0
 20
0.0
 30
0.0
  0
VERTEX
  8
0
 10
83.7919624894857
 20
9.59481477737426
 30
0.0
  0
VERTEX
  8
0
 10
84.3792732805014
 20
9.47066783905029
 30
0.0
  0
SEQEND
  8
0
  0
POLYLINE
  8
0
 62
0
 70
0
 66
1
 10
0.0
 20
0.0
 30
0.0
  0
VERTEX
  8
0
 10
84.3792732805014
 20
9.47066783905029
 30
0.0
  0
VERTEX
  8
0
 10
85.133705958724
 20
9.53751564025879
 30
0.0
  0
SEQEND
  8
0
  0
LINE
  8
0
 62
0
 10
85.13370595872401
 20
9.537515640258793
 30
0.0
 11
85.38200460374354
 21
8.019099235534654
 31
0.0
  0
POLYLINE
  8
0
 62
0
 70
0
 66
1
 10
0.0
 20
0.0
 30
0.0
  0
VERTEX
  8
0
 10
85.3820046037436
 20
8.01909923553466
 30
0.0
  0
VERTEX
  8
0
 10
84.0832336992025
 20
7.86630153656005
 30
0.0
  0
SEQEND
  8
0
  0
POLYLINE
  8
0
 62
0
 70
0
 66
1
 10
0.0
 20
0.0
 30
0.0
  0
VERTEX
  8
0
 10
84.0832336992025
 20
7.86630153656005
 30
0.0
  0
VERTEX
  8
0
 10
82.6316650956869
 20
8.16234588623047
 30
0.0
  0
SEQEND
  8
0
  0
POLYLINE
  8
0
 62
0
 70
0
 66
1
 10
0.0
 20
0.0
 30
0.0
  0
VERTEX
  8
0
 10
82.6316650956869
 20
8.16234588623047
 30
0.0
  0
VERTEX
  8
0
 10
81.9058807939291
 20
8.94065380096435
 30
0.0
  0
SEQEND
  8
0
  0
POLYLINE
  8
0
 62
0
 70
0
 66
1
 10
0.0
 20
0.0
 30
0.0
  0
VERTEX
  8
0
 10
81.9058807939291
 20
8.94065380096435
 30
0.0
  0
VERTEX
  8
0
 10
81.6957768052816
 20
10.9699869155884
 30
0.0
  0
SEQEND
  8
0
  0
LINE
  8
0
 62
0
 10
81.6957768052816
 20
10.9699869155884
 30
0.0
 11
81.6957768052816
 21
16.8049097061157
 31
0.0
  0
LINE
  8
0
 62
0
 10
81.6957768052816
 20
16.8049097061157
 30
0.0
 11
80.4352005571127
 21
16.8049097061157
 31
0.0
  0
LINE
  8
0
 62
0
 10
80.4352005571127
 20
16.8049097061157
 30
0.0
 11
80.4352005571127
 21
18.1418824195862
 31
0.0
  0
LINE
  8
0
 62
0
 10
80.4352005571127
 20
18.1418824195862
 30
0.0
 11
81.6957768052816
 21
18.1418824195862
 31
0.0
  0
LINE
  8
0
 62
0
 10
81.6957768052816
 20
18.1418824195862
 30
0.0
 11
81.6957768052816
 21
20.6534779071808
 31
0.0
  0
LINE
  8
0
 62
0
 10
81.69577680528162
 20
20.653477907180744
 30
0.0
 11
83.40519033372401
 21
21.684856414794876
 31
0.0
  0
LINE
  8
0
 62
0
 10
83.405190333724
 20
21.6848564147949
 30
0.0
 11
83.405190333724
 21
18.1418824195862
 31
0.0
  0
LINE
  8
0
 62
0
 10
83.405190333724
 20
18.1418824195862
 30
0.0
 11
85.133705958724
 21
18.1418824195862
 31
0.0
  0
LINE
  8
0
 62
0
 10
85.133705958724
 20
18.1418824195862
 30
0.0
 11
85.133705958724
 21
16.8049097061157
 31
0.0
  0
LINE
  8
0
 62
0
 10
85.133705958724
 20
16.8049097061157
 30
0.0
 11
83.405190333724
 21
16.8049097061157
 31
0.0
  0
LINE
  8
0
 62
0
 10
83.405190333724
 20
16.8049097061157
 30
0.0
 11
83.405190333724
 21
10.8744883537292
 31
0.0
  0
POLYLINE
  8
0
 62
0
 70
0
 66
1
 10
0.0
 20
0.0
 30
0.0
  0
VERTEX
  8
0
 10
83.405190333724
 20
10.8744883537292
 30
0.0
  0
VERTEX
  8
0
 10
83.4959133714437
 20
9.92905855178833
 30
0.0
  0
SEQEND
  8
0
  0
POLYLINE
  8
0
 62
0
 70
0
 66
1
 10
0.0
 20
0.0
 30
0.0
  0
VERTEX
  8
0
 10
83.4959133714437
 20
9.92905855178833
 30
0.0
  0
VERTEX
  8
0
 10
83.7919624894857
 20
9.59481477737426
 30
0.0
  0
SEQEND
  8
0
  0
LINE
  8
0
 62
0
 10
78.763986453414
 20
18.1418824195862
 30
0.0
 11
78.763986453414
 21
7.99999952316284
 31
0.0
  0
LINE
  8
0
 62
0
 10
78.763986453414
 20
7.99999952316284
 30
0.0
 11
77.0450218766928
 21
7.99999952316284
 31
0.0
  0
LINE
  8
0
 62
0
 10
77.0450218766928
 20
7.99999952316284
 30
0.0
 11
77.0450218766928
 21
18.1418824195862
 31
0.0
  0
LINE
  8
0
 62
0
 10
77.0450218766928
 20
18.1418824195862
 30
0.0
 11
78.763986453414
 21
18.1418824195862
 31
0.0
  0
LINE
  8
0
 62
0
 10
72.2223766893148
 20
13.3096837997436
 30
0.0
 11
72.2223766893148
 21
7.99999952316284
 31
0.0
  0
LINE
  8
0
 62
0
 10
72.2223766893148
 20
7.99999952316284
 30
0.0
 11
70.5034121125937
 21
7.99999952316284
 31
0.0
  0
LINE
  8
0
 62
0
 10
70.5034121125937
 20
7.99999952316284
 30
0.0
 11
70.5034121125937
 21
18.1418812274933
 31
0.0
  0
LINE
  8
0
 62
0
 10
70.5034121125937
 20
18.1418812274933
 30
0.0
 11
72.0504768937826
 21
18.1418812274933
 31
0.0
  0
LINE
  8
0
 62
0
 10
72.0504768937826
 20
18.1418812274933
 30
0.0
 11
72.0504768937826
 21
16.6043639183044
 31
0.0
  0
POLYLINE
  8
0
 62
0
 70
0
 66
1
 10
0.0
 20
0.0
 30
0.0
  0
VERTEX
  8
0
 10
72.0504768937826
 20
16.6043639183044
 30
0.0
  0
VERTEX
  8
0
 10
73.1439312547445
 20
18.0272841453552
 30
0.0
  0
SEQEND
  8
0
  0
POLYLINE
  8
0
 62
0
 70
0
 66
1
 10
0.0
 20
0.0
 30
0.0
  0
VERTEX
  8
0
 10
73.1439312547445
 20
18.0272841453552
 30
0.0
  0
VERTEX
  8
0
 10
74.2469318956137
 20
18.3710765838623
 30
0.0
  0
SEQEND
  8
0
  0
POLYLINE
  8
0
 62
0
 70
0
 66
1
 10
0.0
 20
0.0
 30
0.0
  0
VERTEX
  8
0
 10
74.2469318956137
 20
18.3710765838623
 30
0.0
  0
VERTEX
  8
0
 10
76.0136421769857
 20
17.817188501358
 30
0.0
  0
SEQEND
  8
0
  0
LINE
  8
0
 62
0
 10
76.01364217698571
 20
17.817188501357997
 30
0.0
 11
75.42155824601647
 21
16.22237205505371
 31
0.0
  0
POLYLINE
  8
0
 62
0
 70
0
 66
1
 10
0.0
 20
0.0
 30
0.0
  0
VERTEX
  8
0
 10
75.4215582460165
 20
16.2223720550537
 30
0.0
  0
VERTEX
  8
0
 10
74.1609819978476
 20
16.5948152542114
 30
0.0
  0
SEQEND
  8
0
  0
POLYLINE
  8
0
 62
0
 70
0
 66
1
 10
0.0
 20
0.0
 30
0.0
  0
VERTEX
  8
0
 10
74.1609819978476
 20
16.5948152542114
 30
0.0
  0
VERTEX
  8
0
 10
73.1487043946981
 20
16.2557971477509
 30
0.0
  0
SEQEND
  8
0
  0
POLYLINE
  8
0
 62
0
 70
0
 66
1
 10
0.0
 20
0.0
 30
0.0
  0
VERTEX
  8
0
 10
73.1487043946981
 20
16.2557971477509
 30
0.0
  0
VERTEX
  8
0
 10
72.5088699907064
 20
15.3151416778564
 30
0.0
  0
SEQEND
  8
0
  0
POLYLINE
  8
0
 62
0
 70
0
 66
1
 10
0.0
 20
0.0
 30
0.0
  0
VERTEX
  8
0
 10
72.5088699907064
 20
15.3151416778564
 30
0.0
  0
VERTEX
  8
0
 10
72.2223766893148
 20
13.3096837997436
 30
0.0
  0
SEQEND
  8
0
  0
LINE
  8
0
 62
0
 10
56.9809063524008
 20
21.9999992847443
 30
0.0
 11
56.9809063524008
 21
7.99999952316284
 31
0.0
  0
LINE
  8
0
 62
0
 10
56.9809063524008
 20
7.99999952316284
 30
0.0
 11
55.2619417756796
 21
7.99999952316284
 31
0.0
  0
LINE
  8
0
 62
0
 10
55.2619417756796
 20
7.99999952316284
 30
0.0
 11
55.2619417756796
 21
21.9999992847443
 31
0.0
  0
LINE
  8
0
 62
0
 10
55.2619417756796
 20
21.9999992847443
 30
0.0
 11
56.9809063524008
 21
21.9999992847443
 31
0.0
  0
LINE
  8
0
 62
0
 10
52.6070984452963
 20
18.1418812274933
 30
0.0
 11
52.6070984452963
 21
7.99999952316284
 31
0.0
  0
LINE
  8
0
 62
0
 10
52.6070984452963
 20
7.99999952316284
 30
0.0
 11
51.0695799440145
 21
7.99999952316284
 31
0.0
  0
LINE
  8
0
 62
0
 10
51.0695799440145
 20
7.99999952316284
 30
0.0
 11
51.0695799440145
 21
9.48976755142212
 31
0.0
  0
POLYLINE
  8
0
 62
0
 70
0
 66
1
 10
0.0
 20
0.0
 30
0.0
  0
VERTEX
  8
0
 10
51.0695799440145
 20
9.48976755142212
 30
0.0
  0
VERTEX
  8
0
 10
47.8513010591269
 20
7.77080535888671
 30
0.0
  0
SEQEND
  8
0
  0
POLYLINE
  8
0
 62
0
 70
0
 66
1
 10
0.0
 20
0.0
 30
0.0
  0
VERTEX
  8
0
 10
47.8513010591269
 20
7.77080535888671
 30
0.0
  0
VERTEX
  8
0
 10
46.1753090471029
 20
8.1145977973938
 30
0.0
  0
SEQEND
  8
0
  0
POLYLINE
  8
0
 62
0
 70
0
 66
1
 10
0.0
 20
0.0
 30
0.0
  0
VERTEX
  8
0
 10
46.1753090471029
 20
8.1145977973938
 30
0.0
  0
VERTEX
  8
0
 10
45.0197847932577
 20
8.978853225708
 30
0.0
  0
SEQEND
  8
0
  0
POLYLINE
  8
0
 62
0
 70
0
 66
1
 10
0.0
 20
0.0
 30
0.0
  0
VERTEX
  8
0
 10
45.0197847932577
 20
8.978853225708
 30
0.0
  0
VERTEX
  8
0
 10
44.4897707551718
 20
10.2537512779236
 30
0.0
  0
SEQEND
  8
0
  0
POLYLINE
  8
0
 62
0
 70
0
 66
1
 10
0.0
 20
0.0
 30
0.0
  0
VERTEX
  8
0
 10
44.4897707551718
 20
10.2537512779236
 30
0.0
  0
VERTEX
  8
0
 10
44.3847235292196
 20
11.858115196228
 30
0.0
  0
SEQEND
  8
0
  0
LINE
  8
0
 62
0
 10
44.3847235292196
 20
11.858115196228
 30
0.0
 11
44.3847235292196
 21
18.1418812274933
 31
0.0
  0
LINE
  8
0
 62
0
 10
44.3847235292196
 20
18.1418812274933
 30
0.0
 11
46.1036881059408
 21
18.1418812274933
 31
0.0
  0
LINE
  8
0
 62
0
 10
46.1036881059408
 20
18.1418812274933
 30
0.0
 11
46.1036881059408
 21
12.5170516967773
 31
0.0
  0
POLYLINE
  8
0
 62
0
 70
0
 66
1
 10
0.0
 20
0.0
 30
0.0
  0
VERTEX
  8
0
 10
46.1036881059408
 20
12.5170516967773
 30
0.0
  0
VERTEX
  8
0
 10
46.208735331893
 20
10.7025909423828
 30
0.0
  0
SEQEND
  8
0
  0
POLYLINE
  8
0
 62
0
 70
0
 66
1
 10
0.0
 20
0.0
 30
0.0
  0
VERTEX
  8
0
 10
46.208735331893
 20
10.7025909423828
 30
0.0
  0
VERTEX
  8
0
 10
46.8963202089071
 20
9.63778972625732
 30
0.0
  0
SEQEND
  8
0
  0
POLYLINE
  8
0
 62
0
 70
0
 66
1
 10
0.0
 20
0.0
 30
0.0
  0
VERTEX
  8
0
 10
46.8963202089071
 20
9.63778972625732
 30
0.0
  0
VERTEX
  8
0
 10
48.1950911134481
 20
9.25102233886718
 30
0.0
  0
SEQEND
  8
0
  0
POLYLINE
  8
0
 62
0
 70
0
 66
1
 10
0.0
 20
0.0
 30
0.0
  0
VERTEX
  8
0
 10
48.1950911134481
 20
9.25102233886718
 30
0.0
  0
VERTEX
  8
0
 10
49.6466597169638
 20
9.64733839035034
 30
0.0
  0
SEQEND
  8
0
  0
POLYLINE
  8
0
 62
0
 70
0
 66
1
 10
0.0
 20
0.0
 30
0.0
  0
VERTEX
  8
0
 10
49.6466597169638
 20
9.64733839035034
 30
0.0
  0
VERTEX
  8
0
 10
50.6064137071371
 20
10.726466178894
 30
0.0
  0
SEQEND
  8
0
  0
POLYLINE
  8
0
 62
0
 70
0
 66
1
 10
0.0
 20
0.0
 30
0.0
  0
VERTEX
  8
0
 10
50.6064137071371
 20
10.726466178894
 30
0.0
  0
VERTEX
  8
0
 10
50.8881338685751
 20
12.7080488204956
 30
0.0
  0
SEQEND
  8
0
  0
LINE
  8
0
 62
0
 10
50.8881338685751
 20
12.7080488204956
 30
0.0
 11
50.8881338685751
 21
18.1418812274933
 31
0.0
  0
LINE
  8
0
 62
0
 10
50.8881338685751
 20
18.1418812274933
 30
0.0
 11
52.6070984452963
 21
18.1418812274933
 31
0.0
  0
LINE
  8
0
 62
0
 10
24.3874534219503
 20
13.5388803482056
 30
0.0
 11
24.3874534219503
 21
7.99999952316284
 31
0.0
  0
LINE
  8
0
 62
0
 10
24.3874534219503
 20
7.99999952316284
 30
0.0
 11
22.6684912294149
 21
7.99999952316284
 31
0.0
  0
LINE
  8
0
 62
0
 10
22.6684912294149
 20
7.99999952316284
 30
0.0
 11
22.6684912294149
 21
18.1418812274933
 31
0.0
  0
LINE
  8
0
 62
0
 10
22.6684912294149
 20
18.1418812274933
 30
0.0
 11
24.2155583947897
 21
18.1418812274933
 31
0.0
  0
LINE
  8
0
 62
0
 10
24.2155583947897
 20
18.1418812274933
 30
0.0
 11
24.2155583947897
 21
16.6998624801636
 31
0.0
  0
POLYLINE
  8
0
 62
0
 70
0
 66
1
 10
0.0
 20
0.0
 30
0.0
  0
VERTEX
  8
0
 10
24.2155583947897
 20
16.6998624801636
 30
0.0
  0
VERTEX
  8
0
 10
27.4433883279562
 20
18.3710765838623
 30
0.0
  0
SEQEND
  8
0
  0
POLYLINE
  8
0
 62
0
 70
0
 66
1
 10
0.0
 20
0.0
 30
0.0
  0
VERTEX
  8
0
 10
27.4433883279562
 20
18.3710765838623
 30
0.0
  0
VERTEX
  8
0
 10
29.1289290040731
 20
18.0416083335876
 30
0.0
  0
SEQEND
  8
0
  0
POLYLINE
  8
0
 62
0
 70
0
 66
1
 10
0.0
 20
0.0
 30
0.0
  0
VERTEX
  8
0
 10
29.1289290040731
 20
18.0416083335876
 30
0.0
  0
VERTEX
  8
0
 10
30.279677733779
 20
17.1773529052734
 30
0.0
  0
SEQEND
  8
0
  0
POLYLINE
  8
0
 62
0
 70
0
 66
1
 10
0.0
 20
0.0
 30
0.0
  0
VERTEX
  8
0
 10
30.279677733779
 20
17.1773529052734
 30
0.0
  0
VERTEX
  8
0
 10
30.8144672960043
 20
15.9072291851044
 30
0.0
  0
SEQEND
  8
0
  0
POLYLINE
  8
0
 62
0
 70
0
 66
1
 10
0.0
 20
0.0
 30
0.0
  0
VERTEX
  8
0
 10
30.8144672960043
 20
15.9072291851044
 30
0.0
  0
VERTEX
  8
0
 10
30.9099634736776
 20
14.2360150814056
 30
0.0
  0
SEQEND
  8
0
  0
LINE
  8
0
 62
0
 10
30.9099634736776
 20
14.2360150814056
 30
0.0
 11
30.9099634736776
 21
7.99999952316284
 31
0.0
  0
LINE
  8
0
 62
0
 10
30.9099634736776
 20
7.99999952316284
 30
0.0
 11
29.1910012811422
 21
7.99999952316284
 31
0.0
  0
LINE
  8
0
 62
0
 10
29.1910012811422
 20
7.99999952316284
 30
0.0
 11
29.1910012811422
 21
14.1691660881042
 31
0.0
  0
POLYLINE
  8
0
 62
0
 70
0
 66
1
 10
0.0
 20
0.0
 30
0.0
  0
VERTEX
  8
0
 10
29.1910012811422
 20
14.1691660881042
 30
0.0
  0
VERTEX
  8
0
 10
28.990455493331
 20
15.7401084899902
 30
0.0
  0
SEQEND
  8
0
  0
POLYLINE
  8
0
 62
0
 70
0
 66
1
 10
0.0
 20
0.0
 30
0.0
  0
VERTEX
  8
0
 10
28.990455493331
 20
15.7401084899902
 30
0.0
  0
VERTEX
  8
0
 10
28.2789953798056
 20
16.5709400177002
 30
0.0
  0
SEQEND
  8
0
  0
POLYLINE
  8
0
 62
0
 70
0
 66
1
 10
0.0
 20
0.0
 30
0.0
  0
VERTEX
  8
0
 10
28.2789953798056
 20
16.5709400177002
 30
0.0
  0
VERTEX
  8
0
 10
27.0804961770773
 20
16.881308555603
 30
0.0
  0
SEQEND
  8
0
  0
POLYLINE
  8
0
 62
0
 70
0
 66
1
 10
0.0
 20
0.0
 30
0.0
  0
VERTEX
  8
0
 10
27.0804961770773
 20
16.881308555603
 30
0.0
  0
VERTEX
  8
0
 10
25.1848610490561
 20
16.1841726303101
 30
0.0
  0
SEQEND
  8
0
  0
POLYLINE
  8
0
 62
0
 70
0
 66
1
 10
0.0
 20
0.0
 30
0.0
  0
VERTEX
  8
0
 10
25.1848610490561
 20
16.1841726303101
 30
0.0
  0
VERTEX
  8
0
 10
24.3874534219503
 20
13.5388803482056
 30
0.0
  0
SEQEND
  8
0
  0
LINE
  8
0
 62
0
 10
20.0518473237753
 20
21.9999992847443
 30
0.0
 11
20.0518473237753
 21
20.0231909751892
 31
0.0
  0
LINE
  8
0
 62
0
 10
20.0518473237753
 20
20.0231909751892
 30
0.0
 11
18.332883939147
 21
20.0231909751892
 31
0.0
  0
LINE
  8
0
 62
0
 10
18.332883939147
 20
20.0231909751892
 30
0.0
 11
18.332883939147
 21
21.9999992847443
 31
0.0
  0
LINE
  8
0
 62
0
 10
18.332883939147
 20
21.9999992847443
 30
0.0
 11
20.0518473237753
 21
21.9999992847443
 31
0.0
  0
POLYLINE
  8
0
 62
0
 70
0
 66
1
 10
0.0
 20
0.0
 30
0.0
  0
VERTEX
  8
0
 10
5.63643179833889
 20
9.9815821647644
 30
0.0
  0
VERTEX
  8
0
 10
7.6514383405447
 20
8.31514358520507
 30
0.0
  0
SEQEND
  8
0
  0
POLYLINE
  8
0
 62
0
 70
0
 66
1
 10
0.0
 20
0.0
 30
0.0
  0
VERTEX
  8
0
 10
7.6514383405447
 20
8.31514358520507
 30
0.0
  0
VERTEX
  8
0
 10
10.836294516921
 20
7.76125431060791
 30
0.0
  0
SEQEND
  8
0
  0
POLYLINE
  8
0
 62
0
 70
0
 66
1
 10
0.0
 20
0.0
 30
0.0
  0
VERTEX
  8
0
 10
10.836294516921
 20
7.76125431060791
 30
0.0
  0
VERTEX
  8
0
 10
13.5341127961874
 20
8.31036806106567
 30
0.0
  0
SEQEND
  8
0
  0
POLYLINE
  8
0
 62
0
 70
0
 66
1
 10
0.0
 20
0.0
 30
0.0
  0
VERTEX
  8
0
 10
13.5341127961874
 20
8.31036806106567
 30
0.0
  0
VERTEX
  8
0
 10
15.3724475950003
 20
9.84788417816162
 30
0.0
  0
SEQEND
  8
0
  0
POLYLINE
  8
0
 62
0
 70
0
 66
1
 10
0.0
 20
0.0
 30
0.0
  0
VERTEX
  8
0
 10
15.3724475950003
 20
9.84788417816162
 30
0.0
  0
VERTEX
  8
0
 10
16.0122831910849
 20
11.9536137580872
 30
0.0
  0
SEQEND
  8
0
  0
POLYLINE
  8
0
 62
0
 70
0
 66
1
 10
0.0
 20
0.0
 30
0.0
  0
VERTEX
  8
0
 10
16.0122831910849
 20
11.9536137580872
 30
0.0
  0
VERTEX
  8
0
 10
15.4297455400229
 20
13.9447474479675
 30
0.0
  0
SEQEND
  8
0
  0
POLYLINE
  8
0
 62
0
 70
0
 66
1
 10
0.0
 20
0.0
 30
0.0
  0
VERTEX
  8
0
 10
15.4297455400229
 20
13.9447474479675
 30
0.0
  0
VERTEX
  8
0
 10
13.6248358339071
 20
15.3724408149719
 30
0.0
  0
SEQEND
  8
0
  0
POLYLINE
  8
0
 62
0
 70
0
 66
1
 10
0.0
 20
0.0
 30
0.0
  0
VERTEX
  8
0
 10
13.6248358339071
 20
15.3724408149719
 30
0.0
  0
VERTEX
  8
0
 10
10.5259259790182
 20
16.2653470039368
 30
0.0
  0
SEQEND
  8
0
  0
POLYLINE
  8
0
 62
0
 70
0
 66
1
 10
0.0
 20
0.0
 30
0.0
  0
VERTEX
  8
0
 10
15.5920919030905
 20
18.055933713913
 30
0.0
  0
VERTEX
  8
0
 10
14.9045070260763
 20
20.2619361877441
 30
0.0
  0
SEQEND
  8
0
  0
POLYLINE
  8
0
 62
0
 70
0
 66
1
 10
0.0
 20
0.0
 30
0.0
  0
VERTEX
  8
0
 10
14.9045070260763
 20
20.2619361877441
 30
0.0
  0
VERTEX
  8
0
 10
13.0757220834494
 20
21.7373788356781
 30
0.0
  0
SEQEND
  8
0
  0
POLYLINE
  8
0
 62
0
 70
0
 66
1
 10
0.0
 20
0.0
 30
0.0
  0
VERTEX
  8
0
 10
13.0757220834494
 20
21.7373788356781
 30
0.0
  0
VERTEX
  8
0
 10
10.3301557153463
 20
22.2387433052063
 30
0.0
  0
SEQEND
  8
0
  0
POLYLINE
  8
0
 62
0
 70
0
 66
1
 10
0.0
 20
0.0
 30
0.0
  0
VERTEX
  8
0
 10
10.3301557153463
 20
22.2387433052063
 30
0.0
  0
VERTEX
  8
0
 10
7.76126109063625
 20
21.7612540721893
 30
0.0
  0
SEQEND
  8
0
  0
POLYLINE
  8
0
 62
0
 70
0
 66
1
 10
0.0
 20
0.0
 30
0.0
  0
VERTEX
  8
0
 10
7.76126109063625
 20
21.7612540721893
 30
0.0
  0
VERTEX
  8
0
 10
6.00409828126431
 20
20.3622090816498
 30
0.0
  0
SEQEND
  8
0
  0
POLYLINE
  8
0
 62
0
 70
0
 66
1
 10
0.0
 20
0.0
 30
0.0
  0
VERTEX
  8
0
 10
6.00409828126431
 20
20.3622090816498
 30
0.0
  0
VERTEX
  8
0
 10
5.40246151387691
 20
18.3806264400482
 30
0.0
  0
SEQEND
  8
0
  0
POLYLINE
  8
0
 62
0
 70
0
 66
1
 10
0.0
 20
0.0
 30
0.0
  0
VERTEX
  8
0
 10
5.40246151387691
 20
18.3806264400482
 30
0.0
  0
VERTEX
  8
0
 10
5.89427553117275
 20
16.6377902030945
 30
0.0
  0
SEQEND
  8
0
  0
POLYLINE
  8
0
 62
0
 70
0
 66
1
 10
0.0
 20
0.0
 30
0.0
  0
VERTEX
  8
0
 10
5.89427553117275
 20
16.6377902030945
 30
0.0
  0
VERTEX
  8
0
 10
7.38881908357143
 20
15.3342425823212
 30
0.0
  0
SEQEND
  8
0
  0
POLYLINE
  8
0
 62
0
 70
0
 66
1
 10
0.0
 20
0.0
 30
0.0
  0
VERTEX
  8
0
 10
7.38881908357143
 20
15.3342425823212
 30
0.0
  0
VERTEX
  8
0
 10
10.0914105027914
 20
14.4604361057281
 30
0.0
  0
SEQEND
  8
0
  0
POLYLINE
  8
0
 62
0
 70
0
 66
1
 10
0.0
 20
0.0
 30
0.0
  0
VERTEX
  8
0
 10
4.86767314374447
 20
12.4979519844055
 30
0.0
  0
VERTEX
  8
0
 10
5.63643179833889
 20
9.9815821647644
 30
0.0
  0
SEQEND
  8
0
  0
POLYLINE
  8
0
 62
0
 70
0
 66
1
 10
0.0
 20
0.0
 30
0.0
  0
VERTEX
  8
0
 10
34.3096908181906
 20
4.70054626464843
 30
0.0
  0
VERTEX
  8
0
 10
37.2414764016867
 20
3.88403892517089
 30
0.0
  0
SEQEND
  8
0
  0
POLYLINE
  8
0
 62
0
 70
0
 66
1
 10
0.0
 20
0.0
 30
0.0
  0
VERTEX
  8
0
 10
37.2414764016867
 20
3.88403892517089
 30
0.0
  0
VERTEX
  8
0
 10
39.8151501268148
 20
4.4570255279541
 30
0.0
  0
SEQEND
  8
0
  0
POLYLINE
  8
0
 62
0
 70
0
 66
1
 10
0.0
 20
0.0
 30
0.0
  0
VERTEX
  8
0
 10
39.8151501268148
 20
4.4570255279541
 30
0.0
  0
VERTEX
  8
0
 10
41.3431128114462
 20
6.01841688156127
 30
0.0
  0
SEQEND
  8
0
  0
POLYLINE
  8
0
 62
0
 70
0
 66
1
 10
0.0
 20
0.0
 30
0.0
  0
VERTEX
  8
0
 10
41.3431128114462
 20
6.01841688156127
 30
0.0
  0
VERTEX
  8
0
 10
41.8253811448812
 20
9.37516927719116
 30
0.0
  0
SEQEND
  8
0
  0
POLYLINE
  8
0
 62
0
 70
0
 66
1
 10
0.0
 20
0.0
 30
0.0
  0
VERTEX
  8
0
 10
39.4401121704486
 20
17.6924859905911
 30
0.0
  0
VERTEX
  8
0
 10
37.2796758264303
 20
18.3710765838623
 30
0.0
  0
SEQEND
  8
0
  0
POLYLINE
  8
0
 62
0
 70
0
 66
1
 10
0.0
 20
0.0
 30
0.0
  0
VERTEX
  8
0
 10
37.2796758264303
 20
18.3710765838623
 30
0.0
  0
VERTEX
  8
0
 10
34.9352010339499
 20
17.70259141922
 30
0.0
  0
SEQEND
  8
0
  0
POLYLINE
  8
0
 62
0
 70
0
 66
1
 10
0.0
 20
0.0
 30
0.0
  0
VERTEX
  8
0
 10
34.9352010339499
 20
17.70259141922
 30
0.0
  0
VERTEX
  8
0
 10
33.4120091050863
 20
15.8069562911987
 30
0.0
  0
SEQEND
  8
0
  0
POLYLINE
  8
0
 62
0
 70
0
 66
1
 10
0.0
 20
0.0
 30
0.0
  0
VERTEX
  8
0
 10
33.4120091050863
 20
15.8069562911987
 30
0.0
  0
VERTEX
  8
0
 10
32.8867705911398
 20
13.12824010849
 30
0.0
  0
SEQEND
  8
0
  0
POLYLINE
  8
0
 62
0
 70
0
 66
1
 10
0.0
 20
0.0
 30
0.0
  0
VERTEX
  8
0
 10
32.8867705911398
 20
13.12824010849
 30
0.0
  0
VERTEX
  8
0
 10
34.032746180892
 20
9.50886726379394
 30
0.0
  0
SEQEND
  8
0
  0
POLYLINE
  8
0
 62
0
 70
0
 66
1
 10
0.0
 20
0.0
 30
0.0
  0
VERTEX
  8
0
 10
34.032746180892
 20
9.50886726379394
 30
0.0
  0
VERTEX
  8
0
 10
37.2701271623373
 20
7.99999952316284
 30
0.0
  0
SEQEND
  8
0
  0
POLYLINE
  8
0
 62
0
 70
0
 66
1
 10
0.0
 20
0.0
 30
0.0
  0
VERTEX
  8
0
 10
37.2701271623373
 20
7.99999952316284
 30
0.0
  0
VERTEX
  8
0
 10
40.0777634233236
 20
9.32742118835449
 30
0.0
  0
SEQEND
  8
0
  0
POLYLINE
  8
0
 62
0
 70
0
 66
1
 10
0.0
 20
0.0
 30
0.0
  0
VERTEX
  8
0
 10
33.2305630296469
 20
7.15961694717407
 30
0.0
  0
VERTEX
  8
0
 10
34.3096908181906
 20
4.70054626464843
 30
0.0
  0
SEQEND
  8
0
  0
POLYLINE
  8
0
 62
0
 70
0
 66
1
 10
0.0
 20
0.0
 30
0.0
  0
VERTEX
  8
0
 10
87.8458412736654
 20
3.88403892517089
 30
0.0
  0
VERTEX
  8
0
 10
89.2592056840658
 20
4.28035497665405
 30
0.0
  0
SEQEND
  8
0
  0
POLYLINE
  8
0
 62
0
 70
0
 66
1
 10
0.0
 20
0.0
 30
0.0
  0
VERTEX
  8
0
 10
89.2592056840658
 20
4.28035497665405
 30
0.0
  0
VERTEX
  8
0
 10
90.3096779435873
 20
5.52660226821899
 30
0.0
  0
SEQEND
  8
0
  0
POLYLINE
  8
0
 62
0
 70
0
 66
1
 10
0.0
 20
0.0
 30
0.0
  0
VERTEX
  8
0
 10
90.3096779435873
 20
5.52660226821899
 30
0.0
  0
VERTEX
  8
0
 10
91.2742241472006
 20
7.8281021118164
 30
0.0
  0
SEQEND
  8
0
  0
POLYLINE
  8
0
 62
0
 70
0
 66
1
 10
0.0
 20
0.0
 30
0.0
  0
VERTEX
  8
0
 10
91.2455757707357
 20
12.2305583953857
 30
0.0
  0
VERTEX
  8
0
 10
90.5388840287924
 20
9.91950750350952
 30
0.0
  0
SEQEND
  8
0
  0
POLYLINE
  8
0
 62
0
 70
0
 66
1
 10
0.0
 20
0.0
 30
0.0
  0
VERTEX
  8
0
 10
90.5388840287924
 20
9.91950750350952
 30
0.0
  0
VERTEX
  8
0
 10
89.8035439103842
 20
12.2687578201294
 30
0.0
  0
SEQEND
  8
0
  0
POLYLINE
  8
0
 62
0
 70
0
 66
1
 10
0.0
 20
0.0
 30
0.0
  0
VERTEX
  8
0
 10
89.6889504045248
 20
7.98089981079101
 30
0.0
  0
VERTEX
  8
0
 10
89.5361527055502
 20
7.56070852279663
 30
0.0
  0
SEQEND
  8
0
  0
POLYLINE
  8
0
 62
0
 70
0
 66
1
 10
0.0
 20
0.0
 30
0.0
  0
VERTEX
  8
0
 10
86.7380722612143
 20
4.09413337707519
 30
0.0
  0
VERTEX
  8
0
 10
87.8458412736654
 20
3.88403892517089
 30
0.0
  0
SEQEND
  8
0
  0
POLYLINE
  8
0
 62
0
 70
0
 66
1
 10
0.0
 20
0.0
 30
0.0
  0
VERTEX
  8
0
 10
67.8581245988607
 20
14.541609287262
 30
0.0
  0
VERTEX
  8
0
 10
67.7721747010946
 20
16.1268746852875
 30
0.0
  0
SEQEND
  8
0
  0
POLYLINE
  8
0
 62
0
 70
0
 66
1
 10
0.0
 20
0.0
 30
0.0
  0
VERTEX
  8
0
 10
67.7721747010946
 20
16.1268746852875
 30
0.0
  0
VERTEX
  8
0
 10
67.2373875230551
 20
17.296724319458
 30
0.0
  0
SEQEND
  8
0
  0
POLYLINE
  8
0
 62
0
 70
0
 66
1
 10
0.0
 20
0.0
 30
0.0
  0
VERTEX
  8
0
 10
67.2373875230551
 20
17.296724319458
 30
0.0
  0
VERTEX
  8
0
 10
66.0436638444662
 20
18.0654835700989
 30
0.0
  0
SEQEND
  8
0
  0
POLYLINE
  8
0
 62
0
 70
0
 66
1
 10
0.0
 20
0.0
 30
0.0
  0
VERTEX
  8
0
 10
66.0436638444662
 20
18.0654835700989
 30
0.0
  0
VERTEX
  8
0
 10
63.9331587404013
 20
18.3710765838623
 30
0.0
  0
SEQEND
  8
0
  0
POLYLINE
  8
0
 62
0
 70
0
 66
1
 10
0.0
 20
0.0
 30
0.0
  0
VERTEX
  8
0
 10
63.9331587404013
 20
18.3710765838623
 30
0.0
  0
VERTEX
  8
0
 10
61.6316565126181
 20
18.0129599571228
 30
0.0
  0
SEQEND
  8
0
  0
POLYLINE
  8
0
 62
0
 70
0
 66
1
 10
0.0
 20
0.0
 30
0.0
  0
VERTEX
  8
0
 10
61.6316565126181
 20
18.0129599571228
 30
0.0
  0
VERTEX
  8
0
 10
60.1132401078939
 20
16.9911313056946
 30
0.0
  0
SEQEND
  8
0
  0
POLYLINE
  8
0
 62
0
 70
0
 66
1
 10
0.0
 20
0.0
 30
0.0
  0
VERTEX
  8
0
 10
60.1132401078939
 20
16.9911313056946
 30
0.0
  0
VERTEX
  8
0
 10
59.3588074296713
 20
15.2482938766479
 30
0.0
  0
SEQEND
  8
0
  0
POLYLINE
  8
0
 62
0
 70
0
 66
1
 10
0.0
 20
0.0
 30
0.0
  0
VERTEX
  8
0
 10
63.0545767396688
 20
13.844473361969
 30
0.0
  0
VERTEX
  8
0
 10
61.5266092866659
 20
13.586630821228
 30
0.0
  0
SEQEND
  8
0
  0
POLYLINE
  8
0
 62
0
 70
0
 66
1
 10
0.0
 20
0.0
 30
0.0
  0
VERTEX
  8
0
 10
61.5266092866659
 20
13.586630821228
 30
0.0
  0
VERTEX
  8
0
 10
60.2899130433798
 20
13.023190498352
 30
0.0
  0
SEQEND
  8
0
  0
POLYLINE
  8
0
 62
0
 70
0
 66
1
 10
0.0
 20
0.0
 30
0.0
  0
VERTEX
  8
0
 10
60.2899130433798
 20
13.023190498352
 30
0.0
  0
VERTEX
  8
0
 10
59.4017799943686
 20
12.0347881317139
 30
0.0
  0
SEQEND
  8
0
  0
POLYLINE
  8
0
 62
0
 70
0
 66
1
 10
0.0
 20
0.0
 30
0.0
  0
VERTEX
  8
0
 10
59.4017799943686
 20
12.0347881317139
 30
0.0
  0
VERTEX
  8
0
 10
59.0627630800009
 20
10.673942565918
 30
0.0
  0
SEQEND
  8
0
  0
POLYLINE
  8
0
 62
0
 70
0
 66
1
 10
0.0
 20
0.0
 30
0.0
  0
VERTEX
  8
0
 10
59.0627630800009
 20
10.673942565918
 30
0.0
  0
VERTEX
  8
0
 10
59.9604424089193
 20
8.58731269836425
 30
0.0
  0
SEQEND
  8
0
  0
POLYLINE
  8
0
 62
0
 70
0
 66
1
 10
0.0
 20
0.0
 30
0.0
  0
VERTEX
  8
0
 10
59.9604424089193
 20
8.58731269836425
 30
0.0
  0
VERTEX
  8
0
 10
62.5293406099081
 20
7.77080535888671
 30
0.0
  0
SEQEND
  8
0
  0
POLYLINE
  8
0
 62
0
 70
0
 66
1
 10
0.0
 20
0.0
 30
0.0
  0
VERTEX
  8
0
 10
62.5293406099081
 20
7.77080535888671
 30
0.0
  0
VERTEX
  8
0
 10
64.4249733537436
 20
8.10504674911499
 30
0.0
  0
SEQEND
  8
0
  0
POLYLINE
  8
0
 62
0
 70
0
 66
1
 10
0.0
 20
0.0
 30
0.0
  0
VERTEX
  8
0
 10
64.4249733537436
 20
8.10504674911499
 30
0.0
  0
VERTEX
  8
0
 10
65.4091976198701
 20
8.61125798874365
 30
0.0
  0
SEQEND
  8
0
  0
POLYLINE
  8
0
 62
0
 70
0
 66
1
 10
0.0
 20
0.0
 30
0.0
  0
VERTEX
  8
0
 10
63.3124216645956
 20
12.4406552314758
 30
0.0
  0
VERTEX
  8
0
 10
66.1200626939535
 20
13.0900406837463
 30
0.0
  0
SEQEND
  8
0
  0
POLYLINE
  8
0
 62
0
 70
0
 66
1
 10
0.0
 20
0.0
 30
0.0
  0
VERTEX
  8
0
 10
66.2633093446493
 20
9.25102233886718
 30
0.0
  0
VERTEX
  8
0
 10
66.6070993989706
 20
7.99999952316284
 30
0.0
  0
SEQEND
  8
0
  0
POLYLINE
  8
0
 62
0
 70
0
 66
1
 10
0.0
 20
0.0
 30
0.0
  0
VERTEX
  8
0
 10
81.6957768052816
 20
10.9699869155884
 30
0.0
  0
VERTEX
  8
0
 10
81.9058807939291
 20
8.94065380096435
 30
0.0
  0
SEQEND
  8
0
  0
POLYLINE
  8
0
 62
0
 70
0
 66
1
 10
0.0
 20
0.0
 30
0.0
  0
VERTEX
  8
0
 10
81.9058807939291
 20
8.94065380096435
 30
0.0
  0
VERTEX
  8
0
 10
82.6316650956869
 20
8.16234588623047
 30
0.0
  0
SEQEND
  8
0
  0
POLYLINE
  8
0
 62
0
 70
0
 66
1
 10
0.0
 20
0.0
 30
0.0
  0
VERTEX
  8
0
 10
82.6316650956869
 20
8.16234588623047
 30
0.0
  0
VERTEX
  8
0
 10
84.0832336992025
 20
7.86630153656005
 30
0.0
  0
SEQEND
  8
0
  0
POLYLINE
  8
0
 62
0
 70
0
 66
1
 10
0.0
 20
0.0
 30
0.0
  0
VERTEX
  8
0
 10
84.0832336992025
 20
7.86630153656005
 30
0.0
  0
VERTEX
  8
0
 10
85.3820046037436
 20
8.01909923553466
 30
0.0
  0
SEQEND
  8
0
  0
POLYLINE
  8
0
 62
0
 70
0
 66
1
 10
0.0
 20
0.0
 30
0.0
  0
VERTEX
  8
0
 10
76.0136421769857
 20
17.817188501358
 30
0.0
  0
VERTEX
  8
0
 10
74.2469318956137
 20
18.3710765838623
 30
0.0
  0
SEQEND
  8
0
  0
POLYLINE
  8
0
 62
0
 70
0
 66
1
 10
0.0
 20
0.0
 30
0.0
  0
VERTEX
  8
0
 10
74.2469318956137
 20
18.3710765838623
 30
0.0
  0
VERTEX
  8
0
 10
73.1439312547445
 20
18.0272841453552
 30
0.0
  0
SEQEND
  8
0
  0
POLYLINE
  8
0
 62
0
 70
0
 66
1
 10
0.0
 20
0.0
 30
0.0
  0
VERTEX
  8
0
 10
73.1439312547445
 20
18.0272841453552
 30
0.0
  0
VERTEX
  8
0
 10
72.0504768937826
 20
16.6043639183044
 30
0.0
  0
SEQEND
  8
0
  0
POLYLINE
  8
0
 62
0
 70
0
 66
1
 10
0.0
 20
0.0
 30
0.0
  0
VERTEX
  8
0
 10
44.3847235292196
 20
11.858115196228
 30
0.0
  0
VERTEX
  8
0
 10
44.4897707551718
 20
10.2537512779236
 30
0.0
  0
SEQEND
  8
0
  0
POLYLINE
  8
0
 62
0
 70
0
 66
1
 10
0.0
 20
0.0
 30
0.0
  0
VERTEX
  8
0
 10
44.4897707551718
 20
10.2537512779236
 30
0.0
  0
VERTEX
  8
0
 10
45.0197847932577
 20
8.978853225708
 30
0.0
  0
SEQEND
  8
0
  0
POLYLINE
  8
0
 62
0
 70
0
 66
1
 10
0.0
 20
0.0
 30
0.0
  0
VERTEX
  8
0
 10
45.0197847932577
 20
8.978853225708
 30
0.0
  0
VERTEX
  8
0
 10
46.1753090471029
 20
8.1145977973938
 30
0.0
  0
SEQEND
  8
0
  0
POLYLINE
  8
0
 62
0
 70
0
 66
1
 10
0.0
 20
0.0
 30
0.0
  0
VERTEX
  8
0
 10
46.1753090471029
 20
8.1145977973938
 30
0.0
  0
VERTEX
  8
0
 10
47.8513010591269
 20
7.77080535888671
 30
0.0
  0
SEQEND
  8
0
  0
POLYLINE
  8
0
 62
0
 70
0
 66
1
 10
0.0
 20
0.0
 30
0.0
  0
VERTEX
  8
0
 10
47.8513010591269
 20
7.77080535888671
 30
0.0
  0
VERTEX
  8
0
 10
51.0695799440145
 20
9.48976755142212
 30
0.0
  0
SEQEND
  8
0
  0
POLYLINE
  8
0
 62
0
 70
0
 66
1
 10
0.0
 20
0.0
 30
0.0
  0
VERTEX
  8
0
 10
30.9099634736776
 20
14.2360150814056
 30
0.0
  0
VERTEX
  8
0
 10
30.8144672960043
 20
15.9072291851044
 30
0.0
  0
SEQEND
  8
0
  0
POLYLINE
  8
0
 62
0
 70
0
 66
1
 10
0.0
 20
0.0
 30
0.0
  0
VERTEX
  8
0
 10
30.8144672960043
 20
15.9072291851044
 30
0.0
  0
VERTEX
  8
0
 10
30.279677733779
 20
17.1773529052734
 30
0.0
  0
SEQEND
  8
0
  0
POLYLINE
  8
0
 62
0
 70
0
 66
1
 10
0.0
 20
0.0
 30
0.0
  0
VERTEX
  8
0
 10
30.279677733779
 20
17.1773529052734
 30
0.0
  0
VERTEX
  8
0
 10
29.1289290040731
 20
18.0416083335876
 30
0.0
  0
SEQEND
  8
0
  0
POLYLINE
  8
0
 62
0
 70
0
 66
1
 10
0.0
 20
0.0
 30
0.0
  0
VERTEX
  8
0
 10
29.1289290040731
 20
18.0416083335876
 30
0.0
  0
VERTEX
  8
0
 10
27.4433883279562
 20
18.3710765838623
 30
0.0
  0
SEQEND
  8
0
  0
POLYLINE
  8
0
 62
0
 70
0
 66
1
 10
0.0
 20
0.0
 30
0.0
  0
VERTEX
  8
0
 10
27.4433883279562
 20
18.3710765838623
 30
0.0
  0
VERTEX
  8
0
 10
24.2155583947897
 20
16.6998624801636
 30
0.0
  0
SEQEND
  8
0
  0
ENDBLK
  0
ENDSEC
  0
SECTION
  2
ENTITIES
  0
INSERT
  2
PART__FEATURE
  8
0
 62
0
 10
0.0
 20
0.0
 30
0.0
  0
ENDSEC
  0
EOF
