M48
; DRILL file {KiCad (5.1.9)-1} date 04/19/21 22:32:13
; FORMAT={-:-/ absolute / inch / decimal}
; #@! TF.CreationDate,2021-04-19T22:32:13-07:00
; #@! TF.GenerationSoftware,Kicad,Pcbnew,(5.1.9)-1
; #@! TF.FileFunction,NonPlated,1,2,NPTH
FMAT,2
INCH
T1C0.0689
T2C0.1200
T3C0.1570
%
G90
G05
T1
X13.55Y-3.05
X13.644Y-4.55
X13.645Y-6.05
X13.7375Y-3.8
X13.738Y-6.05
X13.8312Y-4.55
X13.95Y-3.05
X14.0187Y-5.3
X14.044Y-4.55
X14.045Y-6.05
X14.1375Y-3.8
X14.138Y-6.05
X14.2312Y-4.55
X14.3Y-3.05
X14.4187Y-5.3
X14.5812Y-6.05
X14.675Y-3.8
X14.675Y-6.049
X14.7Y-3.05
X14.863Y-4.55
X14.9812Y-6.05
X15.05Y-3.05
X15.075Y-3.8
X15.075Y-6.049
X15.2375Y-5.3
X15.263Y-4.55
X15.425Y-3.8
X15.45Y-3.05
X15.5187Y-6.05
X15.6125Y-4.55
X15.614Y-6.05
X15.6375Y-5.3
X15.8Y-3.05
X15.825Y-3.8
X15.9187Y-6.05
X15.9875Y-5.3
X16.0125Y-4.55
X16.014Y-6.05
X16.175Y-3.8
X16.2Y-3.05
X16.363Y-4.55
X16.3875Y-5.3
X16.55Y-3.05
X16.575Y-3.8
X16.7375Y-5.3
X16.763Y-4.55
X16.925Y-3.8
X16.95Y-3.05
X17.114Y-4.55
X17.1375Y-5.3
X17.3Y-3.05
X17.325Y-3.8
X17.514Y-4.55
X17.5188Y-5.3
X17.676Y-3.8
X17.7Y-3.05
X17.8625Y-4.55
X17.9187Y-5.3
X18.05Y-3.05
X18.076Y-3.8
X18.238Y-5.3
X18.2625Y-4.55
X18.332Y-6.049
X18.425Y-3.8
X18.45Y-3.05
X18.613Y-4.55
X18.638Y-5.3
X18.732Y-6.049
X18.8Y-3.05
X18.801Y-6.049
X18.825Y-3.8
X18.9875Y-5.3
X19.013Y-4.55
X19.175Y-3.8
X19.2Y-3.05
X19.201Y-6.049
X19.3625Y-4.55
X19.3875Y-5.3
X19.55Y-3.05
X19.575Y-3.8
X19.7375Y-5.3
X19.7625Y-4.55
X19.925Y-3.8
X19.95Y-3.05
X20.1125Y-4.55
X20.1375Y-5.3
X20.3Y-3.05
X20.325Y-3.8
X20.488Y-5.3
X20.5125Y-4.55
X20.675Y-3.8
X20.7Y-3.05
X20.863Y-4.55
X20.888Y-5.3
X21.05Y-3.05
X21.075Y-3.8
X21.145Y-6.05
X21.239Y-5.3
X21.263Y-4.55
X21.425Y-3.8
X21.45Y-3.05
X21.545Y-6.05
X21.613Y-4.55
X21.639Y-5.3
X21.8Y-3.05
X21.825Y-3.8
X21.988Y-5.3
X21.988Y-6.049
X22.013Y-4.55
X22.0813Y-6.049
X22.175Y-3.8
X22.2Y-3.05
X22.364Y-4.549
X22.388Y-5.3
X22.388Y-6.049
X22.4812Y-6.049
X22.55Y-3.05
X22.575Y-3.8
X22.764Y-4.549
X22.925Y-3.8
X22.925Y-6.05
X22.95Y-3.05
X23.019Y-5.3
X23.019Y-6.05
X23.3Y-3.05
X23.325Y-3.8
X23.325Y-6.05
X23.394Y-5.3
X23.419Y-5.3
X23.419Y-6.05
X23.582Y-4.549
X23.675Y-3.05
X23.7Y-3.05
X23.794Y-5.3
X23.8625Y-6.049
X23.863Y-3.8
X23.9563Y-6.05
X23.982Y-4.549
X24.05Y-3.05
X24.05Y-5.3
X24.075Y-3.05
X24.2625Y-6.049
X24.263Y-3.8
X24.3562Y-6.05
X24.45Y-3.05
X24.45Y-5.3
T2
X13.75Y-5.025
X14.6875Y-5.025
X16.5635Y-6.324
X16.751Y-6.324
X20.5005Y-6.324
X21.251Y-6.324
X23.1253Y-5.025
X23.3133Y-4.274
X23.4062Y-2.775
X24.0628Y-5.025
X24.2508Y-4.274
X24.3438Y-2.775
T3
X13.75Y-3.05
X13.75Y-5.625
X13.844Y-4.55
X13.845Y-6.05
X13.9375Y-3.8
X13.938Y-6.05
X14.0312Y-4.55
X14.2188Y-5.3
X14.5Y-3.05
X14.6875Y-5.625
X14.7812Y-6.05
X14.875Y-3.8
X14.875Y-6.049
X15.063Y-4.55
X15.25Y-3.05
X15.4375Y-5.3
X15.625Y-3.8
X15.7188Y-6.05
X15.8125Y-4.55
X15.814Y-6.05
X16.0Y-3.05
X16.1875Y-5.3
X16.375Y-3.8
X16.563Y-4.55
X16.5635Y-5.724
X16.75Y-3.05
X16.751Y-5.724
X16.9375Y-5.3
X17.125Y-3.8
X17.314Y-4.55
X17.5Y-3.05
X17.7188Y-5.3
X17.876Y-3.8
X18.0625Y-4.55
X18.25Y-3.05
X18.438Y-5.3
X18.532Y-6.049
X18.625Y-3.8
X18.813Y-4.55
X19.0Y-3.05
X19.001Y-6.049
X19.1875Y-5.3
X19.375Y-3.8
X19.5625Y-4.55
X19.75Y-3.05
X19.9375Y-5.3
X20.125Y-3.8
X20.3125Y-4.55
X20.5Y-3.05
X20.5005Y-5.724
X20.688Y-5.3
X20.875Y-3.8
X21.063Y-4.55
X21.25Y-3.05
X21.251Y-5.724
X21.345Y-6.05
X21.439Y-5.3
X21.625Y-3.8
X21.813Y-4.55
X22.0Y-3.05
X22.188Y-5.3
X22.188Y-6.049
X22.2812Y-6.049
X22.375Y-3.8
X22.564Y-4.549
X22.75Y-3.05
X23.125Y-3.8
X23.125Y-6.05
X23.1253Y-5.625
X23.219Y-5.3
X23.219Y-6.05
X23.3133Y-4.874
X23.4062Y-3.375
X23.5Y-3.05
X23.594Y-5.3
X23.782Y-4.549
X23.875Y-3.05
X24.0625Y-6.049
X24.0628Y-5.625
X24.063Y-3.8
X24.1562Y-6.05
X24.25Y-3.05
X24.25Y-5.3
X24.2508Y-4.874
X24.3438Y-3.375
T0
M30
