M48
; DRILL file {KiCad (5.1.9)-1} date 04/19/21 22:32:13
; FORMAT={-:-/ absolute / inch / decimal}
; #@! TF.CreationDate,2021-04-19T22:32:13-07:00
; #@! TF.GenerationSoftware,Kicad,Pcbnew,(5.1.9)-1
; #@! TF.FileFunction,Plated,1,2,PTH
FMAT,2
INCH
T1C0.0157
T2C0.0579
%
G90
G05
T1
X13.878Y-4.1535
X14.0551Y-3.8583
X14.22Y-4.45
X14.25Y-3.41
X14.275Y-5.675
X14.28Y-3.265
X14.29Y-4.91
X14.295Y-4.85
X14.325Y-4.085
X14.33Y-3.64
X14.33Y-4.035
X14.395Y-4.04
X14.465Y-4.91
X14.66Y-3.585
X14.785Y-4.075
X14.8031Y-6.2402
X14.8622Y-4.7002
X15.445Y-4.05
X15.445Y-4.15
X15.62Y-5.405
X17.6575Y-6.2598
X20.35Y-6.2
X22.0079Y-6.2205
X23.6811Y-5.7677
X23.9961Y-6.2205
T2
X13.6Y-2.95
X13.694Y-4.45
X13.695Y-5.95
X13.7875Y-3.7
X13.788Y-5.95
X13.85Y-2.85
X13.8812Y-4.45
X13.944Y-4.35
X13.945Y-5.85
X14.0375Y-3.6
X14.038Y-5.85
X14.0687Y-5.2
X14.1312Y-4.35
X14.3187Y-5.1
X14.35Y-2.95
X14.6Y-2.85
X14.6312Y-5.95
X14.725Y-3.7
X14.725Y-5.949
X14.8812Y-5.85
X14.913Y-4.45
X14.975Y-3.6
X14.975Y-5.849
X15.1Y-2.95
X15.163Y-4.35
X15.2875Y-5.2
X15.35Y-2.85
X15.475Y-3.7
X15.5375Y-5.1
X15.5687Y-5.95
X15.6625Y-4.45
X15.664Y-5.95
X15.725Y-3.6
X15.8187Y-5.85
X15.85Y-2.95
X15.9125Y-4.35
X15.914Y-5.85
X16.0375Y-5.2
X16.1Y-2.85
X16.225Y-3.7
X16.2875Y-5.1
X16.413Y-4.45
X16.475Y-3.6
X16.6Y-2.95
X16.663Y-4.35
X16.7875Y-5.2
X16.85Y-2.85
X16.975Y-3.7
X17.0375Y-5.1
X17.164Y-4.45
X17.225Y-3.6
X17.35Y-2.95
X17.414Y-4.35
X17.5687Y-5.2
X17.6Y-2.85
X17.726Y-3.7
X17.8187Y-5.1
X17.9125Y-4.45
X17.976Y-3.6
X18.1Y-2.95
X18.1625Y-4.35
X18.288Y-5.2
X18.35Y-2.85
X18.382Y-5.949
X18.475Y-3.7
X18.538Y-5.1
X18.632Y-5.849
X18.663Y-4.45
X18.725Y-3.6
X18.85Y-2.95
X18.851Y-5.949
X18.913Y-4.35
X19.0375Y-5.2
X19.1Y-2.85
X19.101Y-5.849
X19.225Y-3.7
X19.2875Y-5.1
X19.4125Y-4.45
X19.475Y-3.6
X19.6Y-2.95
X19.6625Y-4.35
X19.7875Y-5.2
X19.85Y-2.85
X19.975Y-3.7
X20.0375Y-5.1
X20.1625Y-4.45
X20.225Y-3.6
X20.35Y-2.95
X20.4125Y-4.35
X20.538Y-5.2
X20.6Y-2.85
X20.725Y-3.7
X20.788Y-5.1
X20.913Y-4.45
X20.975Y-3.6
X21.1Y-2.95
X21.163Y-4.35
X21.195Y-5.95
X21.289Y-5.2
X21.35Y-2.85
X21.445Y-5.85
X21.475Y-3.7
X21.539Y-5.1
X21.663Y-4.45
X21.725Y-3.6
X21.85Y-2.95
X21.913Y-4.35
X22.038Y-5.2
X22.038Y-5.949
X22.1Y-2.85
X22.1312Y-5.949
X22.225Y-3.7
X22.288Y-5.1
X22.288Y-5.849
X22.3812Y-5.849
X22.414Y-4.449
X22.475Y-3.6
X22.6Y-2.95
X22.664Y-4.349
X22.85Y-2.85
X22.975Y-3.7
X22.975Y-5.95
X23.069Y-5.2
X23.069Y-5.95
X23.225Y-3.6
X23.225Y-5.85
X23.319Y-5.1
X23.319Y-5.85
X23.35Y-2.95
X23.444Y-5.2
X23.6Y-2.85
X23.632Y-4.449
X23.694Y-5.1
X23.725Y-2.95
X23.882Y-4.349
X23.9125Y-5.949
X23.913Y-3.7
X23.975Y-2.85
X24.0062Y-5.95
X24.1Y-2.95
X24.1Y-5.2
X24.1625Y-5.849
X24.163Y-3.6
X24.2562Y-5.85
X24.35Y-2.85
X24.35Y-5.1
T0
M30
